<?xml version="1.0" encoding="UTF-8" standalone="no"?>
<svg xmlns="http://www.w3.org/2000/svg" version="1.1" height="760" width="499.8461538461538">
<desc>Ingress logos - By lll9p, No rights reserved, lll9p.china@gmail.com, http://imtho.com</desc>
<rect x="-2000%" y="-2000%" height="4000%" width="4000%" fill="black"/>
<circle cx="236.03846153846152" cy="76" r="1.8" fill="#02bf02"/>
<circle cx="236.03846153846152" cy="85.5" r="1.8" fill="#02bf02"/>
<circle cx="249.9230769230769" cy="76" r="1.8" fill="#02bf02"/>
<circle cx="249.9230769230769" cy="85.5" r="1.8" fill="#02bf02"/>
<circle cx="236.03846153846152" cy="95" r="1.8" fill="#02bf02"/>
<circle cx="236.03846153846152" cy="104.5" r="1.8" fill="#02bf02"/>
<circle cx="249.9230769230769" cy="95" r="1.8" fill="#02bf02"/>
<circle cx="249.9230769230769" cy="104.5" r="1.8" fill="#02bf02"/>
<circle cx="263.80769230769226" cy="95" r="1.8" fill="#02bf02"/>
<circle cx="263.80769230769226" cy="104.5" r="1.8" fill="#02bf02"/>
<circle cx="277.6923076923077" cy="95" r="1.8" fill="#02bf02"/>
<circle cx="277.6923076923077" cy="104.5" r="1.8" fill="#02bf02"/>
<circle cx="236.03846153846152" cy="114" r="1.8" fill="#02bf02"/>
<circle cx="236.03846153846152" cy="123.5" r="1.8" fill="#02bf02"/>
<circle cx="249.9230769230769" cy="114" r="1.8" fill="#02bf02"/>
<circle cx="249.9230769230769" cy="123.5" r="1.8" fill="#02bf02"/>
<circle cx="263.80769230769226" cy="114" r="1.8" fill="#02bf02"/>
<circle cx="263.80769230769226" cy="123.5" r="1.8" fill="#02bf02"/>
<circle cx="277.6923076923077" cy="114" r="1.8" fill="#02bf02"/>
<circle cx="277.6923076923077" cy="123.5" r="1.8" fill="#02bf02"/>
<circle cx="291.57692307692304" cy="114" r="1.8" fill="#02bf02"/>
<circle cx="291.57692307692304" cy="123.5" r="1.8" fill="#02bf02"/>
<circle cx="305.46153846153845" cy="114" r="1.8" fill="#02bf02"/>
<circle cx="305.46153846153845" cy="123.5" r="1.8" fill="#02bf02"/>
<circle cx="236.03846153846152" cy="133" r="1.8" fill="#02bf02"/>
<circle cx="236.03846153846152" cy="142.5" r="1.8" fill="#02bf02"/>
<circle cx="249.9230769230769" cy="133" r="1.8" fill="#02bf02"/>
<circle cx="249.9230769230769" cy="142.5" r="1.8" fill="#02bf02"/>
<circle cx="263.80769230769226" cy="133" r="1.8" fill="#02bf02"/>
<circle cx="263.80769230769226" cy="142.5" r="1.8" fill="#02bf02"/>
<circle cx="277.6923076923077" cy="133" r="1.8" fill="#02bf02"/>
<circle cx="277.6923076923077" cy="142.5" r="1.8" fill="#02bf02"/>
<circle cx="291.57692307692304" cy="133" r="1.8" fill="#02bf02"/>
<circle cx="291.57692307692304" cy="142.5" r="1.8" fill="#02bf02"/>
<circle cx="305.46153846153845" cy="133" r="1.8" fill="#02bf02"/>
<circle cx="305.46153846153845" cy="142.5" r="1.8" fill="#02bf02"/>
<circle cx="319.3461538461538" cy="133" r="1.8" fill="#02bf02"/>
<circle cx="319.3461538461538" cy="142.5" r="1.8" fill="#02bf02"/>
<circle cx="236.03846153846152" cy="152" r="1.8" fill="#02bf02"/>
<circle cx="236.03846153846152" cy="161.5" r="1.8" fill="#02bf02"/>
<circle cx="249.9230769230769" cy="152" r="1.8" fill="#02bf02"/>
<circle cx="249.9230769230769" cy="161.5" r="1.8" fill="#02bf02"/>
<circle cx="263.80769230769226" cy="152" r="1.8" fill="#02bf02"/>
<circle cx="263.80769230769226" cy="161.5" r="1.8" fill="#02bf02"/>
<circle cx="319.3461538461538" cy="152" r="1.8" fill="#02bf02"/>
<circle cx="319.3461538461538" cy="161.5" r="1.8" fill="#02bf02"/>
<circle cx="333.23076923076917" cy="152" r="1.8" fill="#02bf02"/>
<circle cx="333.23076923076917" cy="161.5" r="1.8" fill="#02bf02"/>
<circle cx="236.03846153846152" cy="171" r="1.8" fill="#02bf02"/>
<circle cx="236.03846153846152" cy="180.5" r="1.8" fill="#02bf02"/>
<circle cx="249.9230769230769" cy="171" r="1.8" fill="#02bf02"/>
<circle cx="249.9230769230769" cy="180.5" r="1.8" fill="#02bf02"/>
<circle cx="263.80769230769226" cy="171" r="1.8" fill="#02bf02"/>
<circle cx="263.80769230769226" cy="180.5" r="1.8" fill="#02bf02"/>
<circle cx="319.3461538461538" cy="171" r="1.8" fill="#02bf02"/>
<circle cx="319.3461538461538" cy="180.5" r="1.8" fill="#02bf02"/>
<circle cx="333.23076923076917" cy="171" r="1.8" fill="#02bf02"/>
<circle cx="333.23076923076917" cy="180.5" r="1.8" fill="#02bf02"/>
<circle cx="236.03846153846152" cy="190" r="1.8" fill="#02bf02"/>
<circle cx="236.03846153846152" cy="199.5" r="1.8" fill="#02bf02"/>
<circle cx="249.9230769230769" cy="190" r="1.8" fill="#02bf02"/>
<circle cx="249.9230769230769" cy="199.5" r="1.8" fill="#02bf02"/>
<circle cx="263.80769230769226" cy="190" r="1.8" fill="#02bf02"/>
<circle cx="263.80769230769226" cy="199.5" r="1.8" fill="#02bf02"/>
<circle cx="388.7692307692307" cy="190" r="1.8" fill="#02bf02"/>
<circle cx="388.7692307692307" cy="199.5" r="1.8" fill="#02bf02"/>
<circle cx="402.65384615384613" cy="190" r="1.8" fill="#02bf02"/>
<circle cx="402.65384615384613" cy="199.5" r="1.8" fill="#02bf02"/>
<circle cx="236.03846153846152" cy="209" r="1.8" fill="#02bf02"/>
<circle cx="236.03846153846152" cy="218.5" r="1.8" fill="#02bf02"/>
<circle cx="249.9230769230769" cy="209" r="1.8" fill="#02bf02"/>
<circle cx="249.9230769230769" cy="218.5" r="1.8" fill="#02bf02"/>
<circle cx="263.80769230769226" cy="209" r="1.8" fill="#02bf02"/>
<circle cx="263.80769230769226" cy="218.5" r="1.8" fill="#02bf02"/>
<circle cx="277.6923076923077" cy="209" r="1.8" fill="#02bf02"/>
<circle cx="277.6923076923077" cy="218.5" r="1.8" fill="#02bf02"/>
<circle cx="374.88461538461536" cy="209" r="1.8" fill="#02bf02"/>
<circle cx="374.88461538461536" cy="218.5" r="1.8" fill="#02bf02"/>
<circle cx="388.7692307692307" cy="209" r="1.8" fill="#02bf02"/>
<circle cx="388.7692307692307" cy="218.5" r="1.8" fill="#02bf02"/>
<circle cx="402.65384615384613" cy="209" r="1.8" fill="#02bf02"/>
<circle cx="402.65384615384613" cy="218.5" r="1.8" fill="#02bf02"/>
<circle cx="416.5384615384615" cy="209" r="1.8" fill="#02bf02"/>
<circle cx="416.5384615384615" cy="218.5" r="1.8" fill="#02bf02"/>
<circle cx="430.4230769230769" cy="209" r="1.8" fill="#02bf02"/>
<circle cx="430.4230769230769" cy="218.5" r="1.8" fill="#02bf02"/>
<circle cx="305.46153846153845" cy="228" r="1.8" fill="#02bf02"/>
<circle cx="305.46153846153845" cy="237.5" r="1.8" fill="#02bf02"/>
<circle cx="360.99999999999994" cy="228" r="1.8" fill="#02bf02"/>
<circle cx="360.99999999999994" cy="237.5" r="1.8" fill="#02bf02"/>
<circle cx="374.88461538461536" cy="228" r="1.8" fill="#02bf02"/>
<circle cx="374.88461538461536" cy="237.5" r="1.8" fill="#02bf02"/>
<circle cx="388.7692307692307" cy="228" r="1.8" fill="#02bf02"/>
<circle cx="388.7692307692307" cy="237.5" r="1.8" fill="#02bf02"/>
<circle cx="416.5384615384615" cy="228" r="1.8" fill="#02bf02"/>
<circle cx="416.5384615384615" cy="237.5" r="1.8" fill="#02bf02"/>
<circle cx="430.4230769230769" cy="228" r="1.8" fill="#02bf02"/>
<circle cx="430.4230769230769" cy="237.5" r="1.8" fill="#02bf02"/>
<circle cx="444.30769230769226" cy="228" r="1.8" fill="#02bf02"/>
<circle cx="444.30769230769226" cy="237.5" r="1.8" fill="#02bf02"/>
<circle cx="194.38461538461536" cy="247" r="1.8" fill="#02bf02"/>
<circle cx="194.38461538461536" cy="256.5" r="1.8" fill="#02bf02"/>
<circle cx="208.26923076923075" cy="247" r="1.8" fill="#02bf02"/>
<circle cx="208.26923076923075" cy="256.5" r="1.8" fill="#02bf02"/>
<circle cx="222.15384615384613" cy="247" r="1.8" fill="#02bf02"/>
<circle cx="222.15384615384613" cy="256.5" r="1.8" fill="#02bf02"/>
<circle cx="236.03846153846152" cy="247" r="1.8" fill="#02bf02"/>
<circle cx="236.03846153846152" cy="256.5" r="1.8" fill="#02bf02"/>
<circle cx="249.9230769230769" cy="247" r="1.8" fill="#02bf02"/>
<circle cx="249.9230769230769" cy="256.5" r="1.8" fill="#02bf02"/>
<circle cx="263.80769230769226" cy="247" r="1.8" fill="#02bf02"/>
<circle cx="263.80769230769226" cy="256.5" r="1.8" fill="#02bf02"/>
<circle cx="360.99999999999994" cy="247" r="1.8" fill="#02bf02"/>
<circle cx="360.99999999999994" cy="256.5" r="1.8" fill="#02bf02"/>
<circle cx="374.88461538461536" cy="247" r="1.8" fill="#02bf02"/>
<circle cx="374.88461538461536" cy="256.5" r="1.8" fill="#02bf02"/>
<circle cx="388.7692307692307" cy="247" r="1.8" fill="#02bf02"/>
<circle cx="388.7692307692307" cy="256.5" r="1.8" fill="#02bf02"/>
<circle cx="430.4230769230769" cy="247" r="1.8" fill="#02bf02"/>
<circle cx="430.4230769230769" cy="256.5" r="1.8" fill="#02bf02"/>
<circle cx="444.30769230769226" cy="247" r="1.8" fill="#02bf02"/>
<circle cx="444.30769230769226" cy="256.5" r="1.8" fill="#02bf02"/>
<circle cx="458.1923076923076" cy="247" r="1.8" fill="#02bf02"/>
<circle cx="458.1923076923076" cy="256.5" r="1.8" fill="#02bf02"/>
<circle cx="472.07692307692304" cy="247" r="1.8" fill="#02bf02"/>
<circle cx="472.07692307692304" cy="256.5" r="1.8" fill="#02bf02"/>
<circle cx="138.84615384615384" cy="266" r="1.8" fill="#02bf02"/>
<circle cx="138.84615384615384" cy="275.5" r="1.8" fill="#02bf02"/>
<circle cx="152.73076923076923" cy="266" r="1.8" fill="#02bf02"/>
<circle cx="152.73076923076923" cy="275.5" r="1.8" fill="#02bf02"/>
<circle cx="166.61538461538458" cy="266" r="1.8" fill="#02bf02"/>
<circle cx="166.61538461538458" cy="275.5" r="1.8" fill="#02bf02"/>
<circle cx="180.49999999999997" cy="266" r="1.8" fill="#02bf02"/>
<circle cx="180.49999999999997" cy="275.5" r="1.8" fill="#02bf02"/>
<circle cx="194.38461538461536" cy="266" r="1.8" fill="#02bf02"/>
<circle cx="194.38461538461536" cy="275.5" r="1.8" fill="#02bf02"/>
<circle cx="208.26923076923075" cy="266" r="1.8" fill="#02bf02"/>
<circle cx="208.26923076923075" cy="275.5" r="1.8" fill="#02bf02"/>
<circle cx="222.15384615384613" cy="266" r="1.8" fill="#02bf02"/>
<circle cx="222.15384615384613" cy="275.5" r="1.8" fill="#02bf02"/>
<circle cx="236.03846153846152" cy="266" r="1.8" fill="#02bf02"/>
<circle cx="236.03846153846152" cy="275.5" r="1.8" fill="#02bf02"/>
<circle cx="249.9230769230769" cy="266" r="1.8" fill="#02bf02"/>
<circle cx="249.9230769230769" cy="275.5" r="1.8" fill="#02bf02"/>
<circle cx="263.80769230769226" cy="266" r="1.8" fill="#02bf02"/>
<circle cx="263.80769230769226" cy="275.5" r="1.8" fill="#02bf02"/>
<circle cx="277.6923076923077" cy="266" r="1.8" fill="#02bf02"/>
<circle cx="277.6923076923077" cy="275.5" r="1.8" fill="#02bf02"/>
<circle cx="291.57692307692304" cy="266" r="1.8" fill="#02bf02"/>
<circle cx="291.57692307692304" cy="275.5" r="1.8" fill="#02bf02"/>
<circle cx="305.46153846153845" cy="266" r="1.8" fill="#02bf02"/>
<circle cx="305.46153846153845" cy="275.5" r="1.8" fill="#02bf02"/>
<circle cx="319.3461538461538" cy="266" r="1.8" fill="#02bf02"/>
<circle cx="319.3461538461538" cy="275.5" r="1.8" fill="#02bf02"/>
<circle cx="388.7692307692307" cy="266" r="1.8" fill="#02bf02"/>
<circle cx="388.7692307692307" cy="275.5" r="1.8" fill="#02bf02"/>
<circle cx="402.65384615384613" cy="266" r="1.8" fill="#02bf02"/>
<circle cx="402.65384615384613" cy="275.5" r="1.8" fill="#02bf02"/>
<circle cx="416.5384615384615" cy="266" r="1.8" fill="#02bf02"/>
<circle cx="416.5384615384615" cy="275.5" r="1.8" fill="#02bf02"/>
<circle cx="430.4230769230769" cy="266" r="1.8" fill="#02bf02"/>
<circle cx="430.4230769230769" cy="275.5" r="1.8" fill="#02bf02"/>
<circle cx="444.30769230769226" cy="266" r="1.8" fill="#02bf02"/>
<circle cx="444.30769230769226" cy="275.5" r="1.8" fill="#02bf02"/>
<circle cx="458.1923076923076" cy="266" r="1.8" fill="#02bf02"/>
<circle cx="458.1923076923076" cy="275.5" r="1.8" fill="#02bf02"/>
<circle cx="111.07692307692307" cy="285" r="1.8" fill="#02bf02"/>
<circle cx="111.07692307692307" cy="294.5" r="1.8" fill="#02bf02"/>
<circle cx="124.96153846153845" cy="285" r="1.8" fill="#02bf02"/>
<circle cx="124.96153846153845" cy="294.5" r="1.8" fill="#02bf02"/>
<circle cx="138.84615384615384" cy="285" r="1.8" fill="#02bf02"/>
<circle cx="138.84615384615384" cy="294.5" r="1.8" fill="#02bf02"/>
<circle cx="152.73076923076923" cy="285" r="1.8" fill="#02bf02"/>
<circle cx="152.73076923076923" cy="294.5" r="1.8" fill="#02bf02"/>
<circle cx="166.61538461538458" cy="285" r="1.8" fill="#02bf02"/>
<circle cx="166.61538461538458" cy="294.5" r="1.8" fill="#02bf02"/>
<circle cx="180.49999999999997" cy="285" r="1.8" fill="#02bf02"/>
<circle cx="180.49999999999997" cy="294.5" r="1.8" fill="#02bf02"/>
<circle cx="194.38461538461536" cy="285" r="1.8" fill="#02bf02"/>
<circle cx="194.38461538461536" cy="294.5" r="1.8" fill="#02bf02"/>
<circle cx="208.26923076923075" cy="285" r="1.8" fill="#02bf02"/>
<circle cx="208.26923076923075" cy="294.5" r="1.8" fill="#02bf02"/>
<circle cx="222.15384615384613" cy="285" r="1.8" fill="#02bf02"/>
<circle cx="222.15384615384613" cy="294.5" r="1.8" fill="#02bf02"/>
<circle cx="249.9230769230769" cy="285" r="1.8" fill="#02bf02"/>
<circle cx="249.9230769230769" cy="294.5" r="1.8" fill="#02bf02"/>
<circle cx="263.80769230769226" cy="285" r="1.8" fill="#02bf02"/>
<circle cx="263.80769230769226" cy="294.5" r="1.8" fill="#02bf02"/>
<circle cx="277.6923076923077" cy="285" r="1.8" fill="#02bf02"/>
<circle cx="277.6923076923077" cy="294.5" r="1.8" fill="#02bf02"/>
<circle cx="291.57692307692304" cy="285" r="1.8" fill="#02bf02"/>
<circle cx="291.57692307692304" cy="294.5" r="1.8" fill="#02bf02"/>
<circle cx="305.46153846153845" cy="285" r="1.8" fill="#02bf02"/>
<circle cx="305.46153846153845" cy="294.5" r="1.8" fill="#02bf02"/>
<circle cx="319.3461538461538" cy="285" r="1.8" fill="#02bf02"/>
<circle cx="319.3461538461538" cy="294.5" r="1.8" fill="#02bf02"/>
<circle cx="333.23076923076917" cy="285" r="1.8" fill="#02bf02"/>
<circle cx="333.23076923076917" cy="294.5" r="1.8" fill="#02bf02"/>
<circle cx="347.1153846153846" cy="285" r="1.8" fill="#02bf02"/>
<circle cx="347.1153846153846" cy="294.5" r="1.8" fill="#02bf02"/>
<circle cx="55.53846153846153" cy="304" r="1.8" fill="#02bf02"/>
<circle cx="55.53846153846153" cy="313.5" r="1.8" fill="#02bf02"/>
<circle cx="69.42307692307692" cy="304" r="1.8" fill="#02bf02"/>
<circle cx="69.42307692307692" cy="313.5" r="1.8" fill="#02bf02"/>
<circle cx="83.30769230769229" cy="304" r="1.8" fill="#02bf02"/>
<circle cx="83.30769230769229" cy="313.5" r="1.8" fill="#02bf02"/>
<circle cx="97.19230769230768" cy="304" r="1.8" fill="#02bf02"/>
<circle cx="97.19230769230768" cy="313.5" r="1.8" fill="#02bf02"/>
<circle cx="111.07692307692307" cy="304" r="1.8" fill="#02bf02"/>
<circle cx="111.07692307692307" cy="313.5" r="1.8" fill="#02bf02"/>
<circle cx="124.96153846153845" cy="304" r="1.8" fill="#02bf02"/>
<circle cx="124.96153846153845" cy="313.5" r="1.8" fill="#02bf02"/>
<circle cx="138.84615384615384" cy="304" r="1.8" fill="#02bf02"/>
<circle cx="138.84615384615384" cy="313.5" r="1.8" fill="#02bf02"/>
<circle cx="333.23076923076917" cy="304" r="1.8" fill="#02bf02"/>
<circle cx="333.23076923076917" cy="313.5" r="1.8" fill="#02bf02"/>
<circle cx="347.1153846153846" cy="304" r="1.8" fill="#02bf02"/>
<circle cx="347.1153846153846" cy="313.5" r="1.8" fill="#02bf02"/>
<circle cx="360.99999999999994" cy="304" r="1.8" fill="#02bf02"/>
<circle cx="360.99999999999994" cy="313.5" r="1.8" fill="#02bf02"/>
<circle cx="374.88461538461536" cy="304" r="1.8" fill="#02bf02"/>
<circle cx="374.88461538461536" cy="313.5" r="1.8" fill="#02bf02"/>
<circle cx="388.7692307692307" cy="304" r="1.8" fill="#02bf02"/>
<circle cx="388.7692307692307" cy="313.5" r="1.8" fill="#02bf02"/>
<circle cx="402.65384615384613" cy="304" r="1.8" fill="#02bf02"/>
<circle cx="402.65384615384613" cy="313.5" r="1.8" fill="#02bf02"/>
<circle cx="83.30769230769229" cy="323" r="1.8" fill="#02bf02"/>
<circle cx="83.30769230769229" cy="332.5" r="1.8" fill="#02bf02"/>
<circle cx="97.19230769230768" cy="323" r="1.8" fill="#02bf02"/>
<circle cx="97.19230769230768" cy="332.5" r="1.8" fill="#02bf02"/>
<circle cx="319.3461538461538" cy="323" r="1.8" fill="#02bf02"/>
<circle cx="319.3461538461538" cy="332.5" r="1.8" fill="#02bf02"/>
<circle cx="180.49999999999997" cy="342" r="1.8" fill="#02bf02"/>
<circle cx="180.49999999999997" cy="351.5" r="1.8" fill="#02bf02"/>
<circle cx="194.38461538461536" cy="342" r="1.8" fill="#02bf02"/>
<circle cx="194.38461538461536" cy="351.5" r="1.8" fill="#02bf02"/>
<circle cx="208.26923076923075" cy="342" r="1.8" fill="#02bf02"/>
<circle cx="208.26923076923075" cy="351.5" r="1.8" fill="#02bf02"/>
<circle cx="222.15384615384613" cy="342" r="1.8" fill="#02bf02"/>
<circle cx="222.15384615384613" cy="351.5" r="1.8" fill="#02bf02"/>
<circle cx="236.03846153846152" cy="342" r="1.8" fill="#02bf02"/>
<circle cx="236.03846153846152" cy="351.5" r="1.8" fill="#02bf02"/>
<circle cx="249.9230769230769" cy="342" r="1.8" fill="#02bf02"/>
<circle cx="249.9230769230769" cy="351.5" r="1.8" fill="#02bf02"/>
<circle cx="263.80769230769226" cy="342" r="1.8" fill="#02bf02"/>
<circle cx="263.80769230769226" cy="351.5" r="1.8" fill="#02bf02"/>
<circle cx="277.6923076923077" cy="342" r="1.8" fill="#02bf02"/>
<circle cx="277.6923076923077" cy="351.5" r="1.8" fill="#02bf02"/>
<circle cx="291.57692307692304" cy="342" r="1.8" fill="#02bf02"/>
<circle cx="291.57692307692304" cy="351.5" r="1.8" fill="#02bf02"/>
<circle cx="374.88461538461536" cy="342" r="1.8" fill="#02bf02"/>
<circle cx="374.88461538461536" cy="351.5" r="1.8" fill="#02bf02"/>
<circle cx="388.7692307692307" cy="342" r="1.8" fill="#02bf02"/>
<circle cx="388.7692307692307" cy="351.5" r="1.8" fill="#02bf02"/>
<circle cx="402.65384615384613" cy="342" r="1.8" fill="#02bf02"/>
<circle cx="402.65384615384613" cy="351.5" r="1.8" fill="#02bf02"/>
<circle cx="360.99999999999994" cy="361" r="1.8" fill="#02bf02"/>
<circle cx="360.99999999999994" cy="370.5" r="1.8" fill="#02bf02"/>
<circle cx="374.88461538461536" cy="361" r="1.8" fill="#02bf02"/>
<circle cx="374.88461538461536" cy="370.5" r="1.8" fill="#02bf02"/>
<circle cx="388.7692307692307" cy="361" r="1.8" fill="#02bf02"/>
<circle cx="388.7692307692307" cy="370.5" r="1.8" fill="#02bf02"/>
<circle cx="402.65384615384613" cy="361" r="1.8" fill="#02bf02"/>
<circle cx="402.65384615384613" cy="370.5" r="1.8" fill="#02bf02"/>
<circle cx="416.5384615384615" cy="361" r="1.8" fill="#02bf02"/>
<circle cx="416.5384615384615" cy="370.5" r="1.8" fill="#02bf02"/>
<circle cx="430.4230769230769" cy="361" r="1.8" fill="#02bf02"/>
<circle cx="430.4230769230769" cy="370.5" r="1.8" fill="#02bf02"/>
<circle cx="319.3461538461538" cy="380" r="1.8" fill="#02bf02"/>
<circle cx="319.3461538461538" cy="389.5" r="1.8" fill="#02bf02"/>
<circle cx="347.1153846153846" cy="380" r="1.8" fill="#02bf02"/>
<circle cx="347.1153846153846" cy="389.5" r="1.8" fill="#02bf02"/>
<circle cx="360.99999999999994" cy="380" r="1.8" fill="#02bf02"/>
<circle cx="360.99999999999994" cy="389.5" r="1.8" fill="#02bf02"/>
<circle cx="374.88461538461536" cy="380" r="1.8" fill="#02bf02"/>
<circle cx="374.88461538461536" cy="389.5" r="1.8" fill="#02bf02"/>
<circle cx="430.4230769230769" cy="380" r="1.8" fill="#02bf02"/>
<circle cx="430.4230769230769" cy="389.5" r="1.8" fill="#02bf02"/>
<circle cx="444.30769230769226" cy="380" r="1.8" fill="#02bf02"/>
<circle cx="444.30769230769226" cy="389.5" r="1.8" fill="#02bf02"/>
<circle cx="249.9230769230769" cy="399" r="1.8" fill="#02bf02"/>
<circle cx="249.9230769230769" cy="408.5" r="1.8" fill="#02bf02"/>
<circle cx="263.80769230769226" cy="399" r="1.8" fill="#02bf02"/>
<circle cx="263.80769230769226" cy="408.5" r="1.8" fill="#02bf02"/>
<circle cx="277.6923076923077" cy="399" r="1.8" fill="#02bf02"/>
<circle cx="277.6923076923077" cy="408.5" r="1.8" fill="#02bf02"/>
<circle cx="291.57692307692304" cy="399" r="1.8" fill="#02bf02"/>
<circle cx="291.57692307692304" cy="408.5" r="1.8" fill="#02bf02"/>
<circle cx="305.46153846153845" cy="399" r="1.8" fill="#02bf02"/>
<circle cx="305.46153846153845" cy="408.5" r="1.8" fill="#02bf02"/>
<circle cx="360.99999999999994" cy="399" r="1.8" fill="#02bf02"/>
<circle cx="360.99999999999994" cy="408.5" r="1.8" fill="#02bf02"/>
<circle cx="374.88461538461536" cy="399" r="1.8" fill="#02bf02"/>
<circle cx="374.88461538461536" cy="408.5" r="1.8" fill="#02bf02"/>
<circle cx="388.7692307692307" cy="399" r="1.8" fill="#02bf02"/>
<circle cx="388.7692307692307" cy="408.5" r="1.8" fill="#02bf02"/>
<circle cx="402.65384615384613" cy="399" r="1.8" fill="#02bf02"/>
<circle cx="402.65384615384613" cy="408.5" r="1.8" fill="#02bf02"/>
<circle cx="416.5384615384615" cy="399" r="1.8" fill="#02bf02"/>
<circle cx="416.5384615384615" cy="408.5" r="1.8" fill="#02bf02"/>
<circle cx="430.4230769230769" cy="399" r="1.8" fill="#02bf02"/>
<circle cx="430.4230769230769" cy="408.5" r="1.8" fill="#02bf02"/>
<circle cx="249.9230769230769" cy="418" r="1.8" fill="#02bf02"/>
<circle cx="249.9230769230769" cy="427.5" r="1.8" fill="#02bf02"/>
<circle cx="263.80769230769226" cy="418" r="1.8" fill="#02bf02"/>
<circle cx="263.80769230769226" cy="427.5" r="1.8" fill="#02bf02"/>
<circle cx="277.6923076923077" cy="418" r="1.8" fill="#02bf02"/>
<circle cx="277.6923076923077" cy="427.5" r="1.8" fill="#02bf02"/>
<circle cx="374.88461538461536" cy="418" r="1.8" fill="#02bf02"/>
<circle cx="374.88461538461536" cy="427.5" r="1.8" fill="#02bf02"/>
<circle cx="388.7692307692307" cy="418" r="1.8" fill="#02bf02"/>
<circle cx="388.7692307692307" cy="427.5" r="1.8" fill="#02bf02"/>
<circle cx="402.65384615384613" cy="418" r="1.8" fill="#02bf02"/>
<circle cx="402.65384615384613" cy="427.5" r="1.8" fill="#02bf02"/>
<circle cx="249.9230769230769" cy="437" r="1.8" fill="#02bf02"/>
<circle cx="249.9230769230769" cy="446.5" r="1.8" fill="#02bf02"/>
<circle cx="263.80769230769226" cy="437" r="1.8" fill="#02bf02"/>
<circle cx="263.80769230769226" cy="446.5" r="1.8" fill="#02bf02"/>
<circle cx="277.6923076923077" cy="437" r="1.8" fill="#02bf02"/>
<circle cx="277.6923076923077" cy="446.5" r="1.8" fill="#02bf02"/>
<circle cx="388.7692307692307" cy="437" r="1.8" fill="#02bf02"/>
<circle cx="388.7692307692307" cy="446.5" r="1.8" fill="#02bf02"/>
<circle cx="249.9230769230769" cy="456" r="1.8" fill="#02bf02"/>
<circle cx="249.9230769230769" cy="465.5" r="1.8" fill="#02bf02"/>
<circle cx="263.80769230769226" cy="456" r="1.8" fill="#02bf02"/>
<circle cx="263.80769230769226" cy="465.5" r="1.8" fill="#02bf02"/>
<circle cx="277.6923076923077" cy="456" r="1.8" fill="#02bf02"/>
<circle cx="277.6923076923077" cy="465.5" r="1.8" fill="#02bf02"/>
<circle cx="249.9230769230769" cy="475" r="1.8" fill="#02bf02"/>
<circle cx="249.9230769230769" cy="484.5" r="1.8" fill="#02bf02"/>
<circle cx="263.80769230769226" cy="475" r="1.8" fill="#02bf02"/>
<circle cx="263.80769230769226" cy="484.5" r="1.8" fill="#02bf02"/>
<circle cx="277.6923076923077" cy="475" r="1.8" fill="#02bf02"/>
<circle cx="277.6923076923077" cy="484.5" r="1.8" fill="#02bf02"/>
<circle cx="333.23076923076917" cy="475" r="1.8" fill="#02bf02"/>
<circle cx="333.23076923076917" cy="484.5" r="1.8" fill="#02bf02"/>
<circle cx="249.9230769230769" cy="494" r="1.8" fill="#02bf02"/>
<circle cx="249.9230769230769" cy="503.5" r="1.8" fill="#02bf02"/>
<circle cx="263.80769230769226" cy="494" r="1.8" fill="#02bf02"/>
<circle cx="263.80769230769226" cy="503.5" r="1.8" fill="#02bf02"/>
<circle cx="277.6923076923077" cy="494" r="1.8" fill="#02bf02"/>
<circle cx="277.6923076923077" cy="503.5" r="1.8" fill="#02bf02"/>
<circle cx="347.1153846153846" cy="494" r="1.8" fill="#02bf02"/>
<circle cx="347.1153846153846" cy="503.5" r="1.8" fill="#02bf02"/>
<circle cx="249.9230769230769" cy="513" r="1.8" fill="#02bf02"/>
<circle cx="249.9230769230769" cy="522.5" r="1.8" fill="#02bf02"/>
<circle cx="263.80769230769226" cy="513" r="1.8" fill="#02bf02"/>
<circle cx="263.80769230769226" cy="522.5" r="1.8" fill="#02bf02"/>
<circle cx="277.6923076923077" cy="513" r="1.8" fill="#02bf02"/>
<circle cx="277.6923076923077" cy="522.5" r="1.8" fill="#02bf02"/>
<circle cx="333.23076923076917" cy="513" r="1.8" fill="#02bf02"/>
<circle cx="333.23076923076917" cy="522.5" r="1.8" fill="#02bf02"/>
<circle cx="347.1153846153846" cy="513" r="1.8" fill="#02bf02"/>
<circle cx="347.1153846153846" cy="522.5" r="1.8" fill="#02bf02"/>
<circle cx="249.9230769230769" cy="532" r="1.8" fill="#02bf02"/>
<circle cx="249.9230769230769" cy="541.5" r="1.8" fill="#02bf02"/>
<circle cx="263.80769230769226" cy="532" r="1.8" fill="#02bf02"/>
<circle cx="263.80769230769226" cy="541.5" r="1.8" fill="#02bf02"/>
<circle cx="277.6923076923077" cy="532" r="1.8" fill="#02bf02"/>
<circle cx="277.6923076923077" cy="541.5" r="1.8" fill="#02bf02"/>
<circle cx="333.23076923076917" cy="532" r="1.8" fill="#02bf02"/>
<circle cx="333.23076923076917" cy="541.5" r="1.8" fill="#02bf02"/>
<circle cx="347.1153846153846" cy="532" r="1.8" fill="#02bf02"/>
<circle cx="347.1153846153846" cy="541.5" r="1.8" fill="#02bf02"/>
<circle cx="249.9230769230769" cy="551" r="1.8" fill="#02bf02"/>
<circle cx="249.9230769230769" cy="560.5" r="1.8" fill="#02bf02"/>
<circle cx="263.80769230769226" cy="551" r="1.8" fill="#02bf02"/>
<circle cx="263.80769230769226" cy="560.5" r="1.8" fill="#02bf02"/>
<circle cx="277.6923076923077" cy="551" r="1.8" fill="#02bf02"/>
<circle cx="277.6923076923077" cy="560.5" r="1.8" fill="#02bf02"/>
<circle cx="319.3461538461538" cy="551" r="1.8" fill="#02bf02"/>
<circle cx="319.3461538461538" cy="560.5" r="1.8" fill="#02bf02"/>
<circle cx="333.23076923076917" cy="551" r="1.8" fill="#02bf02"/>
<circle cx="333.23076923076917" cy="560.5" r="1.8" fill="#02bf02"/>
<circle cx="347.1153846153846" cy="551" r="1.8" fill="#02bf02"/>
<circle cx="347.1153846153846" cy="560.5" r="1.8" fill="#02bf02"/>
<circle cx="249.9230769230769" cy="570" r="1.8" fill="#02bf02"/>
<circle cx="249.9230769230769" cy="579.5" r="1.8" fill="#02bf02"/>
<circle cx="263.80769230769226" cy="570" r="1.8" fill="#02bf02"/>
<circle cx="263.80769230769226" cy="579.5" r="1.8" fill="#02bf02"/>
<circle cx="277.6923076923077" cy="570" r="1.8" fill="#02bf02"/>
<circle cx="277.6923076923077" cy="579.5" r="1.8" fill="#02bf02"/>
<circle cx="305.46153846153845" cy="570" r="1.8" fill="#02bf02"/>
<circle cx="305.46153846153845" cy="579.5" r="1.8" fill="#02bf02"/>
<circle cx="319.3461538461538" cy="570" r="1.8" fill="#02bf02"/>
<circle cx="319.3461538461538" cy="579.5" r="1.8" fill="#02bf02"/>
<circle cx="333.23076923076917" cy="570" r="1.8" fill="#02bf02"/>
<circle cx="333.23076923076917" cy="579.5" r="1.8" fill="#02bf02"/>
<circle cx="249.9230769230769" cy="589" r="1.8" fill="#02bf02"/>
<circle cx="249.9230769230769" cy="598.5" r="1.8" fill="#02bf02"/>
<circle cx="263.80769230769226" cy="589" r="1.8" fill="#02bf02"/>
<circle cx="263.80769230769226" cy="598.5" r="1.8" fill="#02bf02"/>
<circle cx="277.6923076923077" cy="589" r="1.8" fill="#02bf02"/>
<circle cx="277.6923076923077" cy="598.5" r="1.8" fill="#02bf02"/>
<circle cx="291.57692307692304" cy="589" r="1.8" fill="#02bf02"/>
<circle cx="291.57692307692304" cy="598.5" r="1.8" fill="#02bf02"/>
<circle cx="305.46153846153845" cy="589" r="1.8" fill="#02bf02"/>
<circle cx="305.46153846153845" cy="598.5" r="1.8" fill="#02bf02"/>
<circle cx="319.3461538461538" cy="589" r="1.8" fill="#02bf02"/>
<circle cx="319.3461538461538" cy="598.5" r="1.8" fill="#02bf02"/>
<circle cx="249.9230769230769" cy="608" r="1.8" fill="#02bf02"/>
<circle cx="249.9230769230769" cy="617.5" r="1.8" fill="#02bf02"/>
<circle cx="263.80769230769226" cy="608" r="1.8" fill="#02bf02"/>
<circle cx="263.80769230769226" cy="617.5" r="1.8" fill="#02bf02"/>
<circle cx="277.6923076923077" cy="608" r="1.8" fill="#02bf02"/>
<circle cx="277.6923076923077" cy="617.5" r="1.8" fill="#02bf02"/>
<circle cx="291.57692307692304" cy="608" r="1.8" fill="#02bf02"/>
<circle cx="291.57692307692304" cy="617.5" r="1.8" fill="#02bf02"/>
<circle cx="305.46153846153845" cy="608" r="1.8" fill="#02bf02"/>
<circle cx="305.46153846153845" cy="617.5" r="1.8" fill="#02bf02"/>
<circle cx="249.9230769230769" cy="627" r="1.8" fill="#02bf02"/>
<circle cx="249.9230769230769" cy="636.5" r="1.8" fill="#02bf02"/>
<circle cx="263.80769230769226" cy="627" r="1.8" fill="#02bf02"/>
<circle cx="263.80769230769226" cy="636.5" r="1.8" fill="#02bf02"/>
<circle cx="277.6923076923077" cy="627" r="1.8" fill="#02bf02"/>
<circle cx="277.6923076923077" cy="636.5" r="1.8" fill="#02bf02"/>
<circle cx="291.57692307692304" cy="627" r="1.8" fill="#02bf02"/>
<circle cx="291.57692307692304" cy="636.5" r="1.8" fill="#02bf02"/>
<circle cx="249.9230769230769" cy="646" r="1.8" fill="#02bf02"/>
<circle cx="249.9230769230769" cy="655.5" r="1.8" fill="#02bf02"/>
<circle cx="263.80769230769226" cy="646" r="1.8" fill="#02bf02"/>
<circle cx="263.80769230769226" cy="655.5" r="1.8" fill="#02bf02"/>
<circle cx="277.6923076923077" cy="646" r="1.8" fill="#02bf02"/>
<circle cx="277.6923076923077" cy="655.5" r="1.8" fill="#02bf02"/>
<circle cx="249.9230769230769" cy="665" r="1.8" fill="#02bf02"/>
<circle cx="249.9230769230769" cy="674.5" r="1.8" fill="#02bf02"/>
<circle cx="263.80769230769226" cy="665" r="1.8" fill="#02bf02"/>
<circle cx="263.80769230769226" cy="674.5" r="1.8" fill="#02bf02"/>
<circle cx="249.9230769230769" cy="684" r="1.8" fill="#02bf02"/>
<circle cx="249.9230769230769" cy="693.5" r="1.8" fill="#02bf02"/>
</svg>