<?xml version="1.0" encoding="UTF-8" standalone="no"?>
<svg xmlns="http://www.w3.org/2000/svg" version="1.1" height="657" width="504">
<desc>Ingress logos - By lll9p, No rights reserved, lll9p.china@gmail.com, http://imtho.com</desc>
<rect x="-2000%" y="-2000%" height="4000%" width="4000%" fill="black"/>
<circle cx="238" cy="36" r="1.8" fill="#02bf02"/>
<circle cx="252" cy="36" r="1.8" fill="#02bf02"/>
<circle cx="238" cy="45" r="1.8" fill="#02bf02"/>
<circle cx="252" cy="45" r="1.8" fill="#02bf02"/>
<circle cx="238" cy="54" r="1.8" fill="#02bf02"/>
<circle cx="252" cy="54" r="1.8" fill="#02bf02"/>
<circle cx="266" cy="54" r="1.8" fill="#02bf02"/>
<circle cx="280" cy="54" r="1.8" fill="#02bf02"/>
<circle cx="238" cy="63" r="1.8" fill="#02bf02"/>
<circle cx="252" cy="63" r="1.8" fill="#02bf02"/>
<circle cx="266" cy="63" r="1.8" fill="#02bf02"/>
<circle cx="280" cy="63" r="1.8" fill="#02bf02"/>
<circle cx="238" cy="72" r="1.8" fill="#02bf02"/>
<circle cx="252" cy="72" r="1.8" fill="#02bf02"/>
<circle cx="266" cy="72" r="1.8" fill="#02bf02"/>
<circle cx="280" cy="72" r="1.8" fill="#02bf02"/>
<circle cx="294" cy="72" r="1.8" fill="#02bf02"/>
<circle cx="308" cy="72" r="1.8" fill="#02bf02"/>
<circle cx="238" cy="81" r="1.8" fill="#02bf02"/>
<circle cx="252" cy="81" r="1.8" fill="#02bf02"/>
<circle cx="266" cy="81" r="1.8" fill="#02bf02"/>
<circle cx="280" cy="81" r="1.8" fill="#02bf02"/>
<circle cx="294" cy="81" r="1.8" fill="#02bf02"/>
<circle cx="308" cy="81" r="1.8" fill="#02bf02"/>
<circle cx="238" cy="90" r="1.8" fill="#02bf02"/>
<circle cx="252" cy="90" r="1.8" fill="#02bf02"/>
<circle cx="266" cy="90" r="1.8" fill="#02bf02"/>
<circle cx="280" cy="90" r="1.8" fill="#02bf02"/>
<circle cx="294" cy="90" r="1.8" fill="#02bf02"/>
<circle cx="308" cy="90" r="1.8" fill="#02bf02"/>
<circle cx="322" cy="90" r="1.8" fill="#02bf02"/>
<circle cx="238" cy="99" r="1.8" fill="#02bf02"/>
<circle cx="252" cy="99" r="1.8" fill="#02bf02"/>
<circle cx="266" cy="99" r="1.8" fill="#02bf02"/>
<circle cx="280" cy="99" r="1.8" fill="#02bf02"/>
<circle cx="294" cy="99" r="1.8" fill="#02bf02"/>
<circle cx="308" cy="99" r="1.8" fill="#02bf02"/>
<circle cx="322" cy="99" r="1.8" fill="#02bf02"/>
<circle cx="238" cy="108" r="1.8" fill="#02bf02"/>
<circle cx="252" cy="108" r="1.8" fill="#02bf02"/>
<circle cx="266" cy="108" r="1.8" fill="#02bf02"/>
<circle cx="322" cy="108" r="1.8" fill="#02bf02"/>
<circle cx="336" cy="108" r="1.8" fill="#02bf02"/>
<circle cx="238" cy="117" r="1.8" fill="#02bf02"/>
<circle cx="252" cy="117" r="1.8" fill="#02bf02"/>
<circle cx="266" cy="117" r="1.8" fill="#02bf02"/>
<circle cx="322" cy="117" r="1.8" fill="#02bf02"/>
<circle cx="336" cy="117" r="1.8" fill="#02bf02"/>
<circle cx="238" cy="126" r="1.8" fill="#02bf02"/>
<circle cx="252" cy="126" r="1.8" fill="#02bf02"/>
<circle cx="266" cy="126" r="1.8" fill="#02bf02"/>
<circle cx="322" cy="126" r="1.8" fill="#02bf02"/>
<circle cx="336" cy="126" r="1.8" fill="#02bf02"/>
<circle cx="238" cy="135" r="1.8" fill="#02bf02"/>
<circle cx="252" cy="135" r="1.8" fill="#02bf02"/>
<circle cx="266" cy="135" r="1.8" fill="#02bf02"/>
<circle cx="322" cy="135" r="1.8" fill="#02bf02"/>
<circle cx="336" cy="135" r="1.8" fill="#02bf02"/>
<circle cx="238" cy="144" r="1.8" fill="#02bf02"/>
<circle cx="252" cy="144" r="1.8" fill="#02bf02"/>
<circle cx="266" cy="144" r="1.8" fill="#02bf02"/>
<circle cx="392" cy="144" r="1.8" fill="#02bf02"/>
<circle cx="406" cy="144" r="1.8" fill="#02bf02"/>
<circle cx="238" cy="153" r="1.8" fill="#02bf02"/>
<circle cx="252" cy="153" r="1.8" fill="#02bf02"/>
<circle cx="266" cy="153" r="1.8" fill="#02bf02"/>
<circle cx="392" cy="153" r="1.8" fill="#02bf02"/>
<circle cx="406" cy="153" r="1.8" fill="#02bf02"/>
<circle cx="238" cy="162" r="1.8" fill="#02bf02"/>
<circle cx="252" cy="162" r="1.8" fill="#02bf02"/>
<circle cx="266" cy="162" r="1.8" fill="#02bf02"/>
<circle cx="280" cy="162" r="1.8" fill="#02bf02"/>
<circle cx="378" cy="162" r="1.8" fill="#02bf02"/>
<circle cx="392" cy="162" r="1.8" fill="#02bf02"/>
<circle cx="406" cy="162" r="1.8" fill="#02bf02"/>
<circle cx="420" cy="162" r="1.8" fill="#02bf02"/>
<circle cx="434" cy="162" r="1.8" fill="#02bf02"/>
<circle cx="238" cy="171" r="1.8" fill="#02bf02"/>
<circle cx="252" cy="171" r="1.8" fill="#02bf02"/>
<circle cx="266" cy="171" r="1.8" fill="#02bf02"/>
<circle cx="280" cy="171" r="1.8" fill="#02bf02"/>
<circle cx="378" cy="171" r="1.8" fill="#02bf02"/>
<circle cx="392" cy="171" r="1.8" fill="#02bf02"/>
<circle cx="406" cy="171" r="1.8" fill="#02bf02"/>
<circle cx="420" cy="171" r="1.8" fill="#02bf02"/>
<circle cx="434" cy="171" r="1.8" fill="#02bf02"/>
<circle cx="308" cy="180" r="1.8" fill="#02bf02"/>
<circle cx="364" cy="180" r="1.8" fill="#02bf02"/>
<circle cx="378" cy="180" r="1.8" fill="#02bf02"/>
<circle cx="392" cy="180" r="1.8" fill="#02bf02"/>
<circle cx="420" cy="180" r="1.8" fill="#02bf02"/>
<circle cx="434" cy="180" r="1.8" fill="#02bf02"/>
<circle cx="448" cy="180" r="1.8" fill="#02bf02"/>
<circle cx="308" cy="189" r="1.8" fill="#02bf02"/>
<circle cx="364" cy="189" r="1.8" fill="#02bf02"/>
<circle cx="378" cy="189" r="1.8" fill="#02bf02"/>
<circle cx="392" cy="189" r="1.8" fill="#02bf02"/>
<circle cx="420" cy="189" r="1.8" fill="#02bf02"/>
<circle cx="434" cy="189" r="1.8" fill="#02bf02"/>
<circle cx="448" cy="189" r="1.8" fill="#02bf02"/>
<circle cx="196" cy="198" r="1.8" fill="#02bf02"/>
<circle cx="210" cy="198" r="1.8" fill="#02bf02"/>
<circle cx="224" cy="198" r="1.8" fill="#02bf02"/>
<circle cx="238" cy="198" r="1.8" fill="#02bf02"/>
<circle cx="252" cy="198" r="1.8" fill="#02bf02"/>
<circle cx="266" cy="198" r="1.8" fill="#02bf02"/>
<circle cx="364" cy="198" r="1.8" fill="#02bf02"/>
<circle cx="378" cy="198" r="1.8" fill="#02bf02"/>
<circle cx="392" cy="198" r="1.8" fill="#02bf02"/>
<circle cx="434" cy="198" r="1.8" fill="#02bf02"/>
<circle cx="448" cy="198" r="1.8" fill="#02bf02"/>
<circle cx="462" cy="198" r="1.8" fill="#02bf02"/>
<circle cx="476" cy="198" r="1.8" fill="#02bf02"/>
<circle cx="196" cy="207" r="1.8" fill="#02bf02"/>
<circle cx="210" cy="207" r="1.8" fill="#02bf02"/>
<circle cx="224" cy="207" r="1.8" fill="#02bf02"/>
<circle cx="238" cy="207" r="1.8" fill="#02bf02"/>
<circle cx="252" cy="207" r="1.8" fill="#02bf02"/>
<circle cx="266" cy="207" r="1.8" fill="#02bf02"/>
<circle cx="364" cy="207" r="1.8" fill="#02bf02"/>
<circle cx="378" cy="207" r="1.8" fill="#02bf02"/>
<circle cx="392" cy="207" r="1.8" fill="#02bf02"/>
<circle cx="434" cy="207" r="1.8" fill="#02bf02"/>
<circle cx="448" cy="207" r="1.8" fill="#02bf02"/>
<circle cx="462" cy="207" r="1.8" fill="#02bf02"/>
<circle cx="476" cy="207" r="1.8" fill="#02bf02"/>
<circle cx="140" cy="216" r="1.8" fill="#02bf02"/>
<circle cx="154" cy="216" r="1.8" fill="#02bf02"/>
<circle cx="168" cy="216" r="1.8" fill="#02bf02"/>
<circle cx="182" cy="216" r="1.8" fill="#02bf02"/>
<circle cx="196" cy="216" r="1.8" fill="#02bf02"/>
<circle cx="210" cy="216" r="1.8" fill="#02bf02"/>
<circle cx="224" cy="216" r="1.8" fill="#02bf02"/>
<circle cx="238" cy="216" r="1.8" fill="#02bf02"/>
<circle cx="252" cy="216" r="1.8" fill="#02bf02"/>
<circle cx="266" cy="216" r="1.8" fill="#02bf02"/>
<circle cx="280" cy="216" r="1.8" fill="#02bf02"/>
<circle cx="294" cy="216" r="1.8" fill="#02bf02"/>
<circle cx="308" cy="216" r="1.8" fill="#02bf02"/>
<circle cx="322" cy="216" r="1.8" fill="#02bf02"/>
<circle cx="392" cy="216" r="1.8" fill="#02bf02"/>
<circle cx="406" cy="216" r="1.8" fill="#02bf02"/>
<circle cx="420" cy="216" r="1.8" fill="#02bf02"/>
<circle cx="434" cy="216" r="1.8" fill="#02bf02"/>
<circle cx="448" cy="216" r="1.8" fill="#02bf02"/>
<circle cx="462" cy="216" r="1.8" fill="#02bf02"/>
<circle cx="140" cy="225" r="1.8" fill="#02bf02"/>
<circle cx="154" cy="225" r="1.8" fill="#02bf02"/>
<circle cx="168" cy="225" r="1.8" fill="#02bf02"/>
<circle cx="182" cy="225" r="1.8" fill="#02bf02"/>
<circle cx="196" cy="225" r="1.8" fill="#02bf02"/>
<circle cx="210" cy="225" r="1.8" fill="#02bf02"/>
<circle cx="224" cy="225" r="1.8" fill="#02bf02"/>
<circle cx="238" cy="225" r="1.8" fill="#02bf02"/>
<circle cx="252" cy="225" r="1.8" fill="#02bf02"/>
<circle cx="266" cy="225" r="1.8" fill="#02bf02"/>
<circle cx="280" cy="225" r="1.8" fill="#02bf02"/>
<circle cx="294" cy="225" r="1.8" fill="#02bf02"/>
<circle cx="308" cy="225" r="1.8" fill="#02bf02"/>
<circle cx="322" cy="225" r="1.8" fill="#02bf02"/>
<circle cx="392" cy="225" r="1.8" fill="#02bf02"/>
<circle cx="406" cy="225" r="1.8" fill="#02bf02"/>
<circle cx="420" cy="225" r="1.8" fill="#02bf02"/>
<circle cx="434" cy="225" r="1.8" fill="#02bf02"/>
<circle cx="448" cy="225" r="1.8" fill="#02bf02"/>
<circle cx="462" cy="225" r="1.8" fill="#02bf02"/>
<circle cx="112" cy="234" r="1.8" fill="#02bf02"/>
<circle cx="126" cy="234" r="1.8" fill="#02bf02"/>
<circle cx="140" cy="234" r="1.8" fill="#02bf02"/>
<circle cx="154" cy="234" r="1.8" fill="#02bf02"/>
<circle cx="168" cy="234" r="1.8" fill="#02bf02"/>
<circle cx="182" cy="234" r="1.8" fill="#02bf02"/>
<circle cx="196" cy="234" r="1.8" fill="#02bf02"/>
<circle cx="210" cy="234" r="1.8" fill="#02bf02"/>
<circle cx="224" cy="234" r="1.8" fill="#02bf02"/>
<circle cx="252" cy="234" r="1.8" fill="#02bf02"/>
<circle cx="266" cy="234" r="1.8" fill="#02bf02"/>
<circle cx="280" cy="234" r="1.8" fill="#02bf02"/>
<circle cx="294" cy="234" r="1.8" fill="#02bf02"/>
<circle cx="308" cy="234" r="1.8" fill="#02bf02"/>
<circle cx="322" cy="234" r="1.8" fill="#02bf02"/>
<circle cx="336" cy="234" r="1.8" fill="#02bf02"/>
<circle cx="350" cy="234" r="1.8" fill="#02bf02"/>
<circle cx="112" cy="243" r="1.8" fill="#02bf02"/>
<circle cx="126" cy="243" r="1.8" fill="#02bf02"/>
<circle cx="140" cy="243" r="1.8" fill="#02bf02"/>
<circle cx="154" cy="243" r="1.8" fill="#02bf02"/>
<circle cx="168" cy="243" r="1.8" fill="#02bf02"/>
<circle cx="182" cy="243" r="1.8" fill="#02bf02"/>
<circle cx="196" cy="243" r="1.8" fill="#02bf02"/>
<circle cx="210" cy="243" r="1.8" fill="#02bf02"/>
<circle cx="224" cy="243" r="1.8" fill="#02bf02"/>
<circle cx="252" cy="243" r="1.8" fill="#02bf02"/>
<circle cx="266" cy="243" r="1.8" fill="#02bf02"/>
<circle cx="280" cy="243" r="1.8" fill="#02bf02"/>
<circle cx="294" cy="243" r="1.8" fill="#02bf02"/>
<circle cx="308" cy="243" r="1.8" fill="#02bf02"/>
<circle cx="322" cy="243" r="1.8" fill="#02bf02"/>
<circle cx="336" cy="243" r="1.8" fill="#02bf02"/>
<circle cx="350" cy="243" r="1.8" fill="#02bf02"/>
<circle cx="56" cy="252" r="1.8" fill="#02bf02"/>
<circle cx="70" cy="252" r="1.8" fill="#02bf02"/>
<circle cx="84" cy="252" r="1.8" fill="#02bf02"/>
<circle cx="98" cy="252" r="1.8" fill="#02bf02"/>
<circle cx="112" cy="252" r="1.8" fill="#02bf02"/>
<circle cx="126" cy="252" r="1.8" fill="#02bf02"/>
<circle cx="140" cy="252" r="1.8" fill="#02bf02"/>
<circle cx="336" cy="252" r="1.8" fill="#02bf02"/>
<circle cx="350" cy="252" r="1.8" fill="#02bf02"/>
<circle cx="364" cy="252" r="1.8" fill="#02bf02"/>
<circle cx="378" cy="252" r="1.8" fill="#02bf02"/>
<circle cx="392" cy="252" r="1.8" fill="#02bf02"/>
<circle cx="406" cy="252" r="1.8" fill="#02bf02"/>
<circle cx="56" cy="261" r="1.8" fill="#02bf02"/>
<circle cx="70" cy="261" r="1.8" fill="#02bf02"/>
<circle cx="84" cy="261" r="1.8" fill="#02bf02"/>
<circle cx="98" cy="261" r="1.8" fill="#02bf02"/>
<circle cx="112" cy="261" r="1.8" fill="#02bf02"/>
<circle cx="126" cy="261" r="1.8" fill="#02bf02"/>
<circle cx="140" cy="261" r="1.8" fill="#02bf02"/>
<circle cx="336" cy="261" r="1.8" fill="#02bf02"/>
<circle cx="350" cy="261" r="1.8" fill="#02bf02"/>
<circle cx="364" cy="261" r="1.8" fill="#02bf02"/>
<circle cx="378" cy="261" r="1.8" fill="#02bf02"/>
<circle cx="392" cy="261" r="1.8" fill="#02bf02"/>
<circle cx="406" cy="261" r="1.8" fill="#02bf02"/>
<circle cx="84" cy="270" r="1.8" fill="#02bf02"/>
<circle cx="98" cy="270" r="1.8" fill="#02bf02"/>
<circle cx="322" cy="270" r="1.8" fill="#02bf02"/>
<circle cx="84" cy="279" r="1.8" fill="#02bf02"/>
<circle cx="98" cy="279" r="1.8" fill="#02bf02"/>
<circle cx="322" cy="279" r="1.8" fill="#02bf02"/>
<circle cx="182" cy="288" r="1.8" fill="#02bf02"/>
<circle cx="196" cy="288" r="1.8" fill="#02bf02"/>
<circle cx="210" cy="288" r="1.8" fill="#02bf02"/>
<circle cx="224" cy="288" r="1.8" fill="#02bf02"/>
<circle cx="238" cy="288" r="1.8" fill="#02bf02"/>
<circle cx="252" cy="288" r="1.8" fill="#02bf02"/>
<circle cx="266" cy="288" r="1.8" fill="#02bf02"/>
<circle cx="280" cy="288" r="1.8" fill="#02bf02"/>
<circle cx="294" cy="288" r="1.8" fill="#02bf02"/>
<circle cx="378" cy="288" r="1.8" fill="#02bf02"/>
<circle cx="392" cy="288" r="1.8" fill="#02bf02"/>
<circle cx="406" cy="288" r="1.8" fill="#02bf02"/>
<circle cx="182" cy="297" r="1.8" fill="#02bf02"/>
<circle cx="196" cy="297" r="1.8" fill="#02bf02"/>
<circle cx="210" cy="297" r="1.8" fill="#02bf02"/>
<circle cx="224" cy="297" r="1.8" fill="#02bf02"/>
<circle cx="238" cy="297" r="1.8" fill="#02bf02"/>
<circle cx="252" cy="297" r="1.8" fill="#02bf02"/>
<circle cx="266" cy="297" r="1.8" fill="#02bf02"/>
<circle cx="280" cy="297" r="1.8" fill="#02bf02"/>
<circle cx="294" cy="297" r="1.8" fill="#02bf02"/>
<circle cx="378" cy="297" r="1.8" fill="#02bf02"/>
<circle cx="392" cy="297" r="1.8" fill="#02bf02"/>
<circle cx="406" cy="297" r="1.8" fill="#02bf02"/>
<circle cx="364" cy="306" r="1.8" fill="#02bf02"/>
<circle cx="378" cy="306" r="1.8" fill="#02bf02"/>
<circle cx="392" cy="306" r="1.8" fill="#02bf02"/>
<circle cx="406" cy="306" r="1.8" fill="#02bf02"/>
<circle cx="420" cy="306" r="1.8" fill="#02bf02"/>
<circle cx="434" cy="306" r="1.8" fill="#02bf02"/>
<circle cx="364" cy="315" r="1.8" fill="#02bf02"/>
<circle cx="378" cy="315" r="1.8" fill="#02bf02"/>
<circle cx="392" cy="315" r="1.8" fill="#02bf02"/>
<circle cx="406" cy="315" r="1.8" fill="#02bf02"/>
<circle cx="420" cy="315" r="1.8" fill="#02bf02"/>
<circle cx="434" cy="315" r="1.8" fill="#02bf02"/>
<circle cx="322" cy="324" r="1.8" fill="#02bf02"/>
<circle cx="350" cy="324" r="1.8" fill="#02bf02"/>
<circle cx="364" cy="324" r="1.8" fill="#02bf02"/>
<circle cx="378" cy="324" r="1.8" fill="#02bf02"/>
<circle cx="434" cy="324" r="1.8" fill="#02bf02"/>
<circle cx="448" cy="324" r="1.8" fill="#02bf02"/>
<circle cx="322" cy="333" r="1.8" fill="#02bf02"/>
<circle cx="350" cy="333" r="1.8" fill="#02bf02"/>
<circle cx="364" cy="333" r="1.8" fill="#02bf02"/>
<circle cx="378" cy="333" r="1.8" fill="#02bf02"/>
<circle cx="434" cy="333" r="1.8" fill="#02bf02"/>
<circle cx="448" cy="333" r="1.8" fill="#02bf02"/>
<circle cx="252" cy="342" r="1.8" fill="#02bf02"/>
<circle cx="266" cy="342" r="1.8" fill="#02bf02"/>
<circle cx="280" cy="342" r="1.8" fill="#02bf02"/>
<circle cx="294" cy="342" r="1.8" fill="#02bf02"/>
<circle cx="308" cy="342" r="1.8" fill="#02bf02"/>
<circle cx="364" cy="342" r="1.8" fill="#02bf02"/>
<circle cx="378" cy="342" r="1.8" fill="#02bf02"/>
<circle cx="392" cy="342" r="1.8" fill="#02bf02"/>
<circle cx="406" cy="342" r="1.8" fill="#02bf02"/>
<circle cx="420" cy="342" r="1.8" fill="#02bf02"/>
<circle cx="434" cy="342" r="1.8" fill="#02bf02"/>
<circle cx="252" cy="351" r="1.8" fill="#02bf02"/>
<circle cx="266" cy="351" r="1.8" fill="#02bf02"/>
<circle cx="280" cy="351" r="1.8" fill="#02bf02"/>
<circle cx="294" cy="351" r="1.8" fill="#02bf02"/>
<circle cx="308" cy="351" r="1.8" fill="#02bf02"/>
<circle cx="364" cy="351" r="1.8" fill="#02bf02"/>
<circle cx="378" cy="351" r="1.8" fill="#02bf02"/>
<circle cx="392" cy="351" r="1.8" fill="#02bf02"/>
<circle cx="406" cy="351" r="1.8" fill="#02bf02"/>
<circle cx="420" cy="351" r="1.8" fill="#02bf02"/>
<circle cx="434" cy="351" r="1.8" fill="#02bf02"/>
<circle cx="252" cy="360" r="1.8" fill="#02bf02"/>
<circle cx="266" cy="360" r="1.8" fill="#02bf02"/>
<circle cx="280" cy="360" r="1.8" fill="#02bf02"/>
<circle cx="378" cy="360" r="1.8" fill="#02bf02"/>
<circle cx="392" cy="360" r="1.8" fill="#02bf02"/>
<circle cx="406" cy="360" r="1.8" fill="#02bf02"/>
<circle cx="252" cy="369" r="1.8" fill="#02bf02"/>
<circle cx="266" cy="369" r="1.8" fill="#02bf02"/>
<circle cx="280" cy="369" r="1.8" fill="#02bf02"/>
<circle cx="378" cy="369" r="1.8" fill="#02bf02"/>
<circle cx="392" cy="369" r="1.8" fill="#02bf02"/>
<circle cx="406" cy="369" r="1.8" fill="#02bf02"/>
<circle cx="252" cy="378" r="1.8" fill="#02bf02"/>
<circle cx="266" cy="378" r="1.8" fill="#02bf02"/>
<circle cx="280" cy="378" r="1.8" fill="#02bf02"/>
<circle cx="392" cy="378" r="1.8" fill="#02bf02"/>
<circle cx="252" cy="387" r="1.8" fill="#02bf02"/>
<circle cx="266" cy="387" r="1.8" fill="#02bf02"/>
<circle cx="280" cy="387" r="1.8" fill="#02bf02"/>
<circle cx="392" cy="387" r="1.8" fill="#02bf02"/>
<circle cx="252" cy="396" r="1.8" fill="#02bf02"/>
<circle cx="266" cy="396" r="1.8" fill="#02bf02"/>
<circle cx="280" cy="396" r="1.8" fill="#02bf02"/>
<circle cx="252" cy="405" r="1.8" fill="#02bf02"/>
<circle cx="266" cy="405" r="1.8" fill="#02bf02"/>
<circle cx="280" cy="405" r="1.8" fill="#02bf02"/>
<circle cx="252" cy="414" r="1.8" fill="#02bf02"/>
<circle cx="266" cy="414" r="1.8" fill="#02bf02"/>
<circle cx="280" cy="414" r="1.8" fill="#02bf02"/>
<circle cx="336" cy="414" r="1.8" fill="#02bf02"/>
<circle cx="252" cy="423" r="1.8" fill="#02bf02"/>
<circle cx="266" cy="423" r="1.8" fill="#02bf02"/>
<circle cx="280" cy="423" r="1.8" fill="#02bf02"/>
<circle cx="336" cy="423" r="1.8" fill="#02bf02"/>
<circle cx="252" cy="432" r="1.8" fill="#02bf02"/>
<circle cx="266" cy="432" r="1.8" fill="#02bf02"/>
<circle cx="280" cy="432" r="1.8" fill="#02bf02"/>
<circle cx="350" cy="432" r="1.8" fill="#02bf02"/>
<circle cx="252" cy="441" r="1.8" fill="#02bf02"/>
<circle cx="266" cy="441" r="1.8" fill="#02bf02"/>
<circle cx="280" cy="441" r="1.8" fill="#02bf02"/>
<circle cx="350" cy="441" r="1.8" fill="#02bf02"/>
<circle cx="252" cy="450" r="1.8" fill="#02bf02"/>
<circle cx="266" cy="450" r="1.8" fill="#02bf02"/>
<circle cx="280" cy="450" r="1.8" fill="#02bf02"/>
<circle cx="336" cy="450" r="1.8" fill="#02bf02"/>
<circle cx="350" cy="450" r="1.8" fill="#02bf02"/>
<circle cx="252" cy="459" r="1.8" fill="#02bf02"/>
<circle cx="266" cy="459" r="1.8" fill="#02bf02"/>
<circle cx="280" cy="459" r="1.8" fill="#02bf02"/>
<circle cx="336" cy="459" r="1.8" fill="#02bf02"/>
<circle cx="350" cy="459" r="1.8" fill="#02bf02"/>
<circle cx="252" cy="468" r="1.8" fill="#02bf02"/>
<circle cx="266" cy="468" r="1.8" fill="#02bf02"/>
<circle cx="280" cy="468" r="1.8" fill="#02bf02"/>
<circle cx="336" cy="468" r="1.8" fill="#02bf02"/>
<circle cx="350" cy="468" r="1.8" fill="#02bf02"/>
<circle cx="252" cy="477" r="1.8" fill="#02bf02"/>
<circle cx="266" cy="477" r="1.8" fill="#02bf02"/>
<circle cx="280" cy="477" r="1.8" fill="#02bf02"/>
<circle cx="336" cy="477" r="1.8" fill="#02bf02"/>
<circle cx="350" cy="477" r="1.8" fill="#02bf02"/>
<circle cx="252" cy="486" r="1.8" fill="#02bf02"/>
<circle cx="266" cy="486" r="1.8" fill="#02bf02"/>
<circle cx="280" cy="486" r="1.8" fill="#02bf02"/>
<circle cx="322" cy="486" r="1.8" fill="#02bf02"/>
<circle cx="336" cy="486" r="1.8" fill="#02bf02"/>
<circle cx="350" cy="486" r="1.8" fill="#02bf02"/>
<circle cx="252" cy="495" r="1.8" fill="#02bf02"/>
<circle cx="266" cy="495" r="1.8" fill="#02bf02"/>
<circle cx="280" cy="495" r="1.8" fill="#02bf02"/>
<circle cx="322" cy="495" r="1.8" fill="#02bf02"/>
<circle cx="336" cy="495" r="1.8" fill="#02bf02"/>
<circle cx="350" cy="495" r="1.8" fill="#02bf02"/>
<circle cx="252" cy="504" r="1.8" fill="#02bf02"/>
<circle cx="266" cy="504" r="1.8" fill="#02bf02"/>
<circle cx="280" cy="504" r="1.8" fill="#02bf02"/>
<circle cx="308" cy="504" r="1.8" fill="#02bf02"/>
<circle cx="322" cy="504" r="1.8" fill="#02bf02"/>
<circle cx="336" cy="504" r="1.8" fill="#02bf02"/>
<circle cx="252" cy="513" r="1.8" fill="#02bf02"/>
<circle cx="266" cy="513" r="1.8" fill="#02bf02"/>
<circle cx="280" cy="513" r="1.8" fill="#02bf02"/>
<circle cx="308" cy="513" r="1.8" fill="#02bf02"/>
<circle cx="322" cy="513" r="1.8" fill="#02bf02"/>
<circle cx="336" cy="513" r="1.8" fill="#02bf02"/>
<circle cx="252" cy="522" r="1.8" fill="#02bf02"/>
<circle cx="266" cy="522" r="1.8" fill="#02bf02"/>
<circle cx="280" cy="522" r="1.8" fill="#02bf02"/>
<circle cx="294" cy="522" r="1.8" fill="#02bf02"/>
<circle cx="308" cy="522" r="1.8" fill="#02bf02"/>
<circle cx="322" cy="522" r="1.8" fill="#02bf02"/>
<circle cx="252" cy="531" r="1.8" fill="#02bf02"/>
<circle cx="266" cy="531" r="1.8" fill="#02bf02"/>
<circle cx="280" cy="531" r="1.8" fill="#02bf02"/>
<circle cx="294" cy="531" r="1.8" fill="#02bf02"/>
<circle cx="308" cy="531" r="1.8" fill="#02bf02"/>
<circle cx="322" cy="531" r="1.8" fill="#02bf02"/>
<circle cx="252" cy="540" r="1.8" fill="#02bf02"/>
<circle cx="266" cy="540" r="1.8" fill="#02bf02"/>
<circle cx="280" cy="540" r="1.8" fill="#02bf02"/>
<circle cx="294" cy="540" r="1.8" fill="#02bf02"/>
<circle cx="308" cy="540" r="1.8" fill="#02bf02"/>
<circle cx="252" cy="549" r="1.8" fill="#02bf02"/>
<circle cx="266" cy="549" r="1.8" fill="#02bf02"/>
<circle cx="280" cy="549" r="1.8" fill="#02bf02"/>
<circle cx="294" cy="549" r="1.8" fill="#02bf02"/>
<circle cx="308" cy="549" r="1.8" fill="#02bf02"/>
<circle cx="252" cy="558" r="1.8" fill="#02bf02"/>
<circle cx="266" cy="558" r="1.8" fill="#02bf02"/>
<circle cx="280" cy="558" r="1.8" fill="#02bf02"/>
<circle cx="294" cy="558" r="1.8" fill="#02bf02"/>
<circle cx="252" cy="567" r="1.8" fill="#02bf02"/>
<circle cx="266" cy="567" r="1.8" fill="#02bf02"/>
<circle cx="280" cy="567" r="1.8" fill="#02bf02"/>
<circle cx="294" cy="567" r="1.8" fill="#02bf02"/>
<circle cx="252" cy="576" r="1.8" fill="#02bf02"/>
<circle cx="266" cy="576" r="1.8" fill="#02bf02"/>
<circle cx="280" cy="576" r="1.8" fill="#02bf02"/>
<circle cx="252" cy="585" r="1.8" fill="#02bf02"/>
<circle cx="266" cy="585" r="1.8" fill="#02bf02"/>
<circle cx="280" cy="585" r="1.8" fill="#02bf02"/>
<circle cx="252" cy="594" r="1.8" fill="#02bf02"/>
<circle cx="266" cy="594" r="1.8" fill="#02bf02"/>
<circle cx="252" cy="603" r="1.8" fill="#02bf02"/>
<circle cx="266" cy="603" r="1.8" fill="#02bf02"/>
<circle cx="252" cy="612" r="1.8" fill="#02bf02"/>
<circle cx="252" cy="621" r="1.8" fill="#02bf02"/>
</svg>