<?xml version="1.0" encoding="UTF-8" standalone="no"?>
<svg xmlns="http://www.w3.org/2000/svg" version="1.1" height="646" width="694.2307692307692">
<desc>Ingress logos - By lll9p, No rights reserved, lll9p.china@gmail.com, http://imtho.com</desc>
<rect x="-2000%" y="-2000%" height="4000%" width="4000%" fill="black"/>
<circle cx="305.46153846153845" cy="38" r="1.8" fill="#0592d0"/>
<circle cx="305.46153846153845" cy="47.5" r="1.8" fill="#0592d0"/>
<circle cx="319.3461538461538" cy="38" r="1.8" fill="#0592d0"/>
<circle cx="319.3461538461538" cy="47.5" r="1.8" fill="#0592d0"/>
<circle cx="333.23076923076917" cy="38" r="1.8" fill="#0592d0"/>
<circle cx="333.23076923076917" cy="47.5" r="1.8" fill="#0592d0"/>
<circle cx="263.80769230769226" cy="57" r="1.8" fill="#0592d0"/>
<circle cx="263.80769230769226" cy="66.5" r="1.8" fill="#0592d0"/>
<circle cx="277.6923076923077" cy="57" r="1.8" fill="#0592d0"/>
<circle cx="277.6923076923077" cy="66.5" r="1.8" fill="#0592d0"/>
<circle cx="291.57692307692304" cy="57" r="1.8" fill="#0592d0"/>
<circle cx="291.57692307692304" cy="66.5" r="1.8" fill="#0592d0"/>
<circle cx="305.46153846153845" cy="57" r="1.8" fill="#0592d0"/>
<circle cx="305.46153846153845" cy="66.5" r="1.8" fill="#0592d0"/>
<circle cx="319.3461538461538" cy="57" r="1.8" fill="#0592d0"/>
<circle cx="319.3461538461538" cy="66.5" r="1.8" fill="#0592d0"/>
<circle cx="333.23076923076917" cy="57" r="1.8" fill="#0592d0"/>
<circle cx="333.23076923076917" cy="66.5" r="1.8" fill="#0592d0"/>
<circle cx="347.1153846153846" cy="57" r="1.8" fill="#0592d0"/>
<circle cx="347.1153846153846" cy="66.5" r="1.8" fill="#0592d0"/>
<circle cx="360.99999999999994" cy="57" r="1.8" fill="#0592d0"/>
<circle cx="360.99999999999994" cy="66.5" r="1.8" fill="#0592d0"/>
<circle cx="374.88461538461536" cy="57" r="1.8" fill="#0592d0"/>
<circle cx="374.88461538461536" cy="66.5" r="1.8" fill="#0592d0"/>
<circle cx="222.15384615384613" cy="76" r="1.8" fill="#0592d0"/>
<circle cx="222.15384615384613" cy="85.5" r="1.8" fill="#0592d0"/>
<circle cx="236.03846153846152" cy="76" r="1.8" fill="#0592d0"/>
<circle cx="236.03846153846152" cy="85.5" r="1.8" fill="#0592d0"/>
<circle cx="249.9230769230769" cy="76" r="1.8" fill="#0592d0"/>
<circle cx="249.9230769230769" cy="85.5" r="1.8" fill="#0592d0"/>
<circle cx="263.80769230769226" cy="76" r="1.8" fill="#0592d0"/>
<circle cx="263.80769230769226" cy="85.5" r="1.8" fill="#0592d0"/>
<circle cx="277.6923076923077" cy="76" r="1.8" fill="#0592d0"/>
<circle cx="277.6923076923077" cy="85.5" r="1.8" fill="#0592d0"/>
<circle cx="305.46153846153845" cy="76" r="1.8" fill="#0592d0"/>
<circle cx="305.46153846153845" cy="85.5" r="1.8" fill="#0592d0"/>
<circle cx="319.3461538461538" cy="76" r="1.8" fill="#0592d0"/>
<circle cx="319.3461538461538" cy="85.5" r="1.8" fill="#0592d0"/>
<circle cx="333.23076923076917" cy="76" r="1.8" fill="#0592d0"/>
<circle cx="333.23076923076917" cy="85.5" r="1.8" fill="#0592d0"/>
<circle cx="360.99999999999994" cy="76" r="1.8" fill="#0592d0"/>
<circle cx="360.99999999999994" cy="85.5" r="1.8" fill="#0592d0"/>
<circle cx="374.88461538461536" cy="76" r="1.8" fill="#0592d0"/>
<circle cx="374.88461538461536" cy="85.5" r="1.8" fill="#0592d0"/>
<circle cx="388.7692307692307" cy="76" r="1.8" fill="#0592d0"/>
<circle cx="388.7692307692307" cy="85.5" r="1.8" fill="#0592d0"/>
<circle cx="402.65384615384613" cy="76" r="1.8" fill="#0592d0"/>
<circle cx="402.65384615384613" cy="85.5" r="1.8" fill="#0592d0"/>
<circle cx="416.5384615384615" cy="76" r="1.8" fill="#0592d0"/>
<circle cx="416.5384615384615" cy="85.5" r="1.8" fill="#0592d0"/>
<circle cx="194.38461538461536" cy="95" r="1.8" fill="#0592d0"/>
<circle cx="194.38461538461536" cy="104.5" r="1.8" fill="#0592d0"/>
<circle cx="208.26923076923075" cy="95" r="1.8" fill="#0592d0"/>
<circle cx="208.26923076923075" cy="104.5" r="1.8" fill="#0592d0"/>
<circle cx="222.15384615384613" cy="95" r="1.8" fill="#0592d0"/>
<circle cx="222.15384615384613" cy="104.5" r="1.8" fill="#0592d0"/>
<circle cx="236.03846153846152" cy="95" r="1.8" fill="#0592d0"/>
<circle cx="236.03846153846152" cy="104.5" r="1.8" fill="#0592d0"/>
<circle cx="249.9230769230769" cy="95" r="1.8" fill="#0592d0"/>
<circle cx="249.9230769230769" cy="104.5" r="1.8" fill="#0592d0"/>
<circle cx="305.46153846153845" cy="95" r="1.8" fill="#0592d0"/>
<circle cx="305.46153846153845" cy="104.5" r="1.8" fill="#0592d0"/>
<circle cx="319.3461538461538" cy="95" r="1.8" fill="#0592d0"/>
<circle cx="319.3461538461538" cy="104.5" r="1.8" fill="#0592d0"/>
<circle cx="333.23076923076917" cy="95" r="1.8" fill="#0592d0"/>
<circle cx="333.23076923076917" cy="104.5" r="1.8" fill="#0592d0"/>
<circle cx="388.7692307692307" cy="95" r="1.8" fill="#0592d0"/>
<circle cx="388.7692307692307" cy="104.5" r="1.8" fill="#0592d0"/>
<circle cx="402.65384615384613" cy="95" r="1.8" fill="#0592d0"/>
<circle cx="402.65384615384613" cy="104.5" r="1.8" fill="#0592d0"/>
<circle cx="416.5384615384615" cy="95" r="1.8" fill="#0592d0"/>
<circle cx="416.5384615384615" cy="104.5" r="1.8" fill="#0592d0"/>
<circle cx="430.4230769230769" cy="95" r="1.8" fill="#0592d0"/>
<circle cx="430.4230769230769" cy="104.5" r="1.8" fill="#0592d0"/>
<circle cx="444.30769230769226" cy="95" r="1.8" fill="#0592d0"/>
<circle cx="444.30769230769226" cy="104.5" r="1.8" fill="#0592d0"/>
<circle cx="152.73076923076923" cy="114" r="1.8" fill="#0592d0"/>
<circle cx="152.73076923076923" cy="123.5" r="1.8" fill="#0592d0"/>
<circle cx="166.61538461538458" cy="114" r="1.8" fill="#0592d0"/>
<circle cx="166.61538461538458" cy="123.5" r="1.8" fill="#0592d0"/>
<circle cx="180.49999999999997" cy="114" r="1.8" fill="#0592d0"/>
<circle cx="180.49999999999997" cy="123.5" r="1.8" fill="#0592d0"/>
<circle cx="194.38461538461536" cy="114" r="1.8" fill="#0592d0"/>
<circle cx="194.38461538461536" cy="123.5" r="1.8" fill="#0592d0"/>
<circle cx="208.26923076923075" cy="114" r="1.8" fill="#0592d0"/>
<circle cx="208.26923076923075" cy="123.5" r="1.8" fill="#0592d0"/>
<circle cx="305.46153846153845" cy="114" r="1.8" fill="#0592d0"/>
<circle cx="305.46153846153845" cy="123.5" r="1.8" fill="#0592d0"/>
<circle cx="319.3461538461538" cy="114" r="1.8" fill="#0592d0"/>
<circle cx="319.3461538461538" cy="123.5" r="1.8" fill="#0592d0"/>
<circle cx="333.23076923076917" cy="114" r="1.8" fill="#0592d0"/>
<circle cx="333.23076923076917" cy="123.5" r="1.8" fill="#0592d0"/>
<circle cx="430.4230769230769" cy="114" r="1.8" fill="#0592d0"/>
<circle cx="430.4230769230769" cy="123.5" r="1.8" fill="#0592d0"/>
<circle cx="444.30769230769226" cy="114" r="1.8" fill="#0592d0"/>
<circle cx="444.30769230769226" cy="123.5" r="1.8" fill="#0592d0"/>
<circle cx="458.1923076923076" cy="114" r="1.8" fill="#0592d0"/>
<circle cx="458.1923076923076" cy="123.5" r="1.8" fill="#0592d0"/>
<circle cx="472.07692307692304" cy="114" r="1.8" fill="#0592d0"/>
<circle cx="472.07692307692304" cy="123.5" r="1.8" fill="#0592d0"/>
<circle cx="485.9615384615384" cy="114" r="1.8" fill="#0592d0"/>
<circle cx="485.9615384615384" cy="123.5" r="1.8" fill="#0592d0"/>
<circle cx="111.07692307692307" cy="133" r="1.8" fill="#0592d0"/>
<circle cx="111.07692307692307" cy="142.5" r="1.8" fill="#0592d0"/>
<circle cx="124.96153846153845" cy="133" r="1.8" fill="#0592d0"/>
<circle cx="124.96153846153845" cy="142.5" r="1.8" fill="#0592d0"/>
<circle cx="138.84615384615384" cy="133" r="1.8" fill="#0592d0"/>
<circle cx="138.84615384615384" cy="142.5" r="1.8" fill="#0592d0"/>
<circle cx="152.73076923076923" cy="133" r="1.8" fill="#0592d0"/>
<circle cx="152.73076923076923" cy="142.5" r="1.8" fill="#0592d0"/>
<circle cx="166.61538461538458" cy="133" r="1.8" fill="#0592d0"/>
<circle cx="166.61538461538458" cy="142.5" r="1.8" fill="#0592d0"/>
<circle cx="305.46153846153845" cy="133" r="1.8" fill="#0592d0"/>
<circle cx="305.46153846153845" cy="142.5" r="1.8" fill="#0592d0"/>
<circle cx="319.3461538461538" cy="133" r="1.8" fill="#0592d0"/>
<circle cx="319.3461538461538" cy="142.5" r="1.8" fill="#0592d0"/>
<circle cx="333.23076923076917" cy="133" r="1.8" fill="#0592d0"/>
<circle cx="333.23076923076917" cy="142.5" r="1.8" fill="#0592d0"/>
<circle cx="472.07692307692304" cy="133" r="1.8" fill="#0592d0"/>
<circle cx="472.07692307692304" cy="142.5" r="1.8" fill="#0592d0"/>
<circle cx="485.9615384615384" cy="133" r="1.8" fill="#0592d0"/>
<circle cx="485.9615384615384" cy="142.5" r="1.8" fill="#0592d0"/>
<circle cx="499.8461538461538" cy="133" r="1.8" fill="#0592d0"/>
<circle cx="499.8461538461538" cy="142.5" r="1.8" fill="#0592d0"/>
<circle cx="513.7307692307692" cy="133" r="1.8" fill="#0592d0"/>
<circle cx="513.7307692307692" cy="142.5" r="1.8" fill="#0592d0"/>
<circle cx="527.6153846153845" cy="133" r="1.8" fill="#0592d0"/>
<circle cx="527.6153846153845" cy="142.5" r="1.8" fill="#0592d0"/>
<circle cx="83.30769230769229" cy="152" r="1.8" fill="#0592d0"/>
<circle cx="83.30769230769229" cy="161.5" r="1.8" fill="#0592d0"/>
<circle cx="97.19230769230768" cy="152" r="1.8" fill="#0592d0"/>
<circle cx="97.19230769230768" cy="161.5" r="1.8" fill="#0592d0"/>
<circle cx="111.07692307692307" cy="152" r="1.8" fill="#0592d0"/>
<circle cx="111.07692307692307" cy="161.5" r="1.8" fill="#0592d0"/>
<circle cx="124.96153846153845" cy="152" r="1.8" fill="#0592d0"/>
<circle cx="124.96153846153845" cy="161.5" r="1.8" fill="#0592d0"/>
<circle cx="138.84615384615384" cy="152" r="1.8" fill="#0592d0"/>
<circle cx="138.84615384615384" cy="161.5" r="1.8" fill="#0592d0"/>
<circle cx="305.46153846153845" cy="152" r="1.8" fill="#0592d0"/>
<circle cx="305.46153846153845" cy="161.5" r="1.8" fill="#0592d0"/>
<circle cx="319.3461538461538" cy="152" r="1.8" fill="#0592d0"/>
<circle cx="319.3461538461538" cy="161.5" r="1.8" fill="#0592d0"/>
<circle cx="333.23076923076917" cy="152" r="1.8" fill="#0592d0"/>
<circle cx="333.23076923076917" cy="161.5" r="1.8" fill="#0592d0"/>
<circle cx="499.8461538461538" cy="152" r="1.8" fill="#0592d0"/>
<circle cx="499.8461538461538" cy="161.5" r="1.8" fill="#0592d0"/>
<circle cx="513.7307692307692" cy="152" r="1.8" fill="#0592d0"/>
<circle cx="513.7307692307692" cy="161.5" r="1.8" fill="#0592d0"/>
<circle cx="527.6153846153845" cy="152" r="1.8" fill="#0592d0"/>
<circle cx="527.6153846153845" cy="161.5" r="1.8" fill="#0592d0"/>
<circle cx="541.5" cy="152" r="1.8" fill="#0592d0"/>
<circle cx="541.5" cy="161.5" r="1.8" fill="#0592d0"/>
<circle cx="555.3846153846154" cy="152" r="1.8" fill="#0592d0"/>
<circle cx="555.3846153846154" cy="161.5" r="1.8" fill="#0592d0"/>
<circle cx="55.53846153846153" cy="171" r="1.8" fill="#0592d0"/>
<circle cx="55.53846153846153" cy="180.5" r="1.8" fill="#0592d0"/>
<circle cx="69.42307692307692" cy="171" r="1.8" fill="#0592d0"/>
<circle cx="69.42307692307692" cy="180.5" r="1.8" fill="#0592d0"/>
<circle cx="83.30769230769229" cy="171" r="1.8" fill="#0592d0"/>
<circle cx="83.30769230769229" cy="180.5" r="1.8" fill="#0592d0"/>
<circle cx="97.19230769230768" cy="171" r="1.8" fill="#0592d0"/>
<circle cx="97.19230769230768" cy="180.5" r="1.8" fill="#0592d0"/>
<circle cx="541.5" cy="171" r="1.8" fill="#0592d0"/>
<circle cx="541.5" cy="180.5" r="1.8" fill="#0592d0"/>
<circle cx="555.3846153846154" cy="171" r="1.8" fill="#0592d0"/>
<circle cx="555.3846153846154" cy="180.5" r="1.8" fill="#0592d0"/>
<circle cx="569.2692307692307" cy="171" r="1.8" fill="#0592d0"/>
<circle cx="569.2692307692307" cy="180.5" r="1.8" fill="#0592d0"/>
<circle cx="583.1538461538461" cy="171" r="1.8" fill="#0592d0"/>
<circle cx="583.1538461538461" cy="180.5" r="1.8" fill="#0592d0"/>
<circle cx="55.53846153846153" cy="190" r="1.8" fill="#0592d0"/>
<circle cx="55.53846153846153" cy="199.5" r="1.8" fill="#0592d0"/>
<circle cx="69.42307692307692" cy="190" r="1.8" fill="#0592d0"/>
<circle cx="69.42307692307692" cy="199.5" r="1.8" fill="#0592d0"/>
<circle cx="569.2692307692307" cy="190" r="1.8" fill="#0592d0"/>
<circle cx="569.2692307692307" cy="199.5" r="1.8" fill="#0592d0"/>
<circle cx="583.1538461538461" cy="190" r="1.8" fill="#0592d0"/>
<circle cx="583.1538461538461" cy="199.5" r="1.8" fill="#0592d0"/>
<circle cx="55.53846153846153" cy="209" r="1.8" fill="#0592d0"/>
<circle cx="55.53846153846153" cy="218.5" r="1.8" fill="#0592d0"/>
<circle cx="69.42307692307692" cy="209" r="1.8" fill="#0592d0"/>
<circle cx="69.42307692307692" cy="218.5" r="1.8" fill="#0592d0"/>
<circle cx="124.96153846153845" cy="209" r="1.8" fill="#0592d0"/>
<circle cx="124.96153846153845" cy="218.5" r="1.8" fill="#0592d0"/>
<circle cx="138.84615384615384" cy="209" r="1.8" fill="#0592d0"/>
<circle cx="138.84615384615384" cy="218.5" r="1.8" fill="#0592d0"/>
<circle cx="152.73076923076923" cy="209" r="1.8" fill="#0592d0"/>
<circle cx="152.73076923076923" cy="218.5" r="1.8" fill="#0592d0"/>
<circle cx="166.61538461538458" cy="209" r="1.8" fill="#0592d0"/>
<circle cx="166.61538461538458" cy="218.5" r="1.8" fill="#0592d0"/>
<circle cx="180.49999999999997" cy="209" r="1.8" fill="#0592d0"/>
<circle cx="180.49999999999997" cy="218.5" r="1.8" fill="#0592d0"/>
<circle cx="194.38461538461536" cy="209" r="1.8" fill="#0592d0"/>
<circle cx="194.38461538461536" cy="218.5" r="1.8" fill="#0592d0"/>
<circle cx="208.26923076923075" cy="209" r="1.8" fill="#0592d0"/>
<circle cx="208.26923076923075" cy="218.5" r="1.8" fill="#0592d0"/>
<circle cx="222.15384615384613" cy="209" r="1.8" fill="#0592d0"/>
<circle cx="222.15384615384613" cy="218.5" r="1.8" fill="#0592d0"/>
<circle cx="236.03846153846152" cy="209" r="1.8" fill="#0592d0"/>
<circle cx="236.03846153846152" cy="218.5" r="1.8" fill="#0592d0"/>
<circle cx="249.9230769230769" cy="209" r="1.8" fill="#0592d0"/>
<circle cx="249.9230769230769" cy="218.5" r="1.8" fill="#0592d0"/>
<circle cx="263.80769230769226" cy="209" r="1.8" fill="#0592d0"/>
<circle cx="263.80769230769226" cy="218.5" r="1.8" fill="#0592d0"/>
<circle cx="277.6923076923077" cy="209" r="1.8" fill="#0592d0"/>
<circle cx="277.6923076923077" cy="218.5" r="1.8" fill="#0592d0"/>
<circle cx="291.57692307692304" cy="209" r="1.8" fill="#0592d0"/>
<circle cx="291.57692307692304" cy="218.5" r="1.8" fill="#0592d0"/>
<circle cx="305.46153846153845" cy="209" r="1.8" fill="#0592d0"/>
<circle cx="305.46153846153845" cy="218.5" r="1.8" fill="#0592d0"/>
<circle cx="319.3461538461538" cy="209" r="1.8" fill="#0592d0"/>
<circle cx="319.3461538461538" cy="218.5" r="1.8" fill="#0592d0"/>
<circle cx="333.23076923076917" cy="209" r="1.8" fill="#0592d0"/>
<circle cx="333.23076923076917" cy="218.5" r="1.8" fill="#0592d0"/>
<circle cx="347.1153846153846" cy="209" r="1.8" fill="#0592d0"/>
<circle cx="347.1153846153846" cy="218.5" r="1.8" fill="#0592d0"/>
<circle cx="360.99999999999994" cy="209" r="1.8" fill="#0592d0"/>
<circle cx="360.99999999999994" cy="218.5" r="1.8" fill="#0592d0"/>
<circle cx="374.88461538461536" cy="209" r="1.8" fill="#0592d0"/>
<circle cx="374.88461538461536" cy="218.5" r="1.8" fill="#0592d0"/>
<circle cx="388.7692307692307" cy="209" r="1.8" fill="#0592d0"/>
<circle cx="388.7692307692307" cy="218.5" r="1.8" fill="#0592d0"/>
<circle cx="402.65384615384613" cy="209" r="1.8" fill="#0592d0"/>
<circle cx="402.65384615384613" cy="218.5" r="1.8" fill="#0592d0"/>
<circle cx="416.5384615384615" cy="209" r="1.8" fill="#0592d0"/>
<circle cx="416.5384615384615" cy="218.5" r="1.8" fill="#0592d0"/>
<circle cx="430.4230769230769" cy="209" r="1.8" fill="#0592d0"/>
<circle cx="430.4230769230769" cy="218.5" r="1.8" fill="#0592d0"/>
<circle cx="444.30769230769226" cy="209" r="1.8" fill="#0592d0"/>
<circle cx="444.30769230769226" cy="218.5" r="1.8" fill="#0592d0"/>
<circle cx="458.1923076923076" cy="209" r="1.8" fill="#0592d0"/>
<circle cx="458.1923076923076" cy="218.5" r="1.8" fill="#0592d0"/>
<circle cx="472.07692307692304" cy="209" r="1.8" fill="#0592d0"/>
<circle cx="472.07692307692304" cy="218.5" r="1.8" fill="#0592d0"/>
<circle cx="485.9615384615384" cy="209" r="1.8" fill="#0592d0"/>
<circle cx="485.9615384615384" cy="218.5" r="1.8" fill="#0592d0"/>
<circle cx="499.8461538461538" cy="209" r="1.8" fill="#0592d0"/>
<circle cx="499.8461538461538" cy="218.5" r="1.8" fill="#0592d0"/>
<circle cx="513.7307692307692" cy="209" r="1.8" fill="#0592d0"/>
<circle cx="513.7307692307692" cy="218.5" r="1.8" fill="#0592d0"/>
<circle cx="569.2692307692307" cy="209" r="1.8" fill="#0592d0"/>
<circle cx="569.2692307692307" cy="218.5" r="1.8" fill="#0592d0"/>
<circle cx="583.1538461538461" cy="209" r="1.8" fill="#0592d0"/>
<circle cx="583.1538461538461" cy="218.5" r="1.8" fill="#0592d0"/>
<circle cx="55.53846153846153" cy="228" r="1.8" fill="#0592d0"/>
<circle cx="55.53846153846153" cy="237.5" r="1.8" fill="#0592d0"/>
<circle cx="69.42307692307692" cy="228" r="1.8" fill="#0592d0"/>
<circle cx="69.42307692307692" cy="237.5" r="1.8" fill="#0592d0"/>
<circle cx="138.84615384615384" cy="228" r="1.8" fill="#0592d0"/>
<circle cx="138.84615384615384" cy="237.5" r="1.8" fill="#0592d0"/>
<circle cx="152.73076923076923" cy="228" r="1.8" fill="#0592d0"/>
<circle cx="152.73076923076923" cy="237.5" r="1.8" fill="#0592d0"/>
<circle cx="166.61538461538458" cy="228" r="1.8" fill="#0592d0"/>
<circle cx="166.61538461538458" cy="237.5" r="1.8" fill="#0592d0"/>
<circle cx="180.49999999999997" cy="228" r="1.8" fill="#0592d0"/>
<circle cx="180.49999999999997" cy="237.5" r="1.8" fill="#0592d0"/>
<circle cx="194.38461538461536" cy="228" r="1.8" fill="#0592d0"/>
<circle cx="194.38461538461536" cy="237.5" r="1.8" fill="#0592d0"/>
<circle cx="208.26923076923075" cy="228" r="1.8" fill="#0592d0"/>
<circle cx="208.26923076923075" cy="237.5" r="1.8" fill="#0592d0"/>
<circle cx="222.15384615384613" cy="228" r="1.8" fill="#0592d0"/>
<circle cx="222.15384615384613" cy="237.5" r="1.8" fill="#0592d0"/>
<circle cx="236.03846153846152" cy="228" r="1.8" fill="#0592d0"/>
<circle cx="236.03846153846152" cy="237.5" r="1.8" fill="#0592d0"/>
<circle cx="249.9230769230769" cy="228" r="1.8" fill="#0592d0"/>
<circle cx="249.9230769230769" cy="237.5" r="1.8" fill="#0592d0"/>
<circle cx="263.80769230769226" cy="228" r="1.8" fill="#0592d0"/>
<circle cx="263.80769230769226" cy="237.5" r="1.8" fill="#0592d0"/>
<circle cx="277.6923076923077" cy="228" r="1.8" fill="#0592d0"/>
<circle cx="277.6923076923077" cy="237.5" r="1.8" fill="#0592d0"/>
<circle cx="291.57692307692304" cy="228" r="1.8" fill="#0592d0"/>
<circle cx="291.57692307692304" cy="237.5" r="1.8" fill="#0592d0"/>
<circle cx="305.46153846153845" cy="228" r="1.8" fill="#0592d0"/>
<circle cx="305.46153846153845" cy="237.5" r="1.8" fill="#0592d0"/>
<circle cx="319.3461538461538" cy="228" r="1.8" fill="#0592d0"/>
<circle cx="319.3461538461538" cy="237.5" r="1.8" fill="#0592d0"/>
<circle cx="333.23076923076917" cy="228" r="1.8" fill="#0592d0"/>
<circle cx="333.23076923076917" cy="237.5" r="1.8" fill="#0592d0"/>
<circle cx="347.1153846153846" cy="228" r="1.8" fill="#0592d0"/>
<circle cx="347.1153846153846" cy="237.5" r="1.8" fill="#0592d0"/>
<circle cx="360.99999999999994" cy="228" r="1.8" fill="#0592d0"/>
<circle cx="360.99999999999994" cy="237.5" r="1.8" fill="#0592d0"/>
<circle cx="374.88461538461536" cy="228" r="1.8" fill="#0592d0"/>
<circle cx="374.88461538461536" cy="237.5" r="1.8" fill="#0592d0"/>
<circle cx="388.7692307692307" cy="228" r="1.8" fill="#0592d0"/>
<circle cx="388.7692307692307" cy="237.5" r="1.8" fill="#0592d0"/>
<circle cx="402.65384615384613" cy="228" r="1.8" fill="#0592d0"/>
<circle cx="402.65384615384613" cy="237.5" r="1.8" fill="#0592d0"/>
<circle cx="416.5384615384615" cy="228" r="1.8" fill="#0592d0"/>
<circle cx="416.5384615384615" cy="237.5" r="1.8" fill="#0592d0"/>
<circle cx="430.4230769230769" cy="228" r="1.8" fill="#0592d0"/>
<circle cx="430.4230769230769" cy="237.5" r="1.8" fill="#0592d0"/>
<circle cx="444.30769230769226" cy="228" r="1.8" fill="#0592d0"/>
<circle cx="444.30769230769226" cy="237.5" r="1.8" fill="#0592d0"/>
<circle cx="458.1923076923076" cy="228" r="1.8" fill="#0592d0"/>
<circle cx="458.1923076923076" cy="237.5" r="1.8" fill="#0592d0"/>
<circle cx="472.07692307692304" cy="228" r="1.8" fill="#0592d0"/>
<circle cx="472.07692307692304" cy="237.5" r="1.8" fill="#0592d0"/>
<circle cx="485.9615384615384" cy="228" r="1.8" fill="#0592d0"/>
<circle cx="485.9615384615384" cy="237.5" r="1.8" fill="#0592d0"/>
<circle cx="499.8461538461538" cy="228" r="1.8" fill="#0592d0"/>
<circle cx="499.8461538461538" cy="237.5" r="1.8" fill="#0592d0"/>
<circle cx="569.2692307692307" cy="228" r="1.8" fill="#0592d0"/>
<circle cx="569.2692307692307" cy="237.5" r="1.8" fill="#0592d0"/>
<circle cx="583.1538461538461" cy="228" r="1.8" fill="#0592d0"/>
<circle cx="583.1538461538461" cy="237.5" r="1.8" fill="#0592d0"/>
<circle cx="55.53846153846153" cy="247" r="1.8" fill="#0592d0"/>
<circle cx="55.53846153846153" cy="256.5" r="1.8" fill="#0592d0"/>
<circle cx="69.42307692307692" cy="247" r="1.8" fill="#0592d0"/>
<circle cx="69.42307692307692" cy="256.5" r="1.8" fill="#0592d0"/>
<circle cx="152.73076923076923" cy="247" r="1.8" fill="#0592d0"/>
<circle cx="152.73076923076923" cy="256.5" r="1.8" fill="#0592d0"/>
<circle cx="166.61538461538458" cy="247" r="1.8" fill="#0592d0"/>
<circle cx="166.61538461538458" cy="256.5" r="1.8" fill="#0592d0"/>
<circle cx="180.49999999999997" cy="247" r="1.8" fill="#0592d0"/>
<circle cx="180.49999999999997" cy="256.5" r="1.8" fill="#0592d0"/>
<circle cx="194.38461538461536" cy="247" r="1.8" fill="#0592d0"/>
<circle cx="194.38461538461536" cy="256.5" r="1.8" fill="#0592d0"/>
<circle cx="208.26923076923075" cy="247" r="1.8" fill="#0592d0"/>
<circle cx="208.26923076923075" cy="256.5" r="1.8" fill="#0592d0"/>
<circle cx="222.15384615384613" cy="247" r="1.8" fill="#0592d0"/>
<circle cx="222.15384615384613" cy="256.5" r="1.8" fill="#0592d0"/>
<circle cx="236.03846153846152" cy="247" r="1.8" fill="#0592d0"/>
<circle cx="236.03846153846152" cy="256.5" r="1.8" fill="#0592d0"/>
<circle cx="402.65384615384613" cy="247" r="1.8" fill="#0592d0"/>
<circle cx="402.65384615384613" cy="256.5" r="1.8" fill="#0592d0"/>
<circle cx="416.5384615384615" cy="247" r="1.8" fill="#0592d0"/>
<circle cx="416.5384615384615" cy="256.5" r="1.8" fill="#0592d0"/>
<circle cx="430.4230769230769" cy="247" r="1.8" fill="#0592d0"/>
<circle cx="430.4230769230769" cy="256.5" r="1.8" fill="#0592d0"/>
<circle cx="444.30769230769226" cy="247" r="1.8" fill="#0592d0"/>
<circle cx="444.30769230769226" cy="256.5" r="1.8" fill="#0592d0"/>
<circle cx="458.1923076923076" cy="247" r="1.8" fill="#0592d0"/>
<circle cx="458.1923076923076" cy="256.5" r="1.8" fill="#0592d0"/>
<circle cx="472.07692307692304" cy="247" r="1.8" fill="#0592d0"/>
<circle cx="472.07692307692304" cy="256.5" r="1.8" fill="#0592d0"/>
<circle cx="485.9615384615384" cy="247" r="1.8" fill="#0592d0"/>
<circle cx="485.9615384615384" cy="256.5" r="1.8" fill="#0592d0"/>
<circle cx="569.2692307692307" cy="247" r="1.8" fill="#0592d0"/>
<circle cx="569.2692307692307" cy="256.5" r="1.8" fill="#0592d0"/>
<circle cx="583.1538461538461" cy="247" r="1.8" fill="#0592d0"/>
<circle cx="583.1538461538461" cy="256.5" r="1.8" fill="#0592d0"/>
<circle cx="55.53846153846153" cy="266" r="1.8" fill="#0592d0"/>
<circle cx="55.53846153846153" cy="275.5" r="1.8" fill="#0592d0"/>
<circle cx="69.42307692307692" cy="266" r="1.8" fill="#0592d0"/>
<circle cx="69.42307692307692" cy="275.5" r="1.8" fill="#0592d0"/>
<circle cx="166.61538461538458" cy="266" r="1.8" fill="#0592d0"/>
<circle cx="166.61538461538458" cy="275.5" r="1.8" fill="#0592d0"/>
<circle cx="180.49999999999997" cy="266" r="1.8" fill="#0592d0"/>
<circle cx="180.49999999999997" cy="275.5" r="1.8" fill="#0592d0"/>
<circle cx="194.38461538461536" cy="266" r="1.8" fill="#0592d0"/>
<circle cx="194.38461538461536" cy="275.5" r="1.8" fill="#0592d0"/>
<circle cx="208.26923076923075" cy="266" r="1.8" fill="#0592d0"/>
<circle cx="208.26923076923075" cy="275.5" r="1.8" fill="#0592d0"/>
<circle cx="222.15384615384613" cy="266" r="1.8" fill="#0592d0"/>
<circle cx="222.15384615384613" cy="275.5" r="1.8" fill="#0592d0"/>
<circle cx="236.03846153846152" cy="266" r="1.8" fill="#0592d0"/>
<circle cx="236.03846153846152" cy="275.5" r="1.8" fill="#0592d0"/>
<circle cx="249.9230769230769" cy="266" r="1.8" fill="#0592d0"/>
<circle cx="249.9230769230769" cy="275.5" r="1.8" fill="#0592d0"/>
<circle cx="263.80769230769226" cy="266" r="1.8" fill="#0592d0"/>
<circle cx="263.80769230769226" cy="275.5" r="1.8" fill="#0592d0"/>
<circle cx="374.88461538461536" cy="266" r="1.8" fill="#0592d0"/>
<circle cx="374.88461538461536" cy="275.5" r="1.8" fill="#0592d0"/>
<circle cx="388.7692307692307" cy="266" r="1.8" fill="#0592d0"/>
<circle cx="388.7692307692307" cy="275.5" r="1.8" fill="#0592d0"/>
<circle cx="402.65384615384613" cy="266" r="1.8" fill="#0592d0"/>
<circle cx="402.65384615384613" cy="275.5" r="1.8" fill="#0592d0"/>
<circle cx="416.5384615384615" cy="266" r="1.8" fill="#0592d0"/>
<circle cx="416.5384615384615" cy="275.5" r="1.8" fill="#0592d0"/>
<circle cx="430.4230769230769" cy="266" r="1.8" fill="#0592d0"/>
<circle cx="430.4230769230769" cy="275.5" r="1.8" fill="#0592d0"/>
<circle cx="444.30769230769226" cy="266" r="1.8" fill="#0592d0"/>
<circle cx="444.30769230769226" cy="275.5" r="1.8" fill="#0592d0"/>
<circle cx="458.1923076923076" cy="266" r="1.8" fill="#0592d0"/>
<circle cx="458.1923076923076" cy="275.5" r="1.8" fill="#0592d0"/>
<circle cx="472.07692307692304" cy="266" r="1.8" fill="#0592d0"/>
<circle cx="472.07692307692304" cy="275.5" r="1.8" fill="#0592d0"/>
<circle cx="569.2692307692307" cy="266" r="1.8" fill="#0592d0"/>
<circle cx="569.2692307692307" cy="275.5" r="1.8" fill="#0592d0"/>
<circle cx="583.1538461538461" cy="266" r="1.8" fill="#0592d0"/>
<circle cx="583.1538461538461" cy="275.5" r="1.8" fill="#0592d0"/>
<circle cx="55.53846153846153" cy="285" r="1.8" fill="#0592d0"/>
<circle cx="55.53846153846153" cy="294.5" r="1.8" fill="#0592d0"/>
<circle cx="69.42307692307692" cy="285" r="1.8" fill="#0592d0"/>
<circle cx="69.42307692307692" cy="294.5" r="1.8" fill="#0592d0"/>
<circle cx="180.49999999999997" cy="285" r="1.8" fill="#0592d0"/>
<circle cx="180.49999999999997" cy="294.5" r="1.8" fill="#0592d0"/>
<circle cx="194.38461538461536" cy="285" r="1.8" fill="#0592d0"/>
<circle cx="194.38461538461536" cy="294.5" r="1.8" fill="#0592d0"/>
<circle cx="208.26923076923075" cy="285" r="1.8" fill="#0592d0"/>
<circle cx="208.26923076923075" cy="294.5" r="1.8" fill="#0592d0"/>
<circle cx="249.9230769230769" cy="285" r="1.8" fill="#0592d0"/>
<circle cx="249.9230769230769" cy="294.5" r="1.8" fill="#0592d0"/>
<circle cx="263.80769230769226" cy="285" r="1.8" fill="#0592d0"/>
<circle cx="263.80769230769226" cy="294.5" r="1.8" fill="#0592d0"/>
<circle cx="277.6923076923077" cy="285" r="1.8" fill="#0592d0"/>
<circle cx="277.6923076923077" cy="294.5" r="1.8" fill="#0592d0"/>
<circle cx="291.57692307692304" cy="285" r="1.8" fill="#0592d0"/>
<circle cx="291.57692307692304" cy="294.5" r="1.8" fill="#0592d0"/>
<circle cx="305.46153846153845" cy="285" r="1.8" fill="#0592d0"/>
<circle cx="305.46153846153845" cy="294.5" r="1.8" fill="#0592d0"/>
<circle cx="333.23076923076917" cy="285" r="1.8" fill="#0592d0"/>
<circle cx="333.23076923076917" cy="294.5" r="1.8" fill="#0592d0"/>
<circle cx="347.1153846153846" cy="285" r="1.8" fill="#0592d0"/>
<circle cx="347.1153846153846" cy="294.5" r="1.8" fill="#0592d0"/>
<circle cx="360.99999999999994" cy="285" r="1.8" fill="#0592d0"/>
<circle cx="360.99999999999994" cy="294.5" r="1.8" fill="#0592d0"/>
<circle cx="374.88461538461536" cy="285" r="1.8" fill="#0592d0"/>
<circle cx="374.88461538461536" cy="294.5" r="1.8" fill="#0592d0"/>
<circle cx="388.7692307692307" cy="285" r="1.8" fill="#0592d0"/>
<circle cx="388.7692307692307" cy="294.5" r="1.8" fill="#0592d0"/>
<circle cx="430.4230769230769" cy="285" r="1.8" fill="#0592d0"/>
<circle cx="430.4230769230769" cy="294.5" r="1.8" fill="#0592d0"/>
<circle cx="444.30769230769226" cy="285" r="1.8" fill="#0592d0"/>
<circle cx="444.30769230769226" cy="294.5" r="1.8" fill="#0592d0"/>
<circle cx="458.1923076923076" cy="285" r="1.8" fill="#0592d0"/>
<circle cx="458.1923076923076" cy="294.5" r="1.8" fill="#0592d0"/>
<circle cx="569.2692307692307" cy="285" r="1.8" fill="#0592d0"/>
<circle cx="569.2692307692307" cy="294.5" r="1.8" fill="#0592d0"/>
<circle cx="583.1538461538461" cy="285" r="1.8" fill="#0592d0"/>
<circle cx="583.1538461538461" cy="294.5" r="1.8" fill="#0592d0"/>
<circle cx="55.53846153846153" cy="304" r="1.8" fill="#0592d0"/>
<circle cx="55.53846153846153" cy="313.5" r="1.8" fill="#0592d0"/>
<circle cx="69.42307692307692" cy="304" r="1.8" fill="#0592d0"/>
<circle cx="69.42307692307692" cy="313.5" r="1.8" fill="#0592d0"/>
<circle cx="194.38461538461536" cy="304" r="1.8" fill="#0592d0"/>
<circle cx="194.38461538461536" cy="313.5" r="1.8" fill="#0592d0"/>
<circle cx="208.26923076923075" cy="304" r="1.8" fill="#0592d0"/>
<circle cx="208.26923076923075" cy="313.5" r="1.8" fill="#0592d0"/>
<circle cx="222.15384615384613" cy="304" r="1.8" fill="#0592d0"/>
<circle cx="222.15384615384613" cy="313.5" r="1.8" fill="#0592d0"/>
<circle cx="291.57692307692304" cy="304" r="1.8" fill="#0592d0"/>
<circle cx="291.57692307692304" cy="313.5" r="1.8" fill="#0592d0"/>
<circle cx="305.46153846153845" cy="304" r="1.8" fill="#0592d0"/>
<circle cx="305.46153846153845" cy="313.5" r="1.8" fill="#0592d0"/>
<circle cx="319.3461538461538" cy="304" r="1.8" fill="#0592d0"/>
<circle cx="319.3461538461538" cy="313.5" r="1.8" fill="#0592d0"/>
<circle cx="333.23076923076917" cy="304" r="1.8" fill="#0592d0"/>
<circle cx="333.23076923076917" cy="313.5" r="1.8" fill="#0592d0"/>
<circle cx="347.1153846153846" cy="304" r="1.8" fill="#0592d0"/>
<circle cx="347.1153846153846" cy="313.5" r="1.8" fill="#0592d0"/>
<circle cx="416.5384615384615" cy="304" r="1.8" fill="#0592d0"/>
<circle cx="416.5384615384615" cy="313.5" r="1.8" fill="#0592d0"/>
<circle cx="430.4230769230769" cy="304" r="1.8" fill="#0592d0"/>
<circle cx="430.4230769230769" cy="313.5" r="1.8" fill="#0592d0"/>
<circle cx="444.30769230769226" cy="304" r="1.8" fill="#0592d0"/>
<circle cx="444.30769230769226" cy="313.5" r="1.8" fill="#0592d0"/>
<circle cx="569.2692307692307" cy="304" r="1.8" fill="#0592d0"/>
<circle cx="569.2692307692307" cy="313.5" r="1.8" fill="#0592d0"/>
<circle cx="583.1538461538461" cy="304" r="1.8" fill="#0592d0"/>
<circle cx="583.1538461538461" cy="313.5" r="1.8" fill="#0592d0"/>
<circle cx="55.53846153846153" cy="323" r="1.8" fill="#0592d0"/>
<circle cx="55.53846153846153" cy="332.5" r="1.8" fill="#0592d0"/>
<circle cx="69.42307692307692" cy="323" r="1.8" fill="#0592d0"/>
<circle cx="69.42307692307692" cy="332.5" r="1.8" fill="#0592d0"/>
<circle cx="208.26923076923075" cy="323" r="1.8" fill="#0592d0"/>
<circle cx="208.26923076923075" cy="332.5" r="1.8" fill="#0592d0"/>
<circle cx="222.15384615384613" cy="323" r="1.8" fill="#0592d0"/>
<circle cx="222.15384615384613" cy="332.5" r="1.8" fill="#0592d0"/>
<circle cx="236.03846153846152" cy="323" r="1.8" fill="#0592d0"/>
<circle cx="236.03846153846152" cy="332.5" r="1.8" fill="#0592d0"/>
<circle cx="305.46153846153845" cy="323" r="1.8" fill="#0592d0"/>
<circle cx="305.46153846153845" cy="332.5" r="1.8" fill="#0592d0"/>
<circle cx="319.3461538461538" cy="323" r="1.8" fill="#0592d0"/>
<circle cx="319.3461538461538" cy="332.5" r="1.8" fill="#0592d0"/>
<circle cx="333.23076923076917" cy="323" r="1.8" fill="#0592d0"/>
<circle cx="333.23076923076917" cy="332.5" r="1.8" fill="#0592d0"/>
<circle cx="402.65384615384613" cy="323" r="1.8" fill="#0592d0"/>
<circle cx="402.65384615384613" cy="332.5" r="1.8" fill="#0592d0"/>
<circle cx="416.5384615384615" cy="323" r="1.8" fill="#0592d0"/>
<circle cx="416.5384615384615" cy="332.5" r="1.8" fill="#0592d0"/>
<circle cx="430.4230769230769" cy="323" r="1.8" fill="#0592d0"/>
<circle cx="430.4230769230769" cy="332.5" r="1.8" fill="#0592d0"/>
<circle cx="569.2692307692307" cy="323" r="1.8" fill="#0592d0"/>
<circle cx="569.2692307692307" cy="332.5" r="1.8" fill="#0592d0"/>
<circle cx="583.1538461538461" cy="323" r="1.8" fill="#0592d0"/>
<circle cx="583.1538461538461" cy="332.5" r="1.8" fill="#0592d0"/>
<circle cx="55.53846153846153" cy="342" r="1.8" fill="#0592d0"/>
<circle cx="55.53846153846153" cy="351.5" r="1.8" fill="#0592d0"/>
<circle cx="69.42307692307692" cy="342" r="1.8" fill="#0592d0"/>
<circle cx="69.42307692307692" cy="351.5" r="1.8" fill="#0592d0"/>
<circle cx="222.15384615384613" cy="342" r="1.8" fill="#0592d0"/>
<circle cx="222.15384615384613" cy="351.5" r="1.8" fill="#0592d0"/>
<circle cx="236.03846153846152" cy="342" r="1.8" fill="#0592d0"/>
<circle cx="236.03846153846152" cy="351.5" r="1.8" fill="#0592d0"/>
<circle cx="249.9230769230769" cy="342" r="1.8" fill="#0592d0"/>
<circle cx="249.9230769230769" cy="351.5" r="1.8" fill="#0592d0"/>
<circle cx="305.46153846153845" cy="342" r="1.8" fill="#0592d0"/>
<circle cx="305.46153846153845" cy="351.5" r="1.8" fill="#0592d0"/>
<circle cx="319.3461538461538" cy="342" r="1.8" fill="#0592d0"/>
<circle cx="319.3461538461538" cy="351.5" r="1.8" fill="#0592d0"/>
<circle cx="333.23076923076917" cy="342" r="1.8" fill="#0592d0"/>
<circle cx="333.23076923076917" cy="351.5" r="1.8" fill="#0592d0"/>
<circle cx="388.7692307692307" cy="342" r="1.8" fill="#0592d0"/>
<circle cx="388.7692307692307" cy="351.5" r="1.8" fill="#0592d0"/>
<circle cx="402.65384615384613" cy="342" r="1.8" fill="#0592d0"/>
<circle cx="402.65384615384613" cy="351.5" r="1.8" fill="#0592d0"/>
<circle cx="416.5384615384615" cy="342" r="1.8" fill="#0592d0"/>
<circle cx="416.5384615384615" cy="351.5" r="1.8" fill="#0592d0"/>
<circle cx="569.2692307692307" cy="342" r="1.8" fill="#0592d0"/>
<circle cx="569.2692307692307" cy="351.5" r="1.8" fill="#0592d0"/>
<circle cx="583.1538461538461" cy="342" r="1.8" fill="#0592d0"/>
<circle cx="583.1538461538461" cy="351.5" r="1.8" fill="#0592d0"/>
<circle cx="55.53846153846153" cy="361" r="1.8" fill="#0592d0"/>
<circle cx="55.53846153846153" cy="370.5" r="1.8" fill="#0592d0"/>
<circle cx="69.42307692307692" cy="361" r="1.8" fill="#0592d0"/>
<circle cx="69.42307692307692" cy="370.5" r="1.8" fill="#0592d0"/>
<circle cx="236.03846153846152" cy="361" r="1.8" fill="#0592d0"/>
<circle cx="236.03846153846152" cy="370.5" r="1.8" fill="#0592d0"/>
<circle cx="249.9230769230769" cy="361" r="1.8" fill="#0592d0"/>
<circle cx="249.9230769230769" cy="370.5" r="1.8" fill="#0592d0"/>
<circle cx="305.46153846153845" cy="361" r="1.8" fill="#0592d0"/>
<circle cx="305.46153846153845" cy="370.5" r="1.8" fill="#0592d0"/>
<circle cx="319.3461538461538" cy="361" r="1.8" fill="#0592d0"/>
<circle cx="319.3461538461538" cy="370.5" r="1.8" fill="#0592d0"/>
<circle cx="333.23076923076917" cy="361" r="1.8" fill="#0592d0"/>
<circle cx="333.23076923076917" cy="370.5" r="1.8" fill="#0592d0"/>
<circle cx="388.7692307692307" cy="361" r="1.8" fill="#0592d0"/>
<circle cx="388.7692307692307" cy="370.5" r="1.8" fill="#0592d0"/>
<circle cx="402.65384615384613" cy="361" r="1.8" fill="#0592d0"/>
<circle cx="402.65384615384613" cy="370.5" r="1.8" fill="#0592d0"/>
<circle cx="569.2692307692307" cy="361" r="1.8" fill="#0592d0"/>
<circle cx="569.2692307692307" cy="370.5" r="1.8" fill="#0592d0"/>
<circle cx="583.1538461538461" cy="361" r="1.8" fill="#0592d0"/>
<circle cx="583.1538461538461" cy="370.5" r="1.8" fill="#0592d0"/>
<circle cx="55.53846153846153" cy="380" r="1.8" fill="#0592d0"/>
<circle cx="55.53846153846153" cy="389.5" r="1.8" fill="#0592d0"/>
<circle cx="69.42307692307692" cy="380" r="1.8" fill="#0592d0"/>
<circle cx="69.42307692307692" cy="389.5" r="1.8" fill="#0592d0"/>
<circle cx="138.84615384615384" cy="380" r="1.8" fill="#0592d0"/>
<circle cx="138.84615384615384" cy="389.5" r="1.8" fill="#0592d0"/>
<circle cx="152.73076923076923" cy="380" r="1.8" fill="#0592d0"/>
<circle cx="152.73076923076923" cy="389.5" r="1.8" fill="#0592d0"/>
<circle cx="166.61538461538458" cy="380" r="1.8" fill="#0592d0"/>
<circle cx="166.61538461538458" cy="389.5" r="1.8" fill="#0592d0"/>
<circle cx="180.49999999999997" cy="380" r="1.8" fill="#0592d0"/>
<circle cx="180.49999999999997" cy="389.5" r="1.8" fill="#0592d0"/>
<circle cx="236.03846153846152" cy="380" r="1.8" fill="#0592d0"/>
<circle cx="236.03846153846152" cy="389.5" r="1.8" fill="#0592d0"/>
<circle cx="249.9230769230769" cy="380" r="1.8" fill="#0592d0"/>
<circle cx="249.9230769230769" cy="389.5" r="1.8" fill="#0592d0"/>
<circle cx="263.80769230769226" cy="380" r="1.8" fill="#0592d0"/>
<circle cx="263.80769230769226" cy="389.5" r="1.8" fill="#0592d0"/>
<circle cx="305.46153846153845" cy="380" r="1.8" fill="#0592d0"/>
<circle cx="305.46153846153845" cy="389.5" r="1.8" fill="#0592d0"/>
<circle cx="319.3461538461538" cy="380" r="1.8" fill="#0592d0"/>
<circle cx="319.3461538461538" cy="389.5" r="1.8" fill="#0592d0"/>
<circle cx="333.23076923076917" cy="380" r="1.8" fill="#0592d0"/>
<circle cx="333.23076923076917" cy="389.5" r="1.8" fill="#0592d0"/>
<circle cx="374.88461538461536" cy="380" r="1.8" fill="#0592d0"/>
<circle cx="374.88461538461536" cy="389.5" r="1.8" fill="#0592d0"/>
<circle cx="388.7692307692307" cy="380" r="1.8" fill="#0592d0"/>
<circle cx="388.7692307692307" cy="389.5" r="1.8" fill="#0592d0"/>
<circle cx="402.65384615384613" cy="380" r="1.8" fill="#0592d0"/>
<circle cx="402.65384615384613" cy="389.5" r="1.8" fill="#0592d0"/>
<circle cx="458.1923076923076" cy="380" r="1.8" fill="#0592d0"/>
<circle cx="458.1923076923076" cy="389.5" r="1.8" fill="#0592d0"/>
<circle cx="472.07692307692304" cy="380" r="1.8" fill="#0592d0"/>
<circle cx="472.07692307692304" cy="389.5" r="1.8" fill="#0592d0"/>
<circle cx="485.9615384615384" cy="380" r="1.8" fill="#0592d0"/>
<circle cx="485.9615384615384" cy="389.5" r="1.8" fill="#0592d0"/>
<circle cx="499.8461538461538" cy="380" r="1.8" fill="#0592d0"/>
<circle cx="499.8461538461538" cy="389.5" r="1.8" fill="#0592d0"/>
<circle cx="569.2692307692307" cy="380" r="1.8" fill="#0592d0"/>
<circle cx="569.2692307692307" cy="389.5" r="1.8" fill="#0592d0"/>
<circle cx="583.1538461538461" cy="380" r="1.8" fill="#0592d0"/>
<circle cx="583.1538461538461" cy="389.5" r="1.8" fill="#0592d0"/>
<circle cx="55.53846153846153" cy="399" r="1.8" fill="#0592d0"/>
<circle cx="55.53846153846153" cy="408.5" r="1.8" fill="#0592d0"/>
<circle cx="69.42307692307692" cy="399" r="1.8" fill="#0592d0"/>
<circle cx="69.42307692307692" cy="408.5" r="1.8" fill="#0592d0"/>
<circle cx="111.07692307692307" cy="399" r="1.8" fill="#0592d0"/>
<circle cx="111.07692307692307" cy="408.5" r="1.8" fill="#0592d0"/>
<circle cx="124.96153846153845" cy="399" r="1.8" fill="#0592d0"/>
<circle cx="124.96153846153845" cy="408.5" r="1.8" fill="#0592d0"/>
<circle cx="138.84615384615384" cy="399" r="1.8" fill="#0592d0"/>
<circle cx="138.84615384615384" cy="408.5" r="1.8" fill="#0592d0"/>
<circle cx="152.73076923076923" cy="399" r="1.8" fill="#0592d0"/>
<circle cx="152.73076923076923" cy="408.5" r="1.8" fill="#0592d0"/>
<circle cx="166.61538461538458" cy="399" r="1.8" fill="#0592d0"/>
<circle cx="166.61538461538458" cy="408.5" r="1.8" fill="#0592d0"/>
<circle cx="249.9230769230769" cy="399" r="1.8" fill="#0592d0"/>
<circle cx="249.9230769230769" cy="408.5" r="1.8" fill="#0592d0"/>
<circle cx="263.80769230769226" cy="399" r="1.8" fill="#0592d0"/>
<circle cx="263.80769230769226" cy="408.5" r="1.8" fill="#0592d0"/>
<circle cx="277.6923076923077" cy="399" r="1.8" fill="#0592d0"/>
<circle cx="277.6923076923077" cy="408.5" r="1.8" fill="#0592d0"/>
<circle cx="305.46153846153845" cy="399" r="1.8" fill="#0592d0"/>
<circle cx="305.46153846153845" cy="408.5" r="1.8" fill="#0592d0"/>
<circle cx="319.3461538461538" cy="399" r="1.8" fill="#0592d0"/>
<circle cx="319.3461538461538" cy="408.5" r="1.8" fill="#0592d0"/>
<circle cx="333.23076923076917" cy="399" r="1.8" fill="#0592d0"/>
<circle cx="333.23076923076917" cy="408.5" r="1.8" fill="#0592d0"/>
<circle cx="360.99999999999994" cy="399" r="1.8" fill="#0592d0"/>
<circle cx="360.99999999999994" cy="408.5" r="1.8" fill="#0592d0"/>
<circle cx="374.88461538461536" cy="399" r="1.8" fill="#0592d0"/>
<circle cx="374.88461538461536" cy="408.5" r="1.8" fill="#0592d0"/>
<circle cx="388.7692307692307" cy="399" r="1.8" fill="#0592d0"/>
<circle cx="388.7692307692307" cy="408.5" r="1.8" fill="#0592d0"/>
<circle cx="472.07692307692304" cy="399" r="1.8" fill="#0592d0"/>
<circle cx="472.07692307692304" cy="408.5" r="1.8" fill="#0592d0"/>
<circle cx="485.9615384615384" cy="399" r="1.8" fill="#0592d0"/>
<circle cx="485.9615384615384" cy="408.5" r="1.8" fill="#0592d0"/>
<circle cx="499.8461538461538" cy="399" r="1.8" fill="#0592d0"/>
<circle cx="499.8461538461538" cy="408.5" r="1.8" fill="#0592d0"/>
<circle cx="513.7307692307692" cy="399" r="1.8" fill="#0592d0"/>
<circle cx="513.7307692307692" cy="408.5" r="1.8" fill="#0592d0"/>
<circle cx="527.6153846153845" cy="399" r="1.8" fill="#0592d0"/>
<circle cx="527.6153846153845" cy="408.5" r="1.8" fill="#0592d0"/>
<circle cx="569.2692307692307" cy="399" r="1.8" fill="#0592d0"/>
<circle cx="569.2692307692307" cy="408.5" r="1.8" fill="#0592d0"/>
<circle cx="583.1538461538461" cy="399" r="1.8" fill="#0592d0"/>
<circle cx="583.1538461538461" cy="408.5" r="1.8" fill="#0592d0"/>
<circle cx="55.53846153846153" cy="418" r="1.8" fill="#0592d0"/>
<circle cx="55.53846153846153" cy="427.5" r="1.8" fill="#0592d0"/>
<circle cx="69.42307692307692" cy="418" r="1.8" fill="#0592d0"/>
<circle cx="69.42307692307692" cy="427.5" r="1.8" fill="#0592d0"/>
<circle cx="83.30769230769229" cy="418" r="1.8" fill="#0592d0"/>
<circle cx="83.30769230769229" cy="427.5" r="1.8" fill="#0592d0"/>
<circle cx="97.19230769230768" cy="418" r="1.8" fill="#0592d0"/>
<circle cx="97.19230769230768" cy="427.5" r="1.8" fill="#0592d0"/>
<circle cx="111.07692307692307" cy="418" r="1.8" fill="#0592d0"/>
<circle cx="111.07692307692307" cy="427.5" r="1.8" fill="#0592d0"/>
<circle cx="124.96153846153845" cy="418" r="1.8" fill="#0592d0"/>
<circle cx="124.96153846153845" cy="427.5" r="1.8" fill="#0592d0"/>
<circle cx="263.80769230769226" cy="418" r="1.8" fill="#0592d0"/>
<circle cx="263.80769230769226" cy="427.5" r="1.8" fill="#0592d0"/>
<circle cx="277.6923076923077" cy="418" r="1.8" fill="#0592d0"/>
<circle cx="277.6923076923077" cy="427.5" r="1.8" fill="#0592d0"/>
<circle cx="291.57692307692304" cy="418" r="1.8" fill="#0592d0"/>
<circle cx="291.57692307692304" cy="427.5" r="1.8" fill="#0592d0"/>
<circle cx="305.46153846153845" cy="418" r="1.8" fill="#0592d0"/>
<circle cx="305.46153846153845" cy="427.5" r="1.8" fill="#0592d0"/>
<circle cx="319.3461538461538" cy="418" r="1.8" fill="#0592d0"/>
<circle cx="319.3461538461538" cy="427.5" r="1.8" fill="#0592d0"/>
<circle cx="333.23076923076917" cy="418" r="1.8" fill="#0592d0"/>
<circle cx="333.23076923076917" cy="427.5" r="1.8" fill="#0592d0"/>
<circle cx="347.1153846153846" cy="418" r="1.8" fill="#0592d0"/>
<circle cx="347.1153846153846" cy="427.5" r="1.8" fill="#0592d0"/>
<circle cx="360.99999999999994" cy="418" r="1.8" fill="#0592d0"/>
<circle cx="360.99999999999994" cy="427.5" r="1.8" fill="#0592d0"/>
<circle cx="374.88461538461536" cy="418" r="1.8" fill="#0592d0"/>
<circle cx="374.88461538461536" cy="427.5" r="1.8" fill="#0592d0"/>
<circle cx="513.7307692307692" cy="418" r="1.8" fill="#0592d0"/>
<circle cx="513.7307692307692" cy="427.5" r="1.8" fill="#0592d0"/>
<circle cx="527.6153846153845" cy="418" r="1.8" fill="#0592d0"/>
<circle cx="527.6153846153845" cy="427.5" r="1.8" fill="#0592d0"/>
<circle cx="541.5" cy="418" r="1.8" fill="#0592d0"/>
<circle cx="541.5" cy="427.5" r="1.8" fill="#0592d0"/>
<circle cx="555.3846153846154" cy="418" r="1.8" fill="#0592d0"/>
<circle cx="555.3846153846154" cy="427.5" r="1.8" fill="#0592d0"/>
<circle cx="569.2692307692307" cy="418" r="1.8" fill="#0592d0"/>
<circle cx="569.2692307692307" cy="427.5" r="1.8" fill="#0592d0"/>
<circle cx="583.1538461538461" cy="418" r="1.8" fill="#0592d0"/>
<circle cx="583.1538461538461" cy="427.5" r="1.8" fill="#0592d0"/>
<circle cx="55.53846153846153" cy="437" r="1.8" fill="#0592d0"/>
<circle cx="55.53846153846153" cy="446.5" r="1.8" fill="#0592d0"/>
<circle cx="69.42307692307692" cy="437" r="1.8" fill="#0592d0"/>
<circle cx="69.42307692307692" cy="446.5" r="1.8" fill="#0592d0"/>
<circle cx="83.30769230769229" cy="437" r="1.8" fill="#0592d0"/>
<circle cx="83.30769230769229" cy="446.5" r="1.8" fill="#0592d0"/>
<circle cx="97.19230769230768" cy="437" r="1.8" fill="#0592d0"/>
<circle cx="97.19230769230768" cy="446.5" r="1.8" fill="#0592d0"/>
<circle cx="277.6923076923077" cy="437" r="1.8" fill="#0592d0"/>
<circle cx="277.6923076923077" cy="446.5" r="1.8" fill="#0592d0"/>
<circle cx="291.57692307692304" cy="437" r="1.8" fill="#0592d0"/>
<circle cx="291.57692307692304" cy="446.5" r="1.8" fill="#0592d0"/>
<circle cx="305.46153846153845" cy="437" r="1.8" fill="#0592d0"/>
<circle cx="305.46153846153845" cy="446.5" r="1.8" fill="#0592d0"/>
<circle cx="319.3461538461538" cy="437" r="1.8" fill="#0592d0"/>
<circle cx="319.3461538461538" cy="446.5" r="1.8" fill="#0592d0"/>
<circle cx="333.23076923076917" cy="437" r="1.8" fill="#0592d0"/>
<circle cx="333.23076923076917" cy="446.5" r="1.8" fill="#0592d0"/>
<circle cx="347.1153846153846" cy="437" r="1.8" fill="#0592d0"/>
<circle cx="347.1153846153846" cy="446.5" r="1.8" fill="#0592d0"/>
<circle cx="360.99999999999994" cy="437" r="1.8" fill="#0592d0"/>
<circle cx="360.99999999999994" cy="446.5" r="1.8" fill="#0592d0"/>
<circle cx="541.5" cy="437" r="1.8" fill="#0592d0"/>
<circle cx="541.5" cy="446.5" r="1.8" fill="#0592d0"/>
<circle cx="555.3846153846154" cy="437" r="1.8" fill="#0592d0"/>
<circle cx="555.3846153846154" cy="446.5" r="1.8" fill="#0592d0"/>
<circle cx="569.2692307692307" cy="437" r="1.8" fill="#0592d0"/>
<circle cx="569.2692307692307" cy="446.5" r="1.8" fill="#0592d0"/>
<circle cx="583.1538461538461" cy="437" r="1.8" fill="#0592d0"/>
<circle cx="583.1538461538461" cy="446.5" r="1.8" fill="#0592d0"/>
<circle cx="69.42307692307692" cy="456" r="1.8" fill="#0592d0"/>
<circle cx="69.42307692307692" cy="465.5" r="1.8" fill="#0592d0"/>
<circle cx="83.30769230769229" cy="456" r="1.8" fill="#0592d0"/>
<circle cx="83.30769230769229" cy="465.5" r="1.8" fill="#0592d0"/>
<circle cx="97.19230769230768" cy="456" r="1.8" fill="#0592d0"/>
<circle cx="97.19230769230768" cy="465.5" r="1.8" fill="#0592d0"/>
<circle cx="111.07692307692307" cy="456" r="1.8" fill="#0592d0"/>
<circle cx="111.07692307692307" cy="465.5" r="1.8" fill="#0592d0"/>
<circle cx="124.96153846153845" cy="456" r="1.8" fill="#0592d0"/>
<circle cx="124.96153846153845" cy="465.5" r="1.8" fill="#0592d0"/>
<circle cx="291.57692307692304" cy="456" r="1.8" fill="#0592d0"/>
<circle cx="291.57692307692304" cy="465.5" r="1.8" fill="#0592d0"/>
<circle cx="305.46153846153845" cy="456" r="1.8" fill="#0592d0"/>
<circle cx="305.46153846153845" cy="465.5" r="1.8" fill="#0592d0"/>
<circle cx="319.3461538461538" cy="456" r="1.8" fill="#0592d0"/>
<circle cx="319.3461538461538" cy="465.5" r="1.8" fill="#0592d0"/>
<circle cx="333.23076923076917" cy="456" r="1.8" fill="#0592d0"/>
<circle cx="333.23076923076917" cy="465.5" r="1.8" fill="#0592d0"/>
<circle cx="347.1153846153846" cy="456" r="1.8" fill="#0592d0"/>
<circle cx="347.1153846153846" cy="465.5" r="1.8" fill="#0592d0"/>
<circle cx="513.7307692307692" cy="456" r="1.8" fill="#0592d0"/>
<circle cx="513.7307692307692" cy="465.5" r="1.8" fill="#0592d0"/>
<circle cx="527.6153846153845" cy="456" r="1.8" fill="#0592d0"/>
<circle cx="527.6153846153845" cy="465.5" r="1.8" fill="#0592d0"/>
<circle cx="541.5" cy="456" r="1.8" fill="#0592d0"/>
<circle cx="541.5" cy="465.5" r="1.8" fill="#0592d0"/>
<circle cx="555.3846153846154" cy="456" r="1.8" fill="#0592d0"/>
<circle cx="555.3846153846154" cy="465.5" r="1.8" fill="#0592d0"/>
<circle cx="569.2692307692307" cy="456" r="1.8" fill="#0592d0"/>
<circle cx="569.2692307692307" cy="465.5" r="1.8" fill="#0592d0"/>
<circle cx="111.07692307692307" cy="475" r="1.8" fill="#0592d0"/>
<circle cx="111.07692307692307" cy="484.5" r="1.8" fill="#0592d0"/>
<circle cx="124.96153846153845" cy="475" r="1.8" fill="#0592d0"/>
<circle cx="124.96153846153845" cy="484.5" r="1.8" fill="#0592d0"/>
<circle cx="138.84615384615384" cy="475" r="1.8" fill="#0592d0"/>
<circle cx="138.84615384615384" cy="484.5" r="1.8" fill="#0592d0"/>
<circle cx="152.73076923076923" cy="475" r="1.8" fill="#0592d0"/>
<circle cx="152.73076923076923" cy="484.5" r="1.8" fill="#0592d0"/>
<circle cx="166.61538461538458" cy="475" r="1.8" fill="#0592d0"/>
<circle cx="166.61538461538458" cy="484.5" r="1.8" fill="#0592d0"/>
<circle cx="305.46153846153845" cy="475" r="1.8" fill="#0592d0"/>
<circle cx="305.46153846153845" cy="484.5" r="1.8" fill="#0592d0"/>
<circle cx="319.3461538461538" cy="475" r="1.8" fill="#0592d0"/>
<circle cx="319.3461538461538" cy="484.5" r="1.8" fill="#0592d0"/>
<circle cx="333.23076923076917" cy="475" r="1.8" fill="#0592d0"/>
<circle cx="333.23076923076917" cy="484.5" r="1.8" fill="#0592d0"/>
<circle cx="472.07692307692304" cy="475" r="1.8" fill="#0592d0"/>
<circle cx="472.07692307692304" cy="484.5" r="1.8" fill="#0592d0"/>
<circle cx="485.9615384615384" cy="475" r="1.8" fill="#0592d0"/>
<circle cx="485.9615384615384" cy="484.5" r="1.8" fill="#0592d0"/>
<circle cx="499.8461538461538" cy="475" r="1.8" fill="#0592d0"/>
<circle cx="499.8461538461538" cy="484.5" r="1.8" fill="#0592d0"/>
<circle cx="513.7307692307692" cy="475" r="1.8" fill="#0592d0"/>
<circle cx="513.7307692307692" cy="484.5" r="1.8" fill="#0592d0"/>
<circle cx="527.6153846153845" cy="475" r="1.8" fill="#0592d0"/>
<circle cx="527.6153846153845" cy="484.5" r="1.8" fill="#0592d0"/>
<circle cx="152.73076923076923" cy="494" r="1.8" fill="#0592d0"/>
<circle cx="152.73076923076923" cy="503.5" r="1.8" fill="#0592d0"/>
<circle cx="166.61538461538458" cy="494" r="1.8" fill="#0592d0"/>
<circle cx="166.61538461538458" cy="503.5" r="1.8" fill="#0592d0"/>
<circle cx="180.49999999999997" cy="494" r="1.8" fill="#0592d0"/>
<circle cx="180.49999999999997" cy="503.5" r="1.8" fill="#0592d0"/>
<circle cx="194.38461538461536" cy="494" r="1.8" fill="#0592d0"/>
<circle cx="194.38461538461536" cy="503.5" r="1.8" fill="#0592d0"/>
<circle cx="208.26923076923075" cy="494" r="1.8" fill="#0592d0"/>
<circle cx="208.26923076923075" cy="503.5" r="1.8" fill="#0592d0"/>
<circle cx="319.3461538461538" cy="494" r="1.8" fill="#0592d0"/>
<circle cx="319.3461538461538" cy="503.5" r="1.8" fill="#0592d0"/>
<circle cx="430.4230769230769" cy="494" r="1.8" fill="#0592d0"/>
<circle cx="430.4230769230769" cy="503.5" r="1.8" fill="#0592d0"/>
<circle cx="444.30769230769226" cy="494" r="1.8" fill="#0592d0"/>
<circle cx="444.30769230769226" cy="503.5" r="1.8" fill="#0592d0"/>
<circle cx="458.1923076923076" cy="494" r="1.8" fill="#0592d0"/>
<circle cx="458.1923076923076" cy="503.5" r="1.8" fill="#0592d0"/>
<circle cx="472.07692307692304" cy="494" r="1.8" fill="#0592d0"/>
<circle cx="472.07692307692304" cy="503.5" r="1.8" fill="#0592d0"/>
<circle cx="485.9615384615384" cy="494" r="1.8" fill="#0592d0"/>
<circle cx="485.9615384615384" cy="503.5" r="1.8" fill="#0592d0"/>
<circle cx="180.49999999999997" cy="513" r="1.8" fill="#0592d0"/>
<circle cx="180.49999999999997" cy="522.5" r="1.8" fill="#0592d0"/>
<circle cx="194.38461538461536" cy="513" r="1.8" fill="#0592d0"/>
<circle cx="194.38461538461536" cy="522.5" r="1.8" fill="#0592d0"/>
<circle cx="208.26923076923075" cy="513" r="1.8" fill="#0592d0"/>
<circle cx="208.26923076923075" cy="522.5" r="1.8" fill="#0592d0"/>
<circle cx="222.15384615384613" cy="513" r="1.8" fill="#0592d0"/>
<circle cx="222.15384615384613" cy="522.5" r="1.8" fill="#0592d0"/>
<circle cx="236.03846153846152" cy="513" r="1.8" fill="#0592d0"/>
<circle cx="236.03846153846152" cy="522.5" r="1.8" fill="#0592d0"/>
<circle cx="402.65384615384613" cy="513" r="1.8" fill="#0592d0"/>
<circle cx="402.65384615384613" cy="522.5" r="1.8" fill="#0592d0"/>
<circle cx="416.5384615384615" cy="513" r="1.8" fill="#0592d0"/>
<circle cx="416.5384615384615" cy="522.5" r="1.8" fill="#0592d0"/>
<circle cx="430.4230769230769" cy="513" r="1.8" fill="#0592d0"/>
<circle cx="430.4230769230769" cy="522.5" r="1.8" fill="#0592d0"/>
<circle cx="444.30769230769226" cy="513" r="1.8" fill="#0592d0"/>
<circle cx="444.30769230769226" cy="522.5" r="1.8" fill="#0592d0"/>
<circle cx="458.1923076923076" cy="513" r="1.8" fill="#0592d0"/>
<circle cx="458.1923076923076" cy="522.5" r="1.8" fill="#0592d0"/>
<circle cx="222.15384615384613" cy="532" r="1.8" fill="#0592d0"/>
<circle cx="222.15384615384613" cy="541.5" r="1.8" fill="#0592d0"/>
<circle cx="236.03846153846152" cy="532" r="1.8" fill="#0592d0"/>
<circle cx="236.03846153846152" cy="541.5" r="1.8" fill="#0592d0"/>
<circle cx="249.9230769230769" cy="532" r="1.8" fill="#0592d0"/>
<circle cx="249.9230769230769" cy="541.5" r="1.8" fill="#0592d0"/>
<circle cx="263.80769230769226" cy="532" r="1.8" fill="#0592d0"/>
<circle cx="263.80769230769226" cy="541.5" r="1.8" fill="#0592d0"/>
<circle cx="277.6923076923077" cy="532" r="1.8" fill="#0592d0"/>
<circle cx="277.6923076923077" cy="541.5" r="1.8" fill="#0592d0"/>
<circle cx="360.99999999999994" cy="532" r="1.8" fill="#0592d0"/>
<circle cx="360.99999999999994" cy="541.5" r="1.8" fill="#0592d0"/>
<circle cx="374.88461538461536" cy="532" r="1.8" fill="#0592d0"/>
<circle cx="374.88461538461536" cy="541.5" r="1.8" fill="#0592d0"/>
<circle cx="388.7692307692307" cy="532" r="1.8" fill="#0592d0"/>
<circle cx="388.7692307692307" cy="541.5" r="1.8" fill="#0592d0"/>
<circle cx="402.65384615384613" cy="532" r="1.8" fill="#0592d0"/>
<circle cx="402.65384615384613" cy="541.5" r="1.8" fill="#0592d0"/>
<circle cx="416.5384615384615" cy="532" r="1.8" fill="#0592d0"/>
<circle cx="416.5384615384615" cy="541.5" r="1.8" fill="#0592d0"/>
<circle cx="263.80769230769226" cy="551" r="1.8" fill="#0592d0"/>
<circle cx="263.80769230769226" cy="560.5" r="1.8" fill="#0592d0"/>
<circle cx="277.6923076923077" cy="551" r="1.8" fill="#0592d0"/>
<circle cx="277.6923076923077" cy="560.5" r="1.8" fill="#0592d0"/>
<circle cx="291.57692307692304" cy="551" r="1.8" fill="#0592d0"/>
<circle cx="291.57692307692304" cy="560.5" r="1.8" fill="#0592d0"/>
<circle cx="305.46153846153845" cy="551" r="1.8" fill="#0592d0"/>
<circle cx="305.46153846153845" cy="560.5" r="1.8" fill="#0592d0"/>
<circle cx="319.3461538461538" cy="551" r="1.8" fill="#0592d0"/>
<circle cx="319.3461538461538" cy="560.5" r="1.8" fill="#0592d0"/>
<circle cx="333.23076923076917" cy="551" r="1.8" fill="#0592d0"/>
<circle cx="333.23076923076917" cy="560.5" r="1.8" fill="#0592d0"/>
<circle cx="347.1153846153846" cy="551" r="1.8" fill="#0592d0"/>
<circle cx="347.1153846153846" cy="560.5" r="1.8" fill="#0592d0"/>
<circle cx="360.99999999999994" cy="551" r="1.8" fill="#0592d0"/>
<circle cx="360.99999999999994" cy="560.5" r="1.8" fill="#0592d0"/>
<circle cx="374.88461538461536" cy="551" r="1.8" fill="#0592d0"/>
<circle cx="374.88461538461536" cy="560.5" r="1.8" fill="#0592d0"/>
<circle cx="291.57692307692304" cy="570" r="1.8" fill="#0592d0"/>
<circle cx="291.57692307692304" cy="579.5" r="1.8" fill="#0592d0"/>
<circle cx="305.46153846153845" cy="570" r="1.8" fill="#0592d0"/>
<circle cx="305.46153846153845" cy="579.5" r="1.8" fill="#0592d0"/>
<circle cx="319.3461538461538" cy="570" r="1.8" fill="#0592d0"/>
<circle cx="319.3461538461538" cy="579.5" r="1.8" fill="#0592d0"/>
<circle cx="333.23076923076917" cy="570" r="1.8" fill="#0592d0"/>
<circle cx="333.23076923076917" cy="579.5" r="1.8" fill="#0592d0"/>
<circle cx="347.1153846153846" cy="570" r="1.8" fill="#0592d0"/>
<circle cx="347.1153846153846" cy="579.5" r="1.8" fill="#0592d0"/>
</svg>