<?xml version="1.0" encoding="UTF-8" standalone="no"?>
<svg xmlns="http://www.w3.org/2000/svg" version="1.1" height="567" width="700">
<desc>Ingress logos - By lll9p, No rights reserved, lll9p.china@gmail.com, http://imtho.com</desc>
<rect x="-2000%" y="-2000%" height="4000%" width="4000%" fill="black"/>
<circle cx="308" cy="18" r="1.8" fill="#0592d0"/>
<circle cx="322" cy="18" r="1.8" fill="#0592d0"/>
<circle cx="336" cy="18" r="1.8" fill="#0592d0"/>
<circle cx="308" cy="27" r="1.8" fill="#0592d0"/>
<circle cx="322" cy="27" r="1.8" fill="#0592d0"/>
<circle cx="336" cy="27" r="1.8" fill="#0592d0"/>
<circle cx="266" cy="36" r="1.8" fill="#0592d0"/>
<circle cx="280" cy="36" r="1.8" fill="#0592d0"/>
<circle cx="294" cy="36" r="1.8" fill="#0592d0"/>
<circle cx="308" cy="36" r="1.8" fill="#0592d0"/>
<circle cx="322" cy="36" r="1.8" fill="#0592d0"/>
<circle cx="336" cy="36" r="1.8" fill="#0592d0"/>
<circle cx="350" cy="36" r="1.8" fill="#0592d0"/>
<circle cx="364" cy="36" r="1.8" fill="#0592d0"/>
<circle cx="378" cy="36" r="1.8" fill="#0592d0"/>
<circle cx="266" cy="45" r="1.8" fill="#0592d0"/>
<circle cx="280" cy="45" r="1.8" fill="#0592d0"/>
<circle cx="294" cy="45" r="1.8" fill="#0592d0"/>
<circle cx="308" cy="45" r="1.8" fill="#0592d0"/>
<circle cx="322" cy="45" r="1.8" fill="#0592d0"/>
<circle cx="336" cy="45" r="1.8" fill="#0592d0"/>
<circle cx="350" cy="45" r="1.8" fill="#0592d0"/>
<circle cx="364" cy="45" r="1.8" fill="#0592d0"/>
<circle cx="378" cy="45" r="1.8" fill="#0592d0"/>
<circle cx="224" cy="54" r="1.8" fill="#0592d0"/>
<circle cx="238" cy="54" r="1.8" fill="#0592d0"/>
<circle cx="252" cy="54" r="1.8" fill="#0592d0"/>
<circle cx="266" cy="54" r="1.8" fill="#0592d0"/>
<circle cx="280" cy="54" r="1.8" fill="#0592d0"/>
<circle cx="308" cy="54" r="1.8" fill="#0592d0"/>
<circle cx="322" cy="54" r="1.8" fill="#0592d0"/>
<circle cx="336" cy="54" r="1.8" fill="#0592d0"/>
<circle cx="364" cy="54" r="1.8" fill="#0592d0"/>
<circle cx="378" cy="54" r="1.8" fill="#0592d0"/>
<circle cx="392" cy="54" r="1.8" fill="#0592d0"/>
<circle cx="406" cy="54" r="1.8" fill="#0592d0"/>
<circle cx="420" cy="54" r="1.8" fill="#0592d0"/>
<circle cx="224" cy="63" r="1.8" fill="#0592d0"/>
<circle cx="238" cy="63" r="1.8" fill="#0592d0"/>
<circle cx="252" cy="63" r="1.8" fill="#0592d0"/>
<circle cx="266" cy="63" r="1.8" fill="#0592d0"/>
<circle cx="280" cy="63" r="1.8" fill="#0592d0"/>
<circle cx="308" cy="63" r="1.8" fill="#0592d0"/>
<circle cx="322" cy="63" r="1.8" fill="#0592d0"/>
<circle cx="336" cy="63" r="1.8" fill="#0592d0"/>
<circle cx="364" cy="63" r="1.8" fill="#0592d0"/>
<circle cx="378" cy="63" r="1.8" fill="#0592d0"/>
<circle cx="392" cy="63" r="1.8" fill="#0592d0"/>
<circle cx="406" cy="63" r="1.8" fill="#0592d0"/>
<circle cx="420" cy="63" r="1.8" fill="#0592d0"/>
<circle cx="196" cy="72" r="1.8" fill="#0592d0"/>
<circle cx="210" cy="72" r="1.8" fill="#0592d0"/>
<circle cx="224" cy="72" r="1.8" fill="#0592d0"/>
<circle cx="238" cy="72" r="1.8" fill="#0592d0"/>
<circle cx="252" cy="72" r="1.8" fill="#0592d0"/>
<circle cx="308" cy="72" r="1.8" fill="#0592d0"/>
<circle cx="322" cy="72" r="1.8" fill="#0592d0"/>
<circle cx="336" cy="72" r="1.8" fill="#0592d0"/>
<circle cx="392" cy="72" r="1.8" fill="#0592d0"/>
<circle cx="406" cy="72" r="1.8" fill="#0592d0"/>
<circle cx="420" cy="72" r="1.8" fill="#0592d0"/>
<circle cx="434" cy="72" r="1.8" fill="#0592d0"/>
<circle cx="448" cy="72" r="1.8" fill="#0592d0"/>
<circle cx="196" cy="81" r="1.8" fill="#0592d0"/>
<circle cx="210" cy="81" r="1.8" fill="#0592d0"/>
<circle cx="224" cy="81" r="1.8" fill="#0592d0"/>
<circle cx="238" cy="81" r="1.8" fill="#0592d0"/>
<circle cx="252" cy="81" r="1.8" fill="#0592d0"/>
<circle cx="308" cy="81" r="1.8" fill="#0592d0"/>
<circle cx="322" cy="81" r="1.8" fill="#0592d0"/>
<circle cx="336" cy="81" r="1.8" fill="#0592d0"/>
<circle cx="392" cy="81" r="1.8" fill="#0592d0"/>
<circle cx="406" cy="81" r="1.8" fill="#0592d0"/>
<circle cx="420" cy="81" r="1.8" fill="#0592d0"/>
<circle cx="434" cy="81" r="1.8" fill="#0592d0"/>
<circle cx="448" cy="81" r="1.8" fill="#0592d0"/>
<circle cx="154" cy="90" r="1.8" fill="#0592d0"/>
<circle cx="168" cy="90" r="1.8" fill="#0592d0"/>
<circle cx="182" cy="90" r="1.8" fill="#0592d0"/>
<circle cx="196" cy="90" r="1.8" fill="#0592d0"/>
<circle cx="210" cy="90" r="1.8" fill="#0592d0"/>
<circle cx="308" cy="90" r="1.8" fill="#0592d0"/>
<circle cx="322" cy="90" r="1.8" fill="#0592d0"/>
<circle cx="336" cy="90" r="1.8" fill="#0592d0"/>
<circle cx="434" cy="90" r="1.8" fill="#0592d0"/>
<circle cx="448" cy="90" r="1.8" fill="#0592d0"/>
<circle cx="462" cy="90" r="1.8" fill="#0592d0"/>
<circle cx="476" cy="90" r="1.8" fill="#0592d0"/>
<circle cx="490" cy="90" r="1.8" fill="#0592d0"/>
<circle cx="154" cy="99" r="1.8" fill="#0592d0"/>
<circle cx="168" cy="99" r="1.8" fill="#0592d0"/>
<circle cx="182" cy="99" r="1.8" fill="#0592d0"/>
<circle cx="196" cy="99" r="1.8" fill="#0592d0"/>
<circle cx="210" cy="99" r="1.8" fill="#0592d0"/>
<circle cx="308" cy="99" r="1.8" fill="#0592d0"/>
<circle cx="322" cy="99" r="1.8" fill="#0592d0"/>
<circle cx="336" cy="99" r="1.8" fill="#0592d0"/>
<circle cx="434" cy="99" r="1.8" fill="#0592d0"/>
<circle cx="448" cy="99" r="1.8" fill="#0592d0"/>
<circle cx="462" cy="99" r="1.8" fill="#0592d0"/>
<circle cx="476" cy="99" r="1.8" fill="#0592d0"/>
<circle cx="490" cy="99" r="1.8" fill="#0592d0"/>
<circle cx="112" cy="108" r="1.8" fill="#0592d0"/>
<circle cx="126" cy="108" r="1.8" fill="#0592d0"/>
<circle cx="140" cy="108" r="1.8" fill="#0592d0"/>
<circle cx="154" cy="108" r="1.8" fill="#0592d0"/>
<circle cx="168" cy="108" r="1.8" fill="#0592d0"/>
<circle cx="308" cy="108" r="1.8" fill="#0592d0"/>
<circle cx="322" cy="108" r="1.8" fill="#0592d0"/>
<circle cx="336" cy="108" r="1.8" fill="#0592d0"/>
<circle cx="476" cy="108" r="1.8" fill="#0592d0"/>
<circle cx="490" cy="108" r="1.8" fill="#0592d0"/>
<circle cx="504" cy="108" r="1.8" fill="#0592d0"/>
<circle cx="518" cy="108" r="1.8" fill="#0592d0"/>
<circle cx="532" cy="108" r="1.8" fill="#0592d0"/>
<circle cx="112" cy="117" r="1.8" fill="#0592d0"/>
<circle cx="126" cy="117" r="1.8" fill="#0592d0"/>
<circle cx="140" cy="117" r="1.8" fill="#0592d0"/>
<circle cx="154" cy="117" r="1.8" fill="#0592d0"/>
<circle cx="168" cy="117" r="1.8" fill="#0592d0"/>
<circle cx="308" cy="117" r="1.8" fill="#0592d0"/>
<circle cx="322" cy="117" r="1.8" fill="#0592d0"/>
<circle cx="336" cy="117" r="1.8" fill="#0592d0"/>
<circle cx="476" cy="117" r="1.8" fill="#0592d0"/>
<circle cx="490" cy="117" r="1.8" fill="#0592d0"/>
<circle cx="504" cy="117" r="1.8" fill="#0592d0"/>
<circle cx="518" cy="117" r="1.8" fill="#0592d0"/>
<circle cx="532" cy="117" r="1.8" fill="#0592d0"/>
<circle cx="84" cy="126" r="1.8" fill="#0592d0"/>
<circle cx="98" cy="126" r="1.8" fill="#0592d0"/>
<circle cx="112" cy="126" r="1.8" fill="#0592d0"/>
<circle cx="126" cy="126" r="1.8" fill="#0592d0"/>
<circle cx="140" cy="126" r="1.8" fill="#0592d0"/>
<circle cx="308" cy="126" r="1.8" fill="#0592d0"/>
<circle cx="322" cy="126" r="1.8" fill="#0592d0"/>
<circle cx="336" cy="126" r="1.8" fill="#0592d0"/>
<circle cx="504" cy="126" r="1.8" fill="#0592d0"/>
<circle cx="518" cy="126" r="1.8" fill="#0592d0"/>
<circle cx="532" cy="126" r="1.8" fill="#0592d0"/>
<circle cx="546" cy="126" r="1.8" fill="#0592d0"/>
<circle cx="560" cy="126" r="1.8" fill="#0592d0"/>
<circle cx="84" cy="135" r="1.8" fill="#0592d0"/>
<circle cx="98" cy="135" r="1.8" fill="#0592d0"/>
<circle cx="112" cy="135" r="1.8" fill="#0592d0"/>
<circle cx="126" cy="135" r="1.8" fill="#0592d0"/>
<circle cx="140" cy="135" r="1.8" fill="#0592d0"/>
<circle cx="308" cy="135" r="1.8" fill="#0592d0"/>
<circle cx="322" cy="135" r="1.8" fill="#0592d0"/>
<circle cx="336" cy="135" r="1.8" fill="#0592d0"/>
<circle cx="504" cy="135" r="1.8" fill="#0592d0"/>
<circle cx="518" cy="135" r="1.8" fill="#0592d0"/>
<circle cx="532" cy="135" r="1.8" fill="#0592d0"/>
<circle cx="546" cy="135" r="1.8" fill="#0592d0"/>
<circle cx="560" cy="135" r="1.8" fill="#0592d0"/>
<circle cx="56" cy="144" r="1.8" fill="#0592d0"/>
<circle cx="70" cy="144" r="1.8" fill="#0592d0"/>
<circle cx="84" cy="144" r="1.8" fill="#0592d0"/>
<circle cx="98" cy="144" r="1.8" fill="#0592d0"/>
<circle cx="546" cy="144" r="1.8" fill="#0592d0"/>
<circle cx="560" cy="144" r="1.8" fill="#0592d0"/>
<circle cx="574" cy="144" r="1.8" fill="#0592d0"/>
<circle cx="588" cy="144" r="1.8" fill="#0592d0"/>
<circle cx="56" cy="153" r="1.8" fill="#0592d0"/>
<circle cx="70" cy="153" r="1.8" fill="#0592d0"/>
<circle cx="84" cy="153" r="1.8" fill="#0592d0"/>
<circle cx="98" cy="153" r="1.8" fill="#0592d0"/>
<circle cx="546" cy="153" r="1.8" fill="#0592d0"/>
<circle cx="560" cy="153" r="1.8" fill="#0592d0"/>
<circle cx="574" cy="153" r="1.8" fill="#0592d0"/>
<circle cx="588" cy="153" r="1.8" fill="#0592d0"/>
<circle cx="56" cy="162" r="1.8" fill="#0592d0"/>
<circle cx="70" cy="162" r="1.8" fill="#0592d0"/>
<circle cx="574" cy="162" r="1.8" fill="#0592d0"/>
<circle cx="588" cy="162" r="1.8" fill="#0592d0"/>
<circle cx="56" cy="171" r="1.8" fill="#0592d0"/>
<circle cx="70" cy="171" r="1.8" fill="#0592d0"/>
<circle cx="574" cy="171" r="1.8" fill="#0592d0"/>
<circle cx="588" cy="171" r="1.8" fill="#0592d0"/>
<circle cx="56" cy="180" r="1.8" fill="#0592d0"/>
<circle cx="70" cy="180" r="1.8" fill="#0592d0"/>
<circle cx="126" cy="180" r="1.8" fill="#0592d0"/>
<circle cx="140" cy="180" r="1.8" fill="#0592d0"/>
<circle cx="154" cy="180" r="1.8" fill="#0592d0"/>
<circle cx="168" cy="180" r="1.8" fill="#0592d0"/>
<circle cx="182" cy="180" r="1.8" fill="#0592d0"/>
<circle cx="196" cy="180" r="1.8" fill="#0592d0"/>
<circle cx="210" cy="180" r="1.8" fill="#0592d0"/>
<circle cx="224" cy="180" r="1.8" fill="#0592d0"/>
<circle cx="238" cy="180" r="1.8" fill="#0592d0"/>
<circle cx="252" cy="180" r="1.8" fill="#0592d0"/>
<circle cx="266" cy="180" r="1.8" fill="#0592d0"/>
<circle cx="280" cy="180" r="1.8" fill="#0592d0"/>
<circle cx="294" cy="180" r="1.8" fill="#0592d0"/>
<circle cx="308" cy="180" r="1.8" fill="#0592d0"/>
<circle cx="322" cy="180" r="1.8" fill="#0592d0"/>
<circle cx="336" cy="180" r="1.8" fill="#0592d0"/>
<circle cx="350" cy="180" r="1.8" fill="#0592d0"/>
<circle cx="364" cy="180" r="1.8" fill="#0592d0"/>
<circle cx="378" cy="180" r="1.8" fill="#0592d0"/>
<circle cx="392" cy="180" r="1.8" fill="#0592d0"/>
<circle cx="406" cy="180" r="1.8" fill="#0592d0"/>
<circle cx="420" cy="180" r="1.8" fill="#0592d0"/>
<circle cx="434" cy="180" r="1.8" fill="#0592d0"/>
<circle cx="448" cy="180" r="1.8" fill="#0592d0"/>
<circle cx="462" cy="180" r="1.8" fill="#0592d0"/>
<circle cx="476" cy="180" r="1.8" fill="#0592d0"/>
<circle cx="490" cy="180" r="1.8" fill="#0592d0"/>
<circle cx="504" cy="180" r="1.8" fill="#0592d0"/>
<circle cx="518" cy="180" r="1.8" fill="#0592d0"/>
<circle cx="574" cy="180" r="1.8" fill="#0592d0"/>
<circle cx="588" cy="180" r="1.8" fill="#0592d0"/>
<circle cx="56" cy="189" r="1.8" fill="#0592d0"/>
<circle cx="70" cy="189" r="1.8" fill="#0592d0"/>
<circle cx="126" cy="189" r="1.8" fill="#0592d0"/>
<circle cx="140" cy="189" r="1.8" fill="#0592d0"/>
<circle cx="154" cy="189" r="1.8" fill="#0592d0"/>
<circle cx="168" cy="189" r="1.8" fill="#0592d0"/>
<circle cx="182" cy="189" r="1.8" fill="#0592d0"/>
<circle cx="196" cy="189" r="1.8" fill="#0592d0"/>
<circle cx="210" cy="189" r="1.8" fill="#0592d0"/>
<circle cx="224" cy="189" r="1.8" fill="#0592d0"/>
<circle cx="238" cy="189" r="1.8" fill="#0592d0"/>
<circle cx="252" cy="189" r="1.8" fill="#0592d0"/>
<circle cx="266" cy="189" r="1.8" fill="#0592d0"/>
<circle cx="280" cy="189" r="1.8" fill="#0592d0"/>
<circle cx="294" cy="189" r="1.8" fill="#0592d0"/>
<circle cx="308" cy="189" r="1.8" fill="#0592d0"/>
<circle cx="322" cy="189" r="1.8" fill="#0592d0"/>
<circle cx="336" cy="189" r="1.8" fill="#0592d0"/>
<circle cx="350" cy="189" r="1.8" fill="#0592d0"/>
<circle cx="364" cy="189" r="1.8" fill="#0592d0"/>
<circle cx="378" cy="189" r="1.8" fill="#0592d0"/>
<circle cx="392" cy="189" r="1.8" fill="#0592d0"/>
<circle cx="406" cy="189" r="1.8" fill="#0592d0"/>
<circle cx="420" cy="189" r="1.8" fill="#0592d0"/>
<circle cx="434" cy="189" r="1.8" fill="#0592d0"/>
<circle cx="448" cy="189" r="1.8" fill="#0592d0"/>
<circle cx="462" cy="189" r="1.8" fill="#0592d0"/>
<circle cx="476" cy="189" r="1.8" fill="#0592d0"/>
<circle cx="490" cy="189" r="1.8" fill="#0592d0"/>
<circle cx="504" cy="189" r="1.8" fill="#0592d0"/>
<circle cx="518" cy="189" r="1.8" fill="#0592d0"/>
<circle cx="574" cy="189" r="1.8" fill="#0592d0"/>
<circle cx="588" cy="189" r="1.8" fill="#0592d0"/>
<circle cx="56" cy="198" r="1.8" fill="#0592d0"/>
<circle cx="70" cy="198" r="1.8" fill="#0592d0"/>
<circle cx="140" cy="198" r="1.8" fill="#0592d0"/>
<circle cx="154" cy="198" r="1.8" fill="#0592d0"/>
<circle cx="168" cy="198" r="1.8" fill="#0592d0"/>
<circle cx="182" cy="198" r="1.8" fill="#0592d0"/>
<circle cx="196" cy="198" r="1.8" fill="#0592d0"/>
<circle cx="210" cy="198" r="1.8" fill="#0592d0"/>
<circle cx="224" cy="198" r="1.8" fill="#0592d0"/>
<circle cx="238" cy="198" r="1.8" fill="#0592d0"/>
<circle cx="252" cy="198" r="1.8" fill="#0592d0"/>
<circle cx="266" cy="198" r="1.8" fill="#0592d0"/>
<circle cx="280" cy="198" r="1.8" fill="#0592d0"/>
<circle cx="294" cy="198" r="1.8" fill="#0592d0"/>
<circle cx="308" cy="198" r="1.8" fill="#0592d0"/>
<circle cx="322" cy="198" r="1.8" fill="#0592d0"/>
<circle cx="336" cy="198" r="1.8" fill="#0592d0"/>
<circle cx="350" cy="198" r="1.8" fill="#0592d0"/>
<circle cx="364" cy="198" r="1.8" fill="#0592d0"/>
<circle cx="378" cy="198" r="1.8" fill="#0592d0"/>
<circle cx="392" cy="198" r="1.8" fill="#0592d0"/>
<circle cx="406" cy="198" r="1.8" fill="#0592d0"/>
<circle cx="420" cy="198" r="1.8" fill="#0592d0"/>
<circle cx="434" cy="198" r="1.8" fill="#0592d0"/>
<circle cx="448" cy="198" r="1.8" fill="#0592d0"/>
<circle cx="462" cy="198" r="1.8" fill="#0592d0"/>
<circle cx="476" cy="198" r="1.8" fill="#0592d0"/>
<circle cx="490" cy="198" r="1.8" fill="#0592d0"/>
<circle cx="504" cy="198" r="1.8" fill="#0592d0"/>
<circle cx="574" cy="198" r="1.8" fill="#0592d0"/>
<circle cx="588" cy="198" r="1.8" fill="#0592d0"/>
<circle cx="56" cy="207" r="1.8" fill="#0592d0"/>
<circle cx="70" cy="207" r="1.8" fill="#0592d0"/>
<circle cx="140" cy="207" r="1.8" fill="#0592d0"/>
<circle cx="154" cy="207" r="1.8" fill="#0592d0"/>
<circle cx="168" cy="207" r="1.8" fill="#0592d0"/>
<circle cx="182" cy="207" r="1.8" fill="#0592d0"/>
<circle cx="196" cy="207" r="1.8" fill="#0592d0"/>
<circle cx="210" cy="207" r="1.8" fill="#0592d0"/>
<circle cx="224" cy="207" r="1.8" fill="#0592d0"/>
<circle cx="238" cy="207" r="1.8" fill="#0592d0"/>
<circle cx="252" cy="207" r="1.8" fill="#0592d0"/>
<circle cx="266" cy="207" r="1.8" fill="#0592d0"/>
<circle cx="280" cy="207" r="1.8" fill="#0592d0"/>
<circle cx="294" cy="207" r="1.8" fill="#0592d0"/>
<circle cx="308" cy="207" r="1.8" fill="#0592d0"/>
<circle cx="322" cy="207" r="1.8" fill="#0592d0"/>
<circle cx="336" cy="207" r="1.8" fill="#0592d0"/>
<circle cx="350" cy="207" r="1.8" fill="#0592d0"/>
<circle cx="364" cy="207" r="1.8" fill="#0592d0"/>
<circle cx="378" cy="207" r="1.8" fill="#0592d0"/>
<circle cx="392" cy="207" r="1.8" fill="#0592d0"/>
<circle cx="406" cy="207" r="1.8" fill="#0592d0"/>
<circle cx="420" cy="207" r="1.8" fill="#0592d0"/>
<circle cx="434" cy="207" r="1.8" fill="#0592d0"/>
<circle cx="448" cy="207" r="1.8" fill="#0592d0"/>
<circle cx="462" cy="207" r="1.8" fill="#0592d0"/>
<circle cx="476" cy="207" r="1.8" fill="#0592d0"/>
<circle cx="490" cy="207" r="1.8" fill="#0592d0"/>
<circle cx="504" cy="207" r="1.8" fill="#0592d0"/>
<circle cx="574" cy="207" r="1.8" fill="#0592d0"/>
<circle cx="588" cy="207" r="1.8" fill="#0592d0"/>
<circle cx="56" cy="216" r="1.8" fill="#0592d0"/>
<circle cx="70" cy="216" r="1.8" fill="#0592d0"/>
<circle cx="154" cy="216" r="1.8" fill="#0592d0"/>
<circle cx="168" cy="216" r="1.8" fill="#0592d0"/>
<circle cx="182" cy="216" r="1.8" fill="#0592d0"/>
<circle cx="196" cy="216" r="1.8" fill="#0592d0"/>
<circle cx="210" cy="216" r="1.8" fill="#0592d0"/>
<circle cx="224" cy="216" r="1.8" fill="#0592d0"/>
<circle cx="238" cy="216" r="1.8" fill="#0592d0"/>
<circle cx="406" cy="216" r="1.8" fill="#0592d0"/>
<circle cx="420" cy="216" r="1.8" fill="#0592d0"/>
<circle cx="434" cy="216" r="1.8" fill="#0592d0"/>
<circle cx="448" cy="216" r="1.8" fill="#0592d0"/>
<circle cx="462" cy="216" r="1.8" fill="#0592d0"/>
<circle cx="476" cy="216" r="1.8" fill="#0592d0"/>
<circle cx="490" cy="216" r="1.8" fill="#0592d0"/>
<circle cx="574" cy="216" r="1.8" fill="#0592d0"/>
<circle cx="588" cy="216" r="1.8" fill="#0592d0"/>
<circle cx="56" cy="225" r="1.8" fill="#0592d0"/>
<circle cx="70" cy="225" r="1.8" fill="#0592d0"/>
<circle cx="154" cy="225" r="1.8" fill="#0592d0"/>
<circle cx="168" cy="225" r="1.8" fill="#0592d0"/>
<circle cx="182" cy="225" r="1.8" fill="#0592d0"/>
<circle cx="196" cy="225" r="1.8" fill="#0592d0"/>
<circle cx="210" cy="225" r="1.8" fill="#0592d0"/>
<circle cx="224" cy="225" r="1.8" fill="#0592d0"/>
<circle cx="238" cy="225" r="1.8" fill="#0592d0"/>
<circle cx="406" cy="225" r="1.8" fill="#0592d0"/>
<circle cx="420" cy="225" r="1.8" fill="#0592d0"/>
<circle cx="434" cy="225" r="1.8" fill="#0592d0"/>
<circle cx="448" cy="225" r="1.8" fill="#0592d0"/>
<circle cx="462" cy="225" r="1.8" fill="#0592d0"/>
<circle cx="476" cy="225" r="1.8" fill="#0592d0"/>
<circle cx="490" cy="225" r="1.8" fill="#0592d0"/>
<circle cx="574" cy="225" r="1.8" fill="#0592d0"/>
<circle cx="588" cy="225" r="1.8" fill="#0592d0"/>
<circle cx="56" cy="234" r="1.8" fill="#0592d0"/>
<circle cx="70" cy="234" r="1.8" fill="#0592d0"/>
<circle cx="168" cy="234" r="1.8" fill="#0592d0"/>
<circle cx="182" cy="234" r="1.8" fill="#0592d0"/>
<circle cx="196" cy="234" r="1.8" fill="#0592d0"/>
<circle cx="210" cy="234" r="1.8" fill="#0592d0"/>
<circle cx="224" cy="234" r="1.8" fill="#0592d0"/>
<circle cx="238" cy="234" r="1.8" fill="#0592d0"/>
<circle cx="252" cy="234" r="1.8" fill="#0592d0"/>
<circle cx="266" cy="234" r="1.8" fill="#0592d0"/>
<circle cx="378" cy="234" r="1.8" fill="#0592d0"/>
<circle cx="392" cy="234" r="1.8" fill="#0592d0"/>
<circle cx="406" cy="234" r="1.8" fill="#0592d0"/>
<circle cx="420" cy="234" r="1.8" fill="#0592d0"/>
<circle cx="434" cy="234" r="1.8" fill="#0592d0"/>
<circle cx="448" cy="234" r="1.8" fill="#0592d0"/>
<circle cx="462" cy="234" r="1.8" fill="#0592d0"/>
<circle cx="476" cy="234" r="1.8" fill="#0592d0"/>
<circle cx="574" cy="234" r="1.8" fill="#0592d0"/>
<circle cx="588" cy="234" r="1.8" fill="#0592d0"/>
<circle cx="56" cy="243" r="1.8" fill="#0592d0"/>
<circle cx="70" cy="243" r="1.8" fill="#0592d0"/>
<circle cx="168" cy="243" r="1.8" fill="#0592d0"/>
<circle cx="182" cy="243" r="1.8" fill="#0592d0"/>
<circle cx="196" cy="243" r="1.8" fill="#0592d0"/>
<circle cx="210" cy="243" r="1.8" fill="#0592d0"/>
<circle cx="224" cy="243" r="1.8" fill="#0592d0"/>
<circle cx="238" cy="243" r="1.8" fill="#0592d0"/>
<circle cx="252" cy="243" r="1.8" fill="#0592d0"/>
<circle cx="266" cy="243" r="1.8" fill="#0592d0"/>
<circle cx="378" cy="243" r="1.8" fill="#0592d0"/>
<circle cx="392" cy="243" r="1.8" fill="#0592d0"/>
<circle cx="406" cy="243" r="1.8" fill="#0592d0"/>
<circle cx="420" cy="243" r="1.8" fill="#0592d0"/>
<circle cx="434" cy="243" r="1.8" fill="#0592d0"/>
<circle cx="448" cy="243" r="1.8" fill="#0592d0"/>
<circle cx="462" cy="243" r="1.8" fill="#0592d0"/>
<circle cx="476" cy="243" r="1.8" fill="#0592d0"/>
<circle cx="574" cy="243" r="1.8" fill="#0592d0"/>
<circle cx="588" cy="243" r="1.8" fill="#0592d0"/>
<circle cx="56" cy="252" r="1.8" fill="#0592d0"/>
<circle cx="70" cy="252" r="1.8" fill="#0592d0"/>
<circle cx="182" cy="252" r="1.8" fill="#0592d0"/>
<circle cx="196" cy="252" r="1.8" fill="#0592d0"/>
<circle cx="210" cy="252" r="1.8" fill="#0592d0"/>
<circle cx="252" cy="252" r="1.8" fill="#0592d0"/>
<circle cx="266" cy="252" r="1.8" fill="#0592d0"/>
<circle cx="280" cy="252" r="1.8" fill="#0592d0"/>
<circle cx="294" cy="252" r="1.8" fill="#0592d0"/>
<circle cx="308" cy="252" r="1.8" fill="#0592d0"/>
<circle cx="336" cy="252" r="1.8" fill="#0592d0"/>
<circle cx="350" cy="252" r="1.8" fill="#0592d0"/>
<circle cx="364" cy="252" r="1.8" fill="#0592d0"/>
<circle cx="378" cy="252" r="1.8" fill="#0592d0"/>
<circle cx="392" cy="252" r="1.8" fill="#0592d0"/>
<circle cx="434" cy="252" r="1.8" fill="#0592d0"/>
<circle cx="448" cy="252" r="1.8" fill="#0592d0"/>
<circle cx="462" cy="252" r="1.8" fill="#0592d0"/>
<circle cx="574" cy="252" r="1.8" fill="#0592d0"/>
<circle cx="588" cy="252" r="1.8" fill="#0592d0"/>
<circle cx="56" cy="261" r="1.8" fill="#0592d0"/>
<circle cx="70" cy="261" r="1.8" fill="#0592d0"/>
<circle cx="182" cy="261" r="1.8" fill="#0592d0"/>
<circle cx="196" cy="261" r="1.8" fill="#0592d0"/>
<circle cx="210" cy="261" r="1.8" fill="#0592d0"/>
<circle cx="252" cy="261" r="1.8" fill="#0592d0"/>
<circle cx="266" cy="261" r="1.8" fill="#0592d0"/>
<circle cx="280" cy="261" r="1.8" fill="#0592d0"/>
<circle cx="294" cy="261" r="1.8" fill="#0592d0"/>
<circle cx="308" cy="261" r="1.8" fill="#0592d0"/>
<circle cx="336" cy="261" r="1.8" fill="#0592d0"/>
<circle cx="350" cy="261" r="1.8" fill="#0592d0"/>
<circle cx="364" cy="261" r="1.8" fill="#0592d0"/>
<circle cx="378" cy="261" r="1.8" fill="#0592d0"/>
<circle cx="392" cy="261" r="1.8" fill="#0592d0"/>
<circle cx="434" cy="261" r="1.8" fill="#0592d0"/>
<circle cx="448" cy="261" r="1.8" fill="#0592d0"/>
<circle cx="462" cy="261" r="1.8" fill="#0592d0"/>
<circle cx="574" cy="261" r="1.8" fill="#0592d0"/>
<circle cx="588" cy="261" r="1.8" fill="#0592d0"/>
<circle cx="56" cy="270" r="1.8" fill="#0592d0"/>
<circle cx="70" cy="270" r="1.8" fill="#0592d0"/>
<circle cx="196" cy="270" r="1.8" fill="#0592d0"/>
<circle cx="210" cy="270" r="1.8" fill="#0592d0"/>
<circle cx="224" cy="270" r="1.8" fill="#0592d0"/>
<circle cx="294" cy="270" r="1.8" fill="#0592d0"/>
<circle cx="308" cy="270" r="1.8" fill="#0592d0"/>
<circle cx="322" cy="270" r="1.8" fill="#0592d0"/>
<circle cx="336" cy="270" r="1.8" fill="#0592d0"/>
<circle cx="350" cy="270" r="1.8" fill="#0592d0"/>
<circle cx="420" cy="270" r="1.8" fill="#0592d0"/>
<circle cx="434" cy="270" r="1.8" fill="#0592d0"/>
<circle cx="448" cy="270" r="1.8" fill="#0592d0"/>
<circle cx="574" cy="270" r="1.8" fill="#0592d0"/>
<circle cx="588" cy="270" r="1.8" fill="#0592d0"/>
<circle cx="56" cy="279" r="1.8" fill="#0592d0"/>
<circle cx="70" cy="279" r="1.8" fill="#0592d0"/>
<circle cx="196" cy="279" r="1.8" fill="#0592d0"/>
<circle cx="210" cy="279" r="1.8" fill="#0592d0"/>
<circle cx="224" cy="279" r="1.8" fill="#0592d0"/>
<circle cx="294" cy="279" r="1.8" fill="#0592d0"/>
<circle cx="308" cy="279" r="1.8" fill="#0592d0"/>
<circle cx="322" cy="279" r="1.8" fill="#0592d0"/>
<circle cx="336" cy="279" r="1.8" fill="#0592d0"/>
<circle cx="350" cy="279" r="1.8" fill="#0592d0"/>
<circle cx="420" cy="279" r="1.8" fill="#0592d0"/>
<circle cx="434" cy="279" r="1.8" fill="#0592d0"/>
<circle cx="448" cy="279" r="1.8" fill="#0592d0"/>
<circle cx="574" cy="279" r="1.8" fill="#0592d0"/>
<circle cx="588" cy="279" r="1.8" fill="#0592d0"/>
<circle cx="56" cy="288" r="1.8" fill="#0592d0"/>
<circle cx="70" cy="288" r="1.8" fill="#0592d0"/>
<circle cx="210" cy="288" r="1.8" fill="#0592d0"/>
<circle cx="224" cy="288" r="1.8" fill="#0592d0"/>
<circle cx="238" cy="288" r="1.8" fill="#0592d0"/>
<circle cx="308" cy="288" r="1.8" fill="#0592d0"/>
<circle cx="322" cy="288" r="1.8" fill="#0592d0"/>
<circle cx="336" cy="288" r="1.8" fill="#0592d0"/>
<circle cx="406" cy="288" r="1.8" fill="#0592d0"/>
<circle cx="420" cy="288" r="1.8" fill="#0592d0"/>
<circle cx="434" cy="288" r="1.8" fill="#0592d0"/>
<circle cx="574" cy="288" r="1.8" fill="#0592d0"/>
<circle cx="588" cy="288" r="1.8" fill="#0592d0"/>
<circle cx="56" cy="297" r="1.8" fill="#0592d0"/>
<circle cx="70" cy="297" r="1.8" fill="#0592d0"/>
<circle cx="210" cy="297" r="1.8" fill="#0592d0"/>
<circle cx="224" cy="297" r="1.8" fill="#0592d0"/>
<circle cx="238" cy="297" r="1.8" fill="#0592d0"/>
<circle cx="308" cy="297" r="1.8" fill="#0592d0"/>
<circle cx="322" cy="297" r="1.8" fill="#0592d0"/>
<circle cx="336" cy="297" r="1.8" fill="#0592d0"/>
<circle cx="406" cy="297" r="1.8" fill="#0592d0"/>
<circle cx="420" cy="297" r="1.8" fill="#0592d0"/>
<circle cx="434" cy="297" r="1.8" fill="#0592d0"/>
<circle cx="574" cy="297" r="1.8" fill="#0592d0"/>
<circle cx="588" cy="297" r="1.8" fill="#0592d0"/>
<circle cx="56" cy="306" r="1.8" fill="#0592d0"/>
<circle cx="70" cy="306" r="1.8" fill="#0592d0"/>
<circle cx="224" cy="306" r="1.8" fill="#0592d0"/>
<circle cx="238" cy="306" r="1.8" fill="#0592d0"/>
<circle cx="252" cy="306" r="1.8" fill="#0592d0"/>
<circle cx="308" cy="306" r="1.8" fill="#0592d0"/>
<circle cx="322" cy="306" r="1.8" fill="#0592d0"/>
<circle cx="336" cy="306" r="1.8" fill="#0592d0"/>
<circle cx="392" cy="306" r="1.8" fill="#0592d0"/>
<circle cx="406" cy="306" r="1.8" fill="#0592d0"/>
<circle cx="420" cy="306" r="1.8" fill="#0592d0"/>
<circle cx="574" cy="306" r="1.8" fill="#0592d0"/>
<circle cx="588" cy="306" r="1.8" fill="#0592d0"/>
<circle cx="56" cy="315" r="1.8" fill="#0592d0"/>
<circle cx="70" cy="315" r="1.8" fill="#0592d0"/>
<circle cx="224" cy="315" r="1.8" fill="#0592d0"/>
<circle cx="238" cy="315" r="1.8" fill="#0592d0"/>
<circle cx="252" cy="315" r="1.8" fill="#0592d0"/>
<circle cx="308" cy="315" r="1.8" fill="#0592d0"/>
<circle cx="322" cy="315" r="1.8" fill="#0592d0"/>
<circle cx="336" cy="315" r="1.8" fill="#0592d0"/>
<circle cx="392" cy="315" r="1.8" fill="#0592d0"/>
<circle cx="406" cy="315" r="1.8" fill="#0592d0"/>
<circle cx="420" cy="315" r="1.8" fill="#0592d0"/>
<circle cx="574" cy="315" r="1.8" fill="#0592d0"/>
<circle cx="588" cy="315" r="1.8" fill="#0592d0"/>
<circle cx="56" cy="324" r="1.8" fill="#0592d0"/>
<circle cx="70" cy="324" r="1.8" fill="#0592d0"/>
<circle cx="238" cy="324" r="1.8" fill="#0592d0"/>
<circle cx="252" cy="324" r="1.8" fill="#0592d0"/>
<circle cx="308" cy="324" r="1.8" fill="#0592d0"/>
<circle cx="322" cy="324" r="1.8" fill="#0592d0"/>
<circle cx="336" cy="324" r="1.8" fill="#0592d0"/>
<circle cx="392" cy="324" r="1.8" fill="#0592d0"/>
<circle cx="406" cy="324" r="1.8" fill="#0592d0"/>
<circle cx="574" cy="324" r="1.8" fill="#0592d0"/>
<circle cx="588" cy="324" r="1.8" fill="#0592d0"/>
<circle cx="56" cy="333" r="1.8" fill="#0592d0"/>
<circle cx="70" cy="333" r="1.8" fill="#0592d0"/>
<circle cx="238" cy="333" r="1.8" fill="#0592d0"/>
<circle cx="252" cy="333" r="1.8" fill="#0592d0"/>
<circle cx="308" cy="333" r="1.8" fill="#0592d0"/>
<circle cx="322" cy="333" r="1.8" fill="#0592d0"/>
<circle cx="336" cy="333" r="1.8" fill="#0592d0"/>
<circle cx="392" cy="333" r="1.8" fill="#0592d0"/>
<circle cx="406" cy="333" r="1.8" fill="#0592d0"/>
<circle cx="574" cy="333" r="1.8" fill="#0592d0"/>
<circle cx="588" cy="333" r="1.8" fill="#0592d0"/>
<circle cx="56" cy="342" r="1.8" fill="#0592d0"/>
<circle cx="70" cy="342" r="1.8" fill="#0592d0"/>
<circle cx="140" cy="342" r="1.8" fill="#0592d0"/>
<circle cx="154" cy="342" r="1.8" fill="#0592d0"/>
<circle cx="168" cy="342" r="1.8" fill="#0592d0"/>
<circle cx="182" cy="342" r="1.8" fill="#0592d0"/>
<circle cx="238" cy="342" r="1.8" fill="#0592d0"/>
<circle cx="252" cy="342" r="1.8" fill="#0592d0"/>
<circle cx="266" cy="342" r="1.8" fill="#0592d0"/>
<circle cx="308" cy="342" r="1.8" fill="#0592d0"/>
<circle cx="322" cy="342" r="1.8" fill="#0592d0"/>
<circle cx="336" cy="342" r="1.8" fill="#0592d0"/>
<circle cx="378" cy="342" r="1.8" fill="#0592d0"/>
<circle cx="392" cy="342" r="1.8" fill="#0592d0"/>
<circle cx="406" cy="342" r="1.8" fill="#0592d0"/>
<circle cx="462" cy="342" r="1.8" fill="#0592d0"/>
<circle cx="476" cy="342" r="1.8" fill="#0592d0"/>
<circle cx="490" cy="342" r="1.8" fill="#0592d0"/>
<circle cx="504" cy="342" r="1.8" fill="#0592d0"/>
<circle cx="574" cy="342" r="1.8" fill="#0592d0"/>
<circle cx="588" cy="342" r="1.8" fill="#0592d0"/>
<circle cx="56" cy="351" r="1.8" fill="#0592d0"/>
<circle cx="70" cy="351" r="1.8" fill="#0592d0"/>
<circle cx="140" cy="351" r="1.8" fill="#0592d0"/>
<circle cx="154" cy="351" r="1.8" fill="#0592d0"/>
<circle cx="168" cy="351" r="1.8" fill="#0592d0"/>
<circle cx="182" cy="351" r="1.8" fill="#0592d0"/>
<circle cx="238" cy="351" r="1.8" fill="#0592d0"/>
<circle cx="252" cy="351" r="1.8" fill="#0592d0"/>
<circle cx="266" cy="351" r="1.8" fill="#0592d0"/>
<circle cx="308" cy="351" r="1.8" fill="#0592d0"/>
<circle cx="322" cy="351" r="1.8" fill="#0592d0"/>
<circle cx="336" cy="351" r="1.8" fill="#0592d0"/>
<circle cx="378" cy="351" r="1.8" fill="#0592d0"/>
<circle cx="392" cy="351" r="1.8" fill="#0592d0"/>
<circle cx="406" cy="351" r="1.8" fill="#0592d0"/>
<circle cx="462" cy="351" r="1.8" fill="#0592d0"/>
<circle cx="476" cy="351" r="1.8" fill="#0592d0"/>
<circle cx="490" cy="351" r="1.8" fill="#0592d0"/>
<circle cx="504" cy="351" r="1.8" fill="#0592d0"/>
<circle cx="574" cy="351" r="1.8" fill="#0592d0"/>
<circle cx="588" cy="351" r="1.8" fill="#0592d0"/>
<circle cx="56" cy="360" r="1.8" fill="#0592d0"/>
<circle cx="70" cy="360" r="1.8" fill="#0592d0"/>
<circle cx="112" cy="360" r="1.8" fill="#0592d0"/>
<circle cx="126" cy="360" r="1.8" fill="#0592d0"/>
<circle cx="140" cy="360" r="1.8" fill="#0592d0"/>
<circle cx="154" cy="360" r="1.8" fill="#0592d0"/>
<circle cx="168" cy="360" r="1.8" fill="#0592d0"/>
<circle cx="252" cy="360" r="1.8" fill="#0592d0"/>
<circle cx="266" cy="360" r="1.8" fill="#0592d0"/>
<circle cx="280" cy="360" r="1.8" fill="#0592d0"/>
<circle cx="308" cy="360" r="1.8" fill="#0592d0"/>
<circle cx="322" cy="360" r="1.8" fill="#0592d0"/>
<circle cx="336" cy="360" r="1.8" fill="#0592d0"/>
<circle cx="364" cy="360" r="1.8" fill="#0592d0"/>
<circle cx="378" cy="360" r="1.8" fill="#0592d0"/>
<circle cx="392" cy="360" r="1.8" fill="#0592d0"/>
<circle cx="476" cy="360" r="1.8" fill="#0592d0"/>
<circle cx="490" cy="360" r="1.8" fill="#0592d0"/>
<circle cx="504" cy="360" r="1.8" fill="#0592d0"/>
<circle cx="518" cy="360" r="1.8" fill="#0592d0"/>
<circle cx="532" cy="360" r="1.8" fill="#0592d0"/>
<circle cx="574" cy="360" r="1.8" fill="#0592d0"/>
<circle cx="588" cy="360" r="1.8" fill="#0592d0"/>
<circle cx="56" cy="369" r="1.8" fill="#0592d0"/>
<circle cx="70" cy="369" r="1.8" fill="#0592d0"/>
<circle cx="112" cy="369" r="1.8" fill="#0592d0"/>
<circle cx="126" cy="369" r="1.8" fill="#0592d0"/>
<circle cx="140" cy="369" r="1.8" fill="#0592d0"/>
<circle cx="154" cy="369" r="1.8" fill="#0592d0"/>
<circle cx="168" cy="369" r="1.8" fill="#0592d0"/>
<circle cx="252" cy="369" r="1.8" fill="#0592d0"/>
<circle cx="266" cy="369" r="1.8" fill="#0592d0"/>
<circle cx="280" cy="369" r="1.8" fill="#0592d0"/>
<circle cx="308" cy="369" r="1.8" fill="#0592d0"/>
<circle cx="322" cy="369" r="1.8" fill="#0592d0"/>
<circle cx="336" cy="369" r="1.8" fill="#0592d0"/>
<circle cx="364" cy="369" r="1.8" fill="#0592d0"/>
<circle cx="378" cy="369" r="1.8" fill="#0592d0"/>
<circle cx="392" cy="369" r="1.8" fill="#0592d0"/>
<circle cx="476" cy="369" r="1.8" fill="#0592d0"/>
<circle cx="490" cy="369" r="1.8" fill="#0592d0"/>
<circle cx="504" cy="369" r="1.8" fill="#0592d0"/>
<circle cx="518" cy="369" r="1.8" fill="#0592d0"/>
<circle cx="532" cy="369" r="1.8" fill="#0592d0"/>
<circle cx="574" cy="369" r="1.8" fill="#0592d0"/>
<circle cx="588" cy="369" r="1.8" fill="#0592d0"/>
<circle cx="56" cy="378" r="1.8" fill="#0592d0"/>
<circle cx="70" cy="378" r="1.8" fill="#0592d0"/>
<circle cx="84" cy="378" r="1.8" fill="#0592d0"/>
<circle cx="98" cy="378" r="1.8" fill="#0592d0"/>
<circle cx="112" cy="378" r="1.8" fill="#0592d0"/>
<circle cx="126" cy="378" r="1.8" fill="#0592d0"/>
<circle cx="266" cy="378" r="1.8" fill="#0592d0"/>
<circle cx="280" cy="378" r="1.8" fill="#0592d0"/>
<circle cx="294" cy="378" r="1.8" fill="#0592d0"/>
<circle cx="308" cy="378" r="1.8" fill="#0592d0"/>
<circle cx="322" cy="378" r="1.8" fill="#0592d0"/>
<circle cx="336" cy="378" r="1.8" fill="#0592d0"/>
<circle cx="350" cy="378" r="1.8" fill="#0592d0"/>
<circle cx="364" cy="378" r="1.8" fill="#0592d0"/>
<circle cx="378" cy="378" r="1.8" fill="#0592d0"/>
<circle cx="518" cy="378" r="1.8" fill="#0592d0"/>
<circle cx="532" cy="378" r="1.8" fill="#0592d0"/>
<circle cx="546" cy="378" r="1.8" fill="#0592d0"/>
<circle cx="560" cy="378" r="1.8" fill="#0592d0"/>
<circle cx="574" cy="378" r="1.8" fill="#0592d0"/>
<circle cx="588" cy="378" r="1.8" fill="#0592d0"/>
<circle cx="56" cy="387" r="1.8" fill="#0592d0"/>
<circle cx="70" cy="387" r="1.8" fill="#0592d0"/>
<circle cx="84" cy="387" r="1.8" fill="#0592d0"/>
<circle cx="98" cy="387" r="1.8" fill="#0592d0"/>
<circle cx="112" cy="387" r="1.8" fill="#0592d0"/>
<circle cx="126" cy="387" r="1.8" fill="#0592d0"/>
<circle cx="266" cy="387" r="1.8" fill="#0592d0"/>
<circle cx="280" cy="387" r="1.8" fill="#0592d0"/>
<circle cx="294" cy="387" r="1.8" fill="#0592d0"/>
<circle cx="308" cy="387" r="1.8" fill="#0592d0"/>
<circle cx="322" cy="387" r="1.8" fill="#0592d0"/>
<circle cx="336" cy="387" r="1.8" fill="#0592d0"/>
<circle cx="350" cy="387" r="1.8" fill="#0592d0"/>
<circle cx="364" cy="387" r="1.8" fill="#0592d0"/>
<circle cx="378" cy="387" r="1.8" fill="#0592d0"/>
<circle cx="518" cy="387" r="1.8" fill="#0592d0"/>
<circle cx="532" cy="387" r="1.8" fill="#0592d0"/>
<circle cx="546" cy="387" r="1.8" fill="#0592d0"/>
<circle cx="560" cy="387" r="1.8" fill="#0592d0"/>
<circle cx="574" cy="387" r="1.8" fill="#0592d0"/>
<circle cx="588" cy="387" r="1.8" fill="#0592d0"/>
<circle cx="56" cy="396" r="1.8" fill="#0592d0"/>
<circle cx="70" cy="396" r="1.8" fill="#0592d0"/>
<circle cx="84" cy="396" r="1.8" fill="#0592d0"/>
<circle cx="98" cy="396" r="1.8" fill="#0592d0"/>
<circle cx="280" cy="396" r="1.8" fill="#0592d0"/>
<circle cx="294" cy="396" r="1.8" fill="#0592d0"/>
<circle cx="308" cy="396" r="1.8" fill="#0592d0"/>
<circle cx="322" cy="396" r="1.8" fill="#0592d0"/>
<circle cx="336" cy="396" r="1.8" fill="#0592d0"/>
<circle cx="350" cy="396" r="1.8" fill="#0592d0"/>
<circle cx="364" cy="396" r="1.8" fill="#0592d0"/>
<circle cx="546" cy="396" r="1.8" fill="#0592d0"/>
<circle cx="560" cy="396" r="1.8" fill="#0592d0"/>
<circle cx="574" cy="396" r="1.8" fill="#0592d0"/>
<circle cx="588" cy="396" r="1.8" fill="#0592d0"/>
<circle cx="56" cy="405" r="1.8" fill="#0592d0"/>
<circle cx="70" cy="405" r="1.8" fill="#0592d0"/>
<circle cx="84" cy="405" r="1.8" fill="#0592d0"/>
<circle cx="98" cy="405" r="1.8" fill="#0592d0"/>
<circle cx="280" cy="405" r="1.8" fill="#0592d0"/>
<circle cx="294" cy="405" r="1.8" fill="#0592d0"/>
<circle cx="308" cy="405" r="1.8" fill="#0592d0"/>
<circle cx="322" cy="405" r="1.8" fill="#0592d0"/>
<circle cx="336" cy="405" r="1.8" fill="#0592d0"/>
<circle cx="350" cy="405" r="1.8" fill="#0592d0"/>
<circle cx="364" cy="405" r="1.8" fill="#0592d0"/>
<circle cx="546" cy="405" r="1.8" fill="#0592d0"/>
<circle cx="560" cy="405" r="1.8" fill="#0592d0"/>
<circle cx="574" cy="405" r="1.8" fill="#0592d0"/>
<circle cx="588" cy="405" r="1.8" fill="#0592d0"/>
<circle cx="70" cy="414" r="1.8" fill="#0592d0"/>
<circle cx="84" cy="414" r="1.8" fill="#0592d0"/>
<circle cx="98" cy="414" r="1.8" fill="#0592d0"/>
<circle cx="112" cy="414" r="1.8" fill="#0592d0"/>
<circle cx="126" cy="414" r="1.8" fill="#0592d0"/>
<circle cx="294" cy="414" r="1.8" fill="#0592d0"/>
<circle cx="308" cy="414" r="1.8" fill="#0592d0"/>
<circle cx="322" cy="414" r="1.8" fill="#0592d0"/>
<circle cx="336" cy="414" r="1.8" fill="#0592d0"/>
<circle cx="350" cy="414" r="1.8" fill="#0592d0"/>
<circle cx="518" cy="414" r="1.8" fill="#0592d0"/>
<circle cx="532" cy="414" r="1.8" fill="#0592d0"/>
<circle cx="546" cy="414" r="1.8" fill="#0592d0"/>
<circle cx="560" cy="414" r="1.8" fill="#0592d0"/>
<circle cx="574" cy="414" r="1.8" fill="#0592d0"/>
<circle cx="70" cy="423" r="1.8" fill="#0592d0"/>
<circle cx="84" cy="423" r="1.8" fill="#0592d0"/>
<circle cx="98" cy="423" r="1.8" fill="#0592d0"/>
<circle cx="112" cy="423" r="1.8" fill="#0592d0"/>
<circle cx="126" cy="423" r="1.8" fill="#0592d0"/>
<circle cx="294" cy="423" r="1.8" fill="#0592d0"/>
<circle cx="308" cy="423" r="1.8" fill="#0592d0"/>
<circle cx="322" cy="423" r="1.8" fill="#0592d0"/>
<circle cx="336" cy="423" r="1.8" fill="#0592d0"/>
<circle cx="350" cy="423" r="1.8" fill="#0592d0"/>
<circle cx="518" cy="423" r="1.8" fill="#0592d0"/>
<circle cx="532" cy="423" r="1.8" fill="#0592d0"/>
<circle cx="546" cy="423" r="1.8" fill="#0592d0"/>
<circle cx="560" cy="423" r="1.8" fill="#0592d0"/>
<circle cx="574" cy="423" r="1.8" fill="#0592d0"/>
<circle cx="112" cy="432" r="1.8" fill="#0592d0"/>
<circle cx="126" cy="432" r="1.8" fill="#0592d0"/>
<circle cx="140" cy="432" r="1.8" fill="#0592d0"/>
<circle cx="154" cy="432" r="1.8" fill="#0592d0"/>
<circle cx="168" cy="432" r="1.8" fill="#0592d0"/>
<circle cx="308" cy="432" r="1.8" fill="#0592d0"/>
<circle cx="322" cy="432" r="1.8" fill="#0592d0"/>
<circle cx="336" cy="432" r="1.8" fill="#0592d0"/>
<circle cx="476" cy="432" r="1.8" fill="#0592d0"/>
<circle cx="490" cy="432" r="1.8" fill="#0592d0"/>
<circle cx="504" cy="432" r="1.8" fill="#0592d0"/>
<circle cx="518" cy="432" r="1.8" fill="#0592d0"/>
<circle cx="532" cy="432" r="1.8" fill="#0592d0"/>
<circle cx="112" cy="441" r="1.8" fill="#0592d0"/>
<circle cx="126" cy="441" r="1.8" fill="#0592d0"/>
<circle cx="140" cy="441" r="1.8" fill="#0592d0"/>
<circle cx="154" cy="441" r="1.8" fill="#0592d0"/>
<circle cx="168" cy="441" r="1.8" fill="#0592d0"/>
<circle cx="308" cy="441" r="1.8" fill="#0592d0"/>
<circle cx="322" cy="441" r="1.8" fill="#0592d0"/>
<circle cx="336" cy="441" r="1.8" fill="#0592d0"/>
<circle cx="476" cy="441" r="1.8" fill="#0592d0"/>
<circle cx="490" cy="441" r="1.8" fill="#0592d0"/>
<circle cx="504" cy="441" r="1.8" fill="#0592d0"/>
<circle cx="518" cy="441" r="1.8" fill="#0592d0"/>
<circle cx="532" cy="441" r="1.8" fill="#0592d0"/>
<circle cx="154" cy="450" r="1.8" fill="#0592d0"/>
<circle cx="168" cy="450" r="1.8" fill="#0592d0"/>
<circle cx="182" cy="450" r="1.8" fill="#0592d0"/>
<circle cx="196" cy="450" r="1.8" fill="#0592d0"/>
<circle cx="210" cy="450" r="1.8" fill="#0592d0"/>
<circle cx="322" cy="450" r="1.8" fill="#0592d0"/>
<circle cx="434" cy="450" r="1.8" fill="#0592d0"/>
<circle cx="448" cy="450" r="1.8" fill="#0592d0"/>
<circle cx="462" cy="450" r="1.8" fill="#0592d0"/>
<circle cx="476" cy="450" r="1.8" fill="#0592d0"/>
<circle cx="490" cy="450" r="1.8" fill="#0592d0"/>
<circle cx="154" cy="459" r="1.8" fill="#0592d0"/>
<circle cx="168" cy="459" r="1.8" fill="#0592d0"/>
<circle cx="182" cy="459" r="1.8" fill="#0592d0"/>
<circle cx="196" cy="459" r="1.8" fill="#0592d0"/>
<circle cx="210" cy="459" r="1.8" fill="#0592d0"/>
<circle cx="322" cy="459" r="1.8" fill="#0592d0"/>
<circle cx="434" cy="459" r="1.8" fill="#0592d0"/>
<circle cx="448" cy="459" r="1.8" fill="#0592d0"/>
<circle cx="462" cy="459" r="1.8" fill="#0592d0"/>
<circle cx="476" cy="459" r="1.8" fill="#0592d0"/>
<circle cx="490" cy="459" r="1.8" fill="#0592d0"/>
<circle cx="182" cy="468" r="1.8" fill="#0592d0"/>
<circle cx="196" cy="468" r="1.8" fill="#0592d0"/>
<circle cx="210" cy="468" r="1.8" fill="#0592d0"/>
<circle cx="224" cy="468" r="1.8" fill="#0592d0"/>
<circle cx="238" cy="468" r="1.8" fill="#0592d0"/>
<circle cx="406" cy="468" r="1.8" fill="#0592d0"/>
<circle cx="420" cy="468" r="1.8" fill="#0592d0"/>
<circle cx="434" cy="468" r="1.8" fill="#0592d0"/>
<circle cx="448" cy="468" r="1.8" fill="#0592d0"/>
<circle cx="462" cy="468" r="1.8" fill="#0592d0"/>
<circle cx="182" cy="477" r="1.8" fill="#0592d0"/>
<circle cx="196" cy="477" r="1.8" fill="#0592d0"/>
<circle cx="210" cy="477" r="1.8" fill="#0592d0"/>
<circle cx="224" cy="477" r="1.8" fill="#0592d0"/>
<circle cx="238" cy="477" r="1.8" fill="#0592d0"/>
<circle cx="406" cy="477" r="1.8" fill="#0592d0"/>
<circle cx="420" cy="477" r="1.8" fill="#0592d0"/>
<circle cx="434" cy="477" r="1.8" fill="#0592d0"/>
<circle cx="448" cy="477" r="1.8" fill="#0592d0"/>
<circle cx="462" cy="477" r="1.8" fill="#0592d0"/>
<circle cx="224" cy="486" r="1.8" fill="#0592d0"/>
<circle cx="238" cy="486" r="1.8" fill="#0592d0"/>
<circle cx="252" cy="486" r="1.8" fill="#0592d0"/>
<circle cx="266" cy="486" r="1.8" fill="#0592d0"/>
<circle cx="280" cy="486" r="1.8" fill="#0592d0"/>
<circle cx="364" cy="486" r="1.8" fill="#0592d0"/>
<circle cx="378" cy="486" r="1.8" fill="#0592d0"/>
<circle cx="392" cy="486" r="1.8" fill="#0592d0"/>
<circle cx="406" cy="486" r="1.8" fill="#0592d0"/>
<circle cx="420" cy="486" r="1.8" fill="#0592d0"/>
<circle cx="224" cy="495" r="1.8" fill="#0592d0"/>
<circle cx="238" cy="495" r="1.8" fill="#0592d0"/>
<circle cx="252" cy="495" r="1.8" fill="#0592d0"/>
<circle cx="266" cy="495" r="1.8" fill="#0592d0"/>
<circle cx="280" cy="495" r="1.8" fill="#0592d0"/>
<circle cx="364" cy="495" r="1.8" fill="#0592d0"/>
<circle cx="378" cy="495" r="1.8" fill="#0592d0"/>
<circle cx="392" cy="495" r="1.8" fill="#0592d0"/>
<circle cx="406" cy="495" r="1.8" fill="#0592d0"/>
<circle cx="420" cy="495" r="1.8" fill="#0592d0"/>
<circle cx="266" cy="504" r="1.8" fill="#0592d0"/>
<circle cx="280" cy="504" r="1.8" fill="#0592d0"/>
<circle cx="294" cy="504" r="1.8" fill="#0592d0"/>
<circle cx="308" cy="504" r="1.8" fill="#0592d0"/>
<circle cx="322" cy="504" r="1.8" fill="#0592d0"/>
<circle cx="336" cy="504" r="1.8" fill="#0592d0"/>
<circle cx="350" cy="504" r="1.8" fill="#0592d0"/>
<circle cx="364" cy="504" r="1.8" fill="#0592d0"/>
<circle cx="378" cy="504" r="1.8" fill="#0592d0"/>
<circle cx="266" cy="513" r="1.8" fill="#0592d0"/>
<circle cx="280" cy="513" r="1.8" fill="#0592d0"/>
<circle cx="294" cy="513" r="1.8" fill="#0592d0"/>
<circle cx="308" cy="513" r="1.8" fill="#0592d0"/>
<circle cx="322" cy="513" r="1.8" fill="#0592d0"/>
<circle cx="336" cy="513" r="1.8" fill="#0592d0"/>
<circle cx="350" cy="513" r="1.8" fill="#0592d0"/>
<circle cx="364" cy="513" r="1.8" fill="#0592d0"/>
<circle cx="378" cy="513" r="1.8" fill="#0592d0"/>
<circle cx="294" cy="522" r="1.8" fill="#0592d0"/>
<circle cx="308" cy="522" r="1.8" fill="#0592d0"/>
<circle cx="322" cy="522" r="1.8" fill="#0592d0"/>
<circle cx="336" cy="522" r="1.8" fill="#0592d0"/>
<circle cx="350" cy="522" r="1.8" fill="#0592d0"/>
<circle cx="294" cy="531" r="1.8" fill="#0592d0"/>
<circle cx="308" cy="531" r="1.8" fill="#0592d0"/>
<circle cx="322" cy="531" r="1.8" fill="#0592d0"/>
<circle cx="336" cy="531" r="1.8" fill="#0592d0"/>
<circle cx="350" cy="531" r="1.8" fill="#0592d0"/>
</svg>