<?xml version="1.0" encoding="UTF-8" standalone="no"?>
<svg xmlns="http://www.w3.org/2000/svg" version="1.1" height="627" width="527.6153846153845">
<desc>Ingress logos - By lll9p, No rights reserved, lll9p.china@gmail.com, http://imtho.com</desc>
<rect x="-2000%" y="-2000%" height="4000%" width="4000%" fill="black"/>
<circle cx="69.42307692307692" cy="57" r="1.8" fill="#0592d0"/>
<circle cx="69.42307692307692" cy="66.5" r="1.8" fill="#0592d0"/>
<circle cx="83.30769230769229" cy="57" r="1.8" fill="#0592d0"/>
<circle cx="83.30769230769229" cy="66.5" r="1.8" fill="#0592d0"/>
<circle cx="97.19230769230768" cy="57" r="1.8" fill="#0592d0"/>
<circle cx="97.19230769230768" cy="66.5" r="1.8" fill="#0592d0"/>
<circle cx="111.07692307692307" cy="57" r="1.8" fill="#0592d0"/>
<circle cx="111.07692307692307" cy="66.5" r="1.8" fill="#0592d0"/>
<circle cx="124.96153846153845" cy="57" r="1.8" fill="#0592d0"/>
<circle cx="124.96153846153845" cy="66.5" r="1.8" fill="#0592d0"/>
<circle cx="138.84615384615384" cy="57" r="1.8" fill="#0592d0"/>
<circle cx="138.84615384615384" cy="66.5" r="1.8" fill="#0592d0"/>
<circle cx="152.73076923076923" cy="57" r="1.8" fill="#0592d0"/>
<circle cx="152.73076923076923" cy="66.5" r="1.8" fill="#0592d0"/>
<circle cx="166.61538461538458" cy="57" r="1.8" fill="#0592d0"/>
<circle cx="166.61538461538458" cy="66.5" r="1.8" fill="#0592d0"/>
<circle cx="180.49999999999997" cy="57" r="1.8" fill="#0592d0"/>
<circle cx="180.49999999999997" cy="66.5" r="1.8" fill="#0592d0"/>
<circle cx="194.38461538461536" cy="57" r="1.8" fill="#0592d0"/>
<circle cx="194.38461538461536" cy="66.5" r="1.8" fill="#0592d0"/>
<circle cx="208.26923076923075" cy="57" r="1.8" fill="#0592d0"/>
<circle cx="208.26923076923075" cy="66.5" r="1.8" fill="#0592d0"/>
<circle cx="222.15384615384613" cy="57" r="1.8" fill="#0592d0"/>
<circle cx="222.15384615384613" cy="66.5" r="1.8" fill="#0592d0"/>
<circle cx="236.03846153846152" cy="57" r="1.8" fill="#0592d0"/>
<circle cx="236.03846153846152" cy="66.5" r="1.8" fill="#0592d0"/>
<circle cx="291.57692307692304" cy="57" r="1.8" fill="#0592d0"/>
<circle cx="291.57692307692304" cy="66.5" r="1.8" fill="#0592d0"/>
<circle cx="305.46153846153845" cy="57" r="1.8" fill="#0592d0"/>
<circle cx="305.46153846153845" cy="66.5" r="1.8" fill="#0592d0"/>
<circle cx="319.3461538461538" cy="57" r="1.8" fill="#0592d0"/>
<circle cx="319.3461538461538" cy="66.5" r="1.8" fill="#0592d0"/>
<circle cx="333.23076923076917" cy="57" r="1.8" fill="#0592d0"/>
<circle cx="333.23076923076917" cy="66.5" r="1.8" fill="#0592d0"/>
<circle cx="347.1153846153846" cy="57" r="1.8" fill="#0592d0"/>
<circle cx="347.1153846153846" cy="66.5" r="1.8" fill="#0592d0"/>
<circle cx="360.99999999999994" cy="57" r="1.8" fill="#0592d0"/>
<circle cx="360.99999999999994" cy="66.5" r="1.8" fill="#0592d0"/>
<circle cx="374.88461538461536" cy="57" r="1.8" fill="#0592d0"/>
<circle cx="374.88461538461536" cy="66.5" r="1.8" fill="#0592d0"/>
<circle cx="388.7692307692307" cy="57" r="1.8" fill="#0592d0"/>
<circle cx="388.7692307692307" cy="66.5" r="1.8" fill="#0592d0"/>
<circle cx="402.65384615384613" cy="57" r="1.8" fill="#0592d0"/>
<circle cx="402.65384615384613" cy="66.5" r="1.8" fill="#0592d0"/>
<circle cx="416.5384615384615" cy="57" r="1.8" fill="#0592d0"/>
<circle cx="416.5384615384615" cy="66.5" r="1.8" fill="#0592d0"/>
<circle cx="430.4230769230769" cy="57" r="1.8" fill="#0592d0"/>
<circle cx="430.4230769230769" cy="66.5" r="1.8" fill="#0592d0"/>
<circle cx="444.30769230769226" cy="57" r="1.8" fill="#0592d0"/>
<circle cx="444.30769230769226" cy="66.5" r="1.8" fill="#0592d0"/>
<circle cx="458.1923076923076" cy="57" r="1.8" fill="#0592d0"/>
<circle cx="458.1923076923076" cy="66.5" r="1.8" fill="#0592d0"/>
<circle cx="69.42307692307692" cy="76" r="1.8" fill="#0592d0"/>
<circle cx="69.42307692307692" cy="85.5" r="1.8" fill="#0592d0"/>
<circle cx="83.30769230769229" cy="76" r="1.8" fill="#0592d0"/>
<circle cx="83.30769230769229" cy="85.5" r="1.8" fill="#0592d0"/>
<circle cx="97.19230769230768" cy="76" r="1.8" fill="#0592d0"/>
<circle cx="97.19230769230768" cy="85.5" r="1.8" fill="#0592d0"/>
<circle cx="249.9230769230769" cy="76" r="1.8" fill="#0592d0"/>
<circle cx="249.9230769230769" cy="85.5" r="1.8" fill="#0592d0"/>
<circle cx="263.80769230769226" cy="76" r="1.8" fill="#0592d0"/>
<circle cx="263.80769230769226" cy="85.5" r="1.8" fill="#0592d0"/>
<circle cx="277.6923076923077" cy="76" r="1.8" fill="#0592d0"/>
<circle cx="277.6923076923077" cy="85.5" r="1.8" fill="#0592d0"/>
<circle cx="430.4230769230769" cy="76" r="1.8" fill="#0592d0"/>
<circle cx="430.4230769230769" cy="85.5" r="1.8" fill="#0592d0"/>
<circle cx="444.30769230769226" cy="76" r="1.8" fill="#0592d0"/>
<circle cx="444.30769230769226" cy="85.5" r="1.8" fill="#0592d0"/>
<circle cx="458.1923076923076" cy="76" r="1.8" fill="#0592d0"/>
<circle cx="458.1923076923076" cy="85.5" r="1.8" fill="#0592d0"/>
<circle cx="69.42307692307692" cy="95" r="1.8" fill="#0592d0"/>
<circle cx="69.42307692307692" cy="104.5" r="1.8" fill="#0592d0"/>
<circle cx="83.30769230769229" cy="95" r="1.8" fill="#0592d0"/>
<circle cx="83.30769230769229" cy="104.5" r="1.8" fill="#0592d0"/>
<circle cx="97.19230769230768" cy="95" r="1.8" fill="#0592d0"/>
<circle cx="97.19230769230768" cy="104.5" r="1.8" fill="#0592d0"/>
<circle cx="124.96153846153845" cy="95" r="1.8" fill="#0592d0"/>
<circle cx="124.96153846153845" cy="104.5" r="1.8" fill="#0592d0"/>
<circle cx="138.84615384615384" cy="95" r="1.8" fill="#0592d0"/>
<circle cx="138.84615384615384" cy="104.5" r="1.8" fill="#0592d0"/>
<circle cx="152.73076923076923" cy="95" r="1.8" fill="#0592d0"/>
<circle cx="152.73076923076923" cy="104.5" r="1.8" fill="#0592d0"/>
<circle cx="166.61538461538458" cy="95" r="1.8" fill="#0592d0"/>
<circle cx="166.61538461538458" cy="104.5" r="1.8" fill="#0592d0"/>
<circle cx="180.49999999999997" cy="95" r="1.8" fill="#0592d0"/>
<circle cx="180.49999999999997" cy="104.5" r="1.8" fill="#0592d0"/>
<circle cx="194.38461538461536" cy="95" r="1.8" fill="#0592d0"/>
<circle cx="194.38461538461536" cy="104.5" r="1.8" fill="#0592d0"/>
<circle cx="208.26923076923075" cy="95" r="1.8" fill="#0592d0"/>
<circle cx="208.26923076923075" cy="104.5" r="1.8" fill="#0592d0"/>
<circle cx="222.15384615384613" cy="95" r="1.8" fill="#0592d0"/>
<circle cx="222.15384615384613" cy="104.5" r="1.8" fill="#0592d0"/>
<circle cx="236.03846153846152" cy="95" r="1.8" fill="#0592d0"/>
<circle cx="236.03846153846152" cy="104.5" r="1.8" fill="#0592d0"/>
<circle cx="291.57692307692304" cy="95" r="1.8" fill="#0592d0"/>
<circle cx="291.57692307692304" cy="104.5" r="1.8" fill="#0592d0"/>
<circle cx="305.46153846153845" cy="95" r="1.8" fill="#0592d0"/>
<circle cx="305.46153846153845" cy="104.5" r="1.8" fill="#0592d0"/>
<circle cx="319.3461538461538" cy="95" r="1.8" fill="#0592d0"/>
<circle cx="319.3461538461538" cy="104.5" r="1.8" fill="#0592d0"/>
<circle cx="333.23076923076917" cy="95" r="1.8" fill="#0592d0"/>
<circle cx="333.23076923076917" cy="104.5" r="1.8" fill="#0592d0"/>
<circle cx="347.1153846153846" cy="95" r="1.8" fill="#0592d0"/>
<circle cx="347.1153846153846" cy="104.5" r="1.8" fill="#0592d0"/>
<circle cx="360.99999999999994" cy="95" r="1.8" fill="#0592d0"/>
<circle cx="360.99999999999994" cy="104.5" r="1.8" fill="#0592d0"/>
<circle cx="374.88461538461536" cy="95" r="1.8" fill="#0592d0"/>
<circle cx="374.88461538461536" cy="104.5" r="1.8" fill="#0592d0"/>
<circle cx="388.7692307692307" cy="95" r="1.8" fill="#0592d0"/>
<circle cx="388.7692307692307" cy="104.5" r="1.8" fill="#0592d0"/>
<circle cx="402.65384615384613" cy="95" r="1.8" fill="#0592d0"/>
<circle cx="402.65384615384613" cy="104.5" r="1.8" fill="#0592d0"/>
<circle cx="430.4230769230769" cy="95" r="1.8" fill="#0592d0"/>
<circle cx="430.4230769230769" cy="104.5" r="1.8" fill="#0592d0"/>
<circle cx="444.30769230769226" cy="95" r="1.8" fill="#0592d0"/>
<circle cx="444.30769230769226" cy="104.5" r="1.8" fill="#0592d0"/>
<circle cx="458.1923076923076" cy="95" r="1.8" fill="#0592d0"/>
<circle cx="458.1923076923076" cy="104.5" r="1.8" fill="#0592d0"/>
<circle cx="69.42307692307692" cy="114" r="1.8" fill="#0592d0"/>
<circle cx="69.42307692307692" cy="123.5" r="1.8" fill="#0592d0"/>
<circle cx="83.30769230769229" cy="114" r="1.8" fill="#0592d0"/>
<circle cx="83.30769230769229" cy="123.5" r="1.8" fill="#0592d0"/>
<circle cx="97.19230769230768" cy="114" r="1.8" fill="#0592d0"/>
<circle cx="97.19230769230768" cy="123.5" r="1.8" fill="#0592d0"/>
<circle cx="124.96153846153845" cy="114" r="1.8" fill="#0592d0"/>
<circle cx="124.96153846153845" cy="123.5" r="1.8" fill="#0592d0"/>
<circle cx="138.84615384615384" cy="114" r="1.8" fill="#0592d0"/>
<circle cx="138.84615384615384" cy="123.5" r="1.8" fill="#0592d0"/>
<circle cx="152.73076923076923" cy="114" r="1.8" fill="#0592d0"/>
<circle cx="152.73076923076923" cy="123.5" r="1.8" fill="#0592d0"/>
<circle cx="166.61538461538458" cy="114" r="1.8" fill="#0592d0"/>
<circle cx="166.61538461538458" cy="123.5" r="1.8" fill="#0592d0"/>
<circle cx="180.49999999999997" cy="114" r="1.8" fill="#0592d0"/>
<circle cx="180.49999999999997" cy="123.5" r="1.8" fill="#0592d0"/>
<circle cx="194.38461538461536" cy="114" r="1.8" fill="#0592d0"/>
<circle cx="194.38461538461536" cy="123.5" r="1.8" fill="#0592d0"/>
<circle cx="208.26923076923075" cy="114" r="1.8" fill="#0592d0"/>
<circle cx="208.26923076923075" cy="123.5" r="1.8" fill="#0592d0"/>
<circle cx="222.15384615384613" cy="114" r="1.8" fill="#0592d0"/>
<circle cx="222.15384615384613" cy="123.5" r="1.8" fill="#0592d0"/>
<circle cx="236.03846153846152" cy="114" r="1.8" fill="#0592d0"/>
<circle cx="236.03846153846152" cy="123.5" r="1.8" fill="#0592d0"/>
<circle cx="291.57692307692304" cy="114" r="1.8" fill="#0592d0"/>
<circle cx="291.57692307692304" cy="123.5" r="1.8" fill="#0592d0"/>
<circle cx="305.46153846153845" cy="114" r="1.8" fill="#0592d0"/>
<circle cx="305.46153846153845" cy="123.5" r="1.8" fill="#0592d0"/>
<circle cx="319.3461538461538" cy="114" r="1.8" fill="#0592d0"/>
<circle cx="319.3461538461538" cy="123.5" r="1.8" fill="#0592d0"/>
<circle cx="333.23076923076917" cy="114" r="1.8" fill="#0592d0"/>
<circle cx="333.23076923076917" cy="123.5" r="1.8" fill="#0592d0"/>
<circle cx="347.1153846153846" cy="114" r="1.8" fill="#0592d0"/>
<circle cx="347.1153846153846" cy="123.5" r="1.8" fill="#0592d0"/>
<circle cx="360.99999999999994" cy="114" r="1.8" fill="#0592d0"/>
<circle cx="360.99999999999994" cy="123.5" r="1.8" fill="#0592d0"/>
<circle cx="374.88461538461536" cy="114" r="1.8" fill="#0592d0"/>
<circle cx="374.88461538461536" cy="123.5" r="1.8" fill="#0592d0"/>
<circle cx="388.7692307692307" cy="114" r="1.8" fill="#0592d0"/>
<circle cx="388.7692307692307" cy="123.5" r="1.8" fill="#0592d0"/>
<circle cx="402.65384615384613" cy="114" r="1.8" fill="#0592d0"/>
<circle cx="402.65384615384613" cy="123.5" r="1.8" fill="#0592d0"/>
<circle cx="430.4230769230769" cy="114" r="1.8" fill="#0592d0"/>
<circle cx="430.4230769230769" cy="123.5" r="1.8" fill="#0592d0"/>
<circle cx="444.30769230769226" cy="114" r="1.8" fill="#0592d0"/>
<circle cx="444.30769230769226" cy="123.5" r="1.8" fill="#0592d0"/>
<circle cx="458.1923076923076" cy="114" r="1.8" fill="#0592d0"/>
<circle cx="458.1923076923076" cy="123.5" r="1.8" fill="#0592d0"/>
<circle cx="69.42307692307692" cy="133" r="1.8" fill="#0592d0"/>
<circle cx="69.42307692307692" cy="142.5" r="1.8" fill="#0592d0"/>
<circle cx="83.30769230769229" cy="133" r="1.8" fill="#0592d0"/>
<circle cx="83.30769230769229" cy="142.5" r="1.8" fill="#0592d0"/>
<circle cx="97.19230769230768" cy="133" r="1.8" fill="#0592d0"/>
<circle cx="97.19230769230768" cy="142.5" r="1.8" fill="#0592d0"/>
<circle cx="124.96153846153845" cy="133" r="1.8" fill="#0592d0"/>
<circle cx="124.96153846153845" cy="142.5" r="1.8" fill="#0592d0"/>
<circle cx="138.84615384615384" cy="133" r="1.8" fill="#0592d0"/>
<circle cx="138.84615384615384" cy="142.5" r="1.8" fill="#0592d0"/>
<circle cx="152.73076923076923" cy="133" r="1.8" fill="#0592d0"/>
<circle cx="152.73076923076923" cy="142.5" r="1.8" fill="#0592d0"/>
<circle cx="236.03846153846152" cy="133" r="1.8" fill="#0592d0"/>
<circle cx="236.03846153846152" cy="142.5" r="1.8" fill="#0592d0"/>
<circle cx="249.9230769230769" cy="133" r="1.8" fill="#0592d0"/>
<circle cx="249.9230769230769" cy="142.5" r="1.8" fill="#0592d0"/>
<circle cx="263.80769230769226" cy="133" r="1.8" fill="#0592d0"/>
<circle cx="263.80769230769226" cy="142.5" r="1.8" fill="#0592d0"/>
<circle cx="277.6923076923077" cy="133" r="1.8" fill="#0592d0"/>
<circle cx="277.6923076923077" cy="142.5" r="1.8" fill="#0592d0"/>
<circle cx="291.57692307692304" cy="133" r="1.8" fill="#0592d0"/>
<circle cx="291.57692307692304" cy="142.5" r="1.8" fill="#0592d0"/>
<circle cx="374.88461538461536" cy="133" r="1.8" fill="#0592d0"/>
<circle cx="374.88461538461536" cy="142.5" r="1.8" fill="#0592d0"/>
<circle cx="388.7692307692307" cy="133" r="1.8" fill="#0592d0"/>
<circle cx="388.7692307692307" cy="142.5" r="1.8" fill="#0592d0"/>
<circle cx="402.65384615384613" cy="133" r="1.8" fill="#0592d0"/>
<circle cx="402.65384615384613" cy="142.5" r="1.8" fill="#0592d0"/>
<circle cx="430.4230769230769" cy="133" r="1.8" fill="#0592d0"/>
<circle cx="430.4230769230769" cy="142.5" r="1.8" fill="#0592d0"/>
<circle cx="444.30769230769226" cy="133" r="1.8" fill="#0592d0"/>
<circle cx="444.30769230769226" cy="142.5" r="1.8" fill="#0592d0"/>
<circle cx="458.1923076923076" cy="133" r="1.8" fill="#0592d0"/>
<circle cx="458.1923076923076" cy="142.5" r="1.8" fill="#0592d0"/>
<circle cx="69.42307692307692" cy="152" r="1.8" fill="#0592d0"/>
<circle cx="69.42307692307692" cy="161.5" r="1.8" fill="#0592d0"/>
<circle cx="83.30769230769229" cy="152" r="1.8" fill="#0592d0"/>
<circle cx="83.30769230769229" cy="161.5" r="1.8" fill="#0592d0"/>
<circle cx="97.19230769230768" cy="152" r="1.8" fill="#0592d0"/>
<circle cx="97.19230769230768" cy="161.5" r="1.8" fill="#0592d0"/>
<circle cx="124.96153846153845" cy="152" r="1.8" fill="#0592d0"/>
<circle cx="124.96153846153845" cy="161.5" r="1.8" fill="#0592d0"/>
<circle cx="138.84615384615384" cy="152" r="1.8" fill="#0592d0"/>
<circle cx="138.84615384615384" cy="161.5" r="1.8" fill="#0592d0"/>
<circle cx="152.73076923076923" cy="152" r="1.8" fill="#0592d0"/>
<circle cx="152.73076923076923" cy="161.5" r="1.8" fill="#0592d0"/>
<circle cx="166.61538461538458" cy="152" r="1.8" fill="#0592d0"/>
<circle cx="166.61538461538458" cy="161.5" r="1.8" fill="#0592d0"/>
<circle cx="360.99999999999994" cy="152" r="1.8" fill="#0592d0"/>
<circle cx="360.99999999999994" cy="161.5" r="1.8" fill="#0592d0"/>
<circle cx="374.88461538461536" cy="152" r="1.8" fill="#0592d0"/>
<circle cx="374.88461538461536" cy="161.5" r="1.8" fill="#0592d0"/>
<circle cx="388.7692307692307" cy="152" r="1.8" fill="#0592d0"/>
<circle cx="388.7692307692307" cy="161.5" r="1.8" fill="#0592d0"/>
<circle cx="402.65384615384613" cy="152" r="1.8" fill="#0592d0"/>
<circle cx="402.65384615384613" cy="161.5" r="1.8" fill="#0592d0"/>
<circle cx="430.4230769230769" cy="152" r="1.8" fill="#0592d0"/>
<circle cx="430.4230769230769" cy="161.5" r="1.8" fill="#0592d0"/>
<circle cx="444.30769230769226" cy="152" r="1.8" fill="#0592d0"/>
<circle cx="444.30769230769226" cy="161.5" r="1.8" fill="#0592d0"/>
<circle cx="458.1923076923076" cy="152" r="1.8" fill="#0592d0"/>
<circle cx="458.1923076923076" cy="161.5" r="1.8" fill="#0592d0"/>
<circle cx="69.42307692307692" cy="171" r="1.8" fill="#0592d0"/>
<circle cx="69.42307692307692" cy="180.5" r="1.8" fill="#0592d0"/>
<circle cx="83.30769230769229" cy="171" r="1.8" fill="#0592d0"/>
<circle cx="83.30769230769229" cy="180.5" r="1.8" fill="#0592d0"/>
<circle cx="97.19230769230768" cy="171" r="1.8" fill="#0592d0"/>
<circle cx="97.19230769230768" cy="180.5" r="1.8" fill="#0592d0"/>
<circle cx="152.73076923076923" cy="171" r="1.8" fill="#0592d0"/>
<circle cx="152.73076923076923" cy="180.5" r="1.8" fill="#0592d0"/>
<circle cx="166.61538461538458" cy="171" r="1.8" fill="#0592d0"/>
<circle cx="166.61538461538458" cy="180.5" r="1.8" fill="#0592d0"/>
<circle cx="180.49999999999997" cy="171" r="1.8" fill="#0592d0"/>
<circle cx="180.49999999999997" cy="180.5" r="1.8" fill="#0592d0"/>
<circle cx="347.1153846153846" cy="171" r="1.8" fill="#0592d0"/>
<circle cx="347.1153846153846" cy="180.5" r="1.8" fill="#0592d0"/>
<circle cx="360.99999999999994" cy="171" r="1.8" fill="#0592d0"/>
<circle cx="360.99999999999994" cy="180.5" r="1.8" fill="#0592d0"/>
<circle cx="374.88461538461536" cy="171" r="1.8" fill="#0592d0"/>
<circle cx="374.88461538461536" cy="180.5" r="1.8" fill="#0592d0"/>
<circle cx="430.4230769230769" cy="171" r="1.8" fill="#0592d0"/>
<circle cx="430.4230769230769" cy="180.5" r="1.8" fill="#0592d0"/>
<circle cx="444.30769230769226" cy="171" r="1.8" fill="#0592d0"/>
<circle cx="444.30769230769226" cy="180.5" r="1.8" fill="#0592d0"/>
<circle cx="458.1923076923076" cy="171" r="1.8" fill="#0592d0"/>
<circle cx="458.1923076923076" cy="180.5" r="1.8" fill="#0592d0"/>
<circle cx="69.42307692307692" cy="190" r="1.8" fill="#0592d0"/>
<circle cx="69.42307692307692" cy="199.5" r="1.8" fill="#0592d0"/>
<circle cx="83.30769230769229" cy="190" r="1.8" fill="#0592d0"/>
<circle cx="83.30769230769229" cy="199.5" r="1.8" fill="#0592d0"/>
<circle cx="97.19230769230768" cy="190" r="1.8" fill="#0592d0"/>
<circle cx="97.19230769230768" cy="199.5" r="1.8" fill="#0592d0"/>
<circle cx="180.49999999999997" cy="190" r="1.8" fill="#0592d0"/>
<circle cx="180.49999999999997" cy="199.5" r="1.8" fill="#0592d0"/>
<circle cx="194.38461538461536" cy="190" r="1.8" fill="#0592d0"/>
<circle cx="194.38461538461536" cy="199.5" r="1.8" fill="#0592d0"/>
<circle cx="208.26923076923075" cy="190" r="1.8" fill="#0592d0"/>
<circle cx="208.26923076923075" cy="199.5" r="1.8" fill="#0592d0"/>
<circle cx="319.3461538461538" cy="190" r="1.8" fill="#0592d0"/>
<circle cx="319.3461538461538" cy="199.5" r="1.8" fill="#0592d0"/>
<circle cx="333.23076923076917" cy="190" r="1.8" fill="#0592d0"/>
<circle cx="333.23076923076917" cy="199.5" r="1.8" fill="#0592d0"/>
<circle cx="347.1153846153846" cy="190" r="1.8" fill="#0592d0"/>
<circle cx="347.1153846153846" cy="199.5" r="1.8" fill="#0592d0"/>
<circle cx="430.4230769230769" cy="190" r="1.8" fill="#0592d0"/>
<circle cx="430.4230769230769" cy="199.5" r="1.8" fill="#0592d0"/>
<circle cx="444.30769230769226" cy="190" r="1.8" fill="#0592d0"/>
<circle cx="444.30769230769226" cy="199.5" r="1.8" fill="#0592d0"/>
<circle cx="458.1923076923076" cy="190" r="1.8" fill="#0592d0"/>
<circle cx="458.1923076923076" cy="199.5" r="1.8" fill="#0592d0"/>
<circle cx="69.42307692307692" cy="209" r="1.8" fill="#0592d0"/>
<circle cx="69.42307692307692" cy="218.5" r="1.8" fill="#0592d0"/>
<circle cx="83.30769230769229" cy="209" r="1.8" fill="#0592d0"/>
<circle cx="83.30769230769229" cy="218.5" r="1.8" fill="#0592d0"/>
<circle cx="97.19230769230768" cy="209" r="1.8" fill="#0592d0"/>
<circle cx="97.19230769230768" cy="218.5" r="1.8" fill="#0592d0"/>
<circle cx="208.26923076923075" cy="209" r="1.8" fill="#0592d0"/>
<circle cx="208.26923076923075" cy="218.5" r="1.8" fill="#0592d0"/>
<circle cx="222.15384615384613" cy="209" r="1.8" fill="#0592d0"/>
<circle cx="222.15384615384613" cy="218.5" r="1.8" fill="#0592d0"/>
<circle cx="236.03846153846152" cy="209" r="1.8" fill="#0592d0"/>
<circle cx="236.03846153846152" cy="218.5" r="1.8" fill="#0592d0"/>
<circle cx="249.9230769230769" cy="209" r="1.8" fill="#0592d0"/>
<circle cx="249.9230769230769" cy="218.5" r="1.8" fill="#0592d0"/>
<circle cx="263.80769230769226" cy="209" r="1.8" fill="#0592d0"/>
<circle cx="263.80769230769226" cy="218.5" r="1.8" fill="#0592d0"/>
<circle cx="277.6923076923077" cy="209" r="1.8" fill="#0592d0"/>
<circle cx="277.6923076923077" cy="218.5" r="1.8" fill="#0592d0"/>
<circle cx="291.57692307692304" cy="209" r="1.8" fill="#0592d0"/>
<circle cx="291.57692307692304" cy="218.5" r="1.8" fill="#0592d0"/>
<circle cx="305.46153846153845" cy="209" r="1.8" fill="#0592d0"/>
<circle cx="305.46153846153845" cy="218.5" r="1.8" fill="#0592d0"/>
<circle cx="319.3461538461538" cy="209" r="1.8" fill="#0592d0"/>
<circle cx="319.3461538461538" cy="218.5" r="1.8" fill="#0592d0"/>
<circle cx="430.4230769230769" cy="209" r="1.8" fill="#0592d0"/>
<circle cx="430.4230769230769" cy="218.5" r="1.8" fill="#0592d0"/>
<circle cx="444.30769230769226" cy="209" r="1.8" fill="#0592d0"/>
<circle cx="444.30769230769226" cy="218.5" r="1.8" fill="#0592d0"/>
<circle cx="458.1923076923076" cy="209" r="1.8" fill="#0592d0"/>
<circle cx="458.1923076923076" cy="218.5" r="1.8" fill="#0592d0"/>
<circle cx="69.42307692307692" cy="228" r="1.8" fill="#0592d0"/>
<circle cx="69.42307692307692" cy="237.5" r="1.8" fill="#0592d0"/>
<circle cx="83.30769230769229" cy="228" r="1.8" fill="#0592d0"/>
<circle cx="83.30769230769229" cy="237.5" r="1.8" fill="#0592d0"/>
<circle cx="97.19230769230768" cy="228" r="1.8" fill="#0592d0"/>
<circle cx="97.19230769230768" cy="237.5" r="1.8" fill="#0592d0"/>
<circle cx="236.03846153846152" cy="228" r="1.8" fill="#0592d0"/>
<circle cx="236.03846153846152" cy="237.5" r="1.8" fill="#0592d0"/>
<circle cx="249.9230769230769" cy="228" r="1.8" fill="#0592d0"/>
<circle cx="249.9230769230769" cy="237.5" r="1.8" fill="#0592d0"/>
<circle cx="263.80769230769226" cy="228" r="1.8" fill="#0592d0"/>
<circle cx="263.80769230769226" cy="237.5" r="1.8" fill="#0592d0"/>
<circle cx="277.6923076923077" cy="228" r="1.8" fill="#0592d0"/>
<circle cx="277.6923076923077" cy="237.5" r="1.8" fill="#0592d0"/>
<circle cx="291.57692307692304" cy="228" r="1.8" fill="#0592d0"/>
<circle cx="291.57692307692304" cy="237.5" r="1.8" fill="#0592d0"/>
<circle cx="430.4230769230769" cy="228" r="1.8" fill="#0592d0"/>
<circle cx="430.4230769230769" cy="237.5" r="1.8" fill="#0592d0"/>
<circle cx="444.30769230769226" cy="228" r="1.8" fill="#0592d0"/>
<circle cx="444.30769230769226" cy="237.5" r="1.8" fill="#0592d0"/>
<circle cx="458.1923076923076" cy="228" r="1.8" fill="#0592d0"/>
<circle cx="458.1923076923076" cy="237.5" r="1.8" fill="#0592d0"/>
<circle cx="69.42307692307692" cy="247" r="1.8" fill="#0592d0"/>
<circle cx="69.42307692307692" cy="256.5" r="1.8" fill="#0592d0"/>
<circle cx="83.30769230769229" cy="247" r="1.8" fill="#0592d0"/>
<circle cx="83.30769230769229" cy="256.5" r="1.8" fill="#0592d0"/>
<circle cx="97.19230769230768" cy="247" r="1.8" fill="#0592d0"/>
<circle cx="97.19230769230768" cy="256.5" r="1.8" fill="#0592d0"/>
<circle cx="249.9230769230769" cy="247" r="1.8" fill="#0592d0"/>
<circle cx="249.9230769230769" cy="256.5" r="1.8" fill="#0592d0"/>
<circle cx="263.80769230769226" cy="247" r="1.8" fill="#0592d0"/>
<circle cx="263.80769230769226" cy="256.5" r="1.8" fill="#0592d0"/>
<circle cx="277.6923076923077" cy="247" r="1.8" fill="#0592d0"/>
<circle cx="277.6923076923077" cy="256.5" r="1.8" fill="#0592d0"/>
<circle cx="430.4230769230769" cy="247" r="1.8" fill="#0592d0"/>
<circle cx="430.4230769230769" cy="256.5" r="1.8" fill="#0592d0"/>
<circle cx="444.30769230769226" cy="247" r="1.8" fill="#0592d0"/>
<circle cx="444.30769230769226" cy="256.5" r="1.8" fill="#0592d0"/>
<circle cx="458.1923076923076" cy="247" r="1.8" fill="#0592d0"/>
<circle cx="458.1923076923076" cy="256.5" r="1.8" fill="#0592d0"/>
<circle cx="69.42307692307692" cy="266" r="1.8" fill="#0592d0"/>
<circle cx="69.42307692307692" cy="275.5" r="1.8" fill="#0592d0"/>
<circle cx="83.30769230769229" cy="266" r="1.8" fill="#0592d0"/>
<circle cx="83.30769230769229" cy="275.5" r="1.8" fill="#0592d0"/>
<circle cx="97.19230769230768" cy="266" r="1.8" fill="#0592d0"/>
<circle cx="97.19230769230768" cy="275.5" r="1.8" fill="#0592d0"/>
<circle cx="222.15384615384613" cy="266" r="1.8" fill="#0592d0"/>
<circle cx="222.15384615384613" cy="275.5" r="1.8" fill="#0592d0"/>
<circle cx="236.03846153846152" cy="266" r="1.8" fill="#0592d0"/>
<circle cx="236.03846153846152" cy="275.5" r="1.8" fill="#0592d0"/>
<circle cx="249.9230769230769" cy="266" r="1.8" fill="#0592d0"/>
<circle cx="249.9230769230769" cy="275.5" r="1.8" fill="#0592d0"/>
<circle cx="263.80769230769226" cy="266" r="1.8" fill="#0592d0"/>
<circle cx="263.80769230769226" cy="275.5" r="1.8" fill="#0592d0"/>
<circle cx="277.6923076923077" cy="266" r="1.8" fill="#0592d0"/>
<circle cx="277.6923076923077" cy="275.5" r="1.8" fill="#0592d0"/>
<circle cx="291.57692307692304" cy="266" r="1.8" fill="#0592d0"/>
<circle cx="291.57692307692304" cy="275.5" r="1.8" fill="#0592d0"/>
<circle cx="305.46153846153845" cy="266" r="1.8" fill="#0592d0"/>
<circle cx="305.46153846153845" cy="275.5" r="1.8" fill="#0592d0"/>
<circle cx="430.4230769230769" cy="266" r="1.8" fill="#0592d0"/>
<circle cx="430.4230769230769" cy="275.5" r="1.8" fill="#0592d0"/>
<circle cx="444.30769230769226" cy="266" r="1.8" fill="#0592d0"/>
<circle cx="444.30769230769226" cy="275.5" r="1.8" fill="#0592d0"/>
<circle cx="458.1923076923076" cy="266" r="1.8" fill="#0592d0"/>
<circle cx="458.1923076923076" cy="275.5" r="1.8" fill="#0592d0"/>
<circle cx="69.42307692307692" cy="285" r="1.8" fill="#0592d0"/>
<circle cx="69.42307692307692" cy="294.5" r="1.8" fill="#0592d0"/>
<circle cx="83.30769230769229" cy="285" r="1.8" fill="#0592d0"/>
<circle cx="83.30769230769229" cy="294.5" r="1.8" fill="#0592d0"/>
<circle cx="97.19230769230768" cy="285" r="1.8" fill="#0592d0"/>
<circle cx="97.19230769230768" cy="294.5" r="1.8" fill="#0592d0"/>
<circle cx="249.9230769230769" cy="285" r="1.8" fill="#0592d0"/>
<circle cx="249.9230769230769" cy="294.5" r="1.8" fill="#0592d0"/>
<circle cx="263.80769230769226" cy="285" r="1.8" fill="#0592d0"/>
<circle cx="263.80769230769226" cy="294.5" r="1.8" fill="#0592d0"/>
<circle cx="277.6923076923077" cy="285" r="1.8" fill="#0592d0"/>
<circle cx="277.6923076923077" cy="294.5" r="1.8" fill="#0592d0"/>
<circle cx="430.4230769230769" cy="285" r="1.8" fill="#0592d0"/>
<circle cx="430.4230769230769" cy="294.5" r="1.8" fill="#0592d0"/>
<circle cx="444.30769230769226" cy="285" r="1.8" fill="#0592d0"/>
<circle cx="444.30769230769226" cy="294.5" r="1.8" fill="#0592d0"/>
<circle cx="458.1923076923076" cy="285" r="1.8" fill="#0592d0"/>
<circle cx="458.1923076923076" cy="294.5" r="1.8" fill="#0592d0"/>
<circle cx="69.42307692307692" cy="304" r="1.8" fill="#0592d0"/>
<circle cx="69.42307692307692" cy="313.5" r="1.8" fill="#0592d0"/>
<circle cx="83.30769230769229" cy="304" r="1.8" fill="#0592d0"/>
<circle cx="83.30769230769229" cy="313.5" r="1.8" fill="#0592d0"/>
<circle cx="97.19230769230768" cy="304" r="1.8" fill="#0592d0"/>
<circle cx="97.19230769230768" cy="313.5" r="1.8" fill="#0592d0"/>
<circle cx="249.9230769230769" cy="304" r="1.8" fill="#0592d0"/>
<circle cx="249.9230769230769" cy="313.5" r="1.8" fill="#0592d0"/>
<circle cx="263.80769230769226" cy="304" r="1.8" fill="#0592d0"/>
<circle cx="263.80769230769226" cy="313.5" r="1.8" fill="#0592d0"/>
<circle cx="277.6923076923077" cy="304" r="1.8" fill="#0592d0"/>
<circle cx="277.6923076923077" cy="313.5" r="1.8" fill="#0592d0"/>
<circle cx="430.4230769230769" cy="304" r="1.8" fill="#0592d0"/>
<circle cx="430.4230769230769" cy="313.5" r="1.8" fill="#0592d0"/>
<circle cx="444.30769230769226" cy="304" r="1.8" fill="#0592d0"/>
<circle cx="444.30769230769226" cy="313.5" r="1.8" fill="#0592d0"/>
<circle cx="458.1923076923076" cy="304" r="1.8" fill="#0592d0"/>
<circle cx="458.1923076923076" cy="313.5" r="1.8" fill="#0592d0"/>
<circle cx="69.42307692307692" cy="323" r="1.8" fill="#0592d0"/>
<circle cx="69.42307692307692" cy="332.5" r="1.8" fill="#0592d0"/>
<circle cx="83.30769230769229" cy="323" r="1.8" fill="#0592d0"/>
<circle cx="83.30769230769229" cy="332.5" r="1.8" fill="#0592d0"/>
<circle cx="97.19230769230768" cy="323" r="1.8" fill="#0592d0"/>
<circle cx="97.19230769230768" cy="332.5" r="1.8" fill="#0592d0"/>
<circle cx="249.9230769230769" cy="323" r="1.8" fill="#0592d0"/>
<circle cx="249.9230769230769" cy="332.5" r="1.8" fill="#0592d0"/>
<circle cx="263.80769230769226" cy="323" r="1.8" fill="#0592d0"/>
<circle cx="263.80769230769226" cy="332.5" r="1.8" fill="#0592d0"/>
<circle cx="277.6923076923077" cy="323" r="1.8" fill="#0592d0"/>
<circle cx="277.6923076923077" cy="332.5" r="1.8" fill="#0592d0"/>
<circle cx="430.4230769230769" cy="323" r="1.8" fill="#0592d0"/>
<circle cx="430.4230769230769" cy="332.5" r="1.8" fill="#0592d0"/>
<circle cx="444.30769230769226" cy="323" r="1.8" fill="#0592d0"/>
<circle cx="444.30769230769226" cy="332.5" r="1.8" fill="#0592d0"/>
<circle cx="458.1923076923076" cy="323" r="1.8" fill="#0592d0"/>
<circle cx="458.1923076923076" cy="332.5" r="1.8" fill="#0592d0"/>
<circle cx="69.42307692307692" cy="342" r="1.8" fill="#0592d0"/>
<circle cx="69.42307692307692" cy="351.5" r="1.8" fill="#0592d0"/>
<circle cx="83.30769230769229" cy="342" r="1.8" fill="#0592d0"/>
<circle cx="83.30769230769229" cy="351.5" r="1.8" fill="#0592d0"/>
<circle cx="97.19230769230768" cy="342" r="1.8" fill="#0592d0"/>
<circle cx="97.19230769230768" cy="351.5" r="1.8" fill="#0592d0"/>
<circle cx="152.73076923076923" cy="342" r="1.8" fill="#0592d0"/>
<circle cx="152.73076923076923" cy="351.5" r="1.8" fill="#0592d0"/>
<circle cx="166.61538461538458" cy="342" r="1.8" fill="#0592d0"/>
<circle cx="166.61538461538458" cy="351.5" r="1.8" fill="#0592d0"/>
<circle cx="180.49999999999997" cy="342" r="1.8" fill="#0592d0"/>
<circle cx="180.49999999999997" cy="351.5" r="1.8" fill="#0592d0"/>
<circle cx="194.38461538461536" cy="342" r="1.8" fill="#0592d0"/>
<circle cx="194.38461538461536" cy="351.5" r="1.8" fill="#0592d0"/>
<circle cx="208.26923076923075" cy="342" r="1.8" fill="#0592d0"/>
<circle cx="208.26923076923075" cy="351.5" r="1.8" fill="#0592d0"/>
<circle cx="249.9230769230769" cy="342" r="1.8" fill="#0592d0"/>
<circle cx="249.9230769230769" cy="351.5" r="1.8" fill="#0592d0"/>
<circle cx="263.80769230769226" cy="342" r="1.8" fill="#0592d0"/>
<circle cx="263.80769230769226" cy="351.5" r="1.8" fill="#0592d0"/>
<circle cx="277.6923076923077" cy="342" r="1.8" fill="#0592d0"/>
<circle cx="277.6923076923077" cy="351.5" r="1.8" fill="#0592d0"/>
<circle cx="430.4230769230769" cy="342" r="1.8" fill="#0592d0"/>
<circle cx="430.4230769230769" cy="351.5" r="1.8" fill="#0592d0"/>
<circle cx="444.30769230769226" cy="342" r="1.8" fill="#0592d0"/>
<circle cx="444.30769230769226" cy="351.5" r="1.8" fill="#0592d0"/>
<circle cx="458.1923076923076" cy="342" r="1.8" fill="#0592d0"/>
<circle cx="458.1923076923076" cy="351.5" r="1.8" fill="#0592d0"/>
<circle cx="69.42307692307692" cy="361" r="1.8" fill="#0592d0"/>
<circle cx="69.42307692307692" cy="370.5" r="1.8" fill="#0592d0"/>
<circle cx="83.30769230769229" cy="361" r="1.8" fill="#0592d0"/>
<circle cx="83.30769230769229" cy="370.5" r="1.8" fill="#0592d0"/>
<circle cx="97.19230769230768" cy="361" r="1.8" fill="#0592d0"/>
<circle cx="97.19230769230768" cy="370.5" r="1.8" fill="#0592d0"/>
<circle cx="152.73076923076923" cy="361" r="1.8" fill="#0592d0"/>
<circle cx="152.73076923076923" cy="370.5" r="1.8" fill="#0592d0"/>
<circle cx="166.61538461538458" cy="361" r="1.8" fill="#0592d0"/>
<circle cx="166.61538461538458" cy="370.5" r="1.8" fill="#0592d0"/>
<circle cx="180.49999999999997" cy="361" r="1.8" fill="#0592d0"/>
<circle cx="180.49999999999997" cy="370.5" r="1.8" fill="#0592d0"/>
<circle cx="249.9230769230769" cy="361" r="1.8" fill="#0592d0"/>
<circle cx="249.9230769230769" cy="370.5" r="1.8" fill="#0592d0"/>
<circle cx="263.80769230769226" cy="361" r="1.8" fill="#0592d0"/>
<circle cx="263.80769230769226" cy="370.5" r="1.8" fill="#0592d0"/>
<circle cx="277.6923076923077" cy="361" r="1.8" fill="#0592d0"/>
<circle cx="277.6923076923077" cy="370.5" r="1.8" fill="#0592d0"/>
<circle cx="430.4230769230769" cy="361" r="1.8" fill="#0592d0"/>
<circle cx="430.4230769230769" cy="370.5" r="1.8" fill="#0592d0"/>
<circle cx="444.30769230769226" cy="361" r="1.8" fill="#0592d0"/>
<circle cx="444.30769230769226" cy="370.5" r="1.8" fill="#0592d0"/>
<circle cx="458.1923076923076" cy="361" r="1.8" fill="#0592d0"/>
<circle cx="458.1923076923076" cy="370.5" r="1.8" fill="#0592d0"/>
<circle cx="69.42307692307692" cy="380" r="1.8" fill="#0592d0"/>
<circle cx="69.42307692307692" cy="389.5" r="1.8" fill="#0592d0"/>
<circle cx="83.30769230769229" cy="380" r="1.8" fill="#0592d0"/>
<circle cx="83.30769230769229" cy="389.5" r="1.8" fill="#0592d0"/>
<circle cx="97.19230769230768" cy="380" r="1.8" fill="#0592d0"/>
<circle cx="97.19230769230768" cy="389.5" r="1.8" fill="#0592d0"/>
<circle cx="152.73076923076923" cy="380" r="1.8" fill="#0592d0"/>
<circle cx="152.73076923076923" cy="389.5" r="1.8" fill="#0592d0"/>
<circle cx="166.61538461538458" cy="380" r="1.8" fill="#0592d0"/>
<circle cx="166.61538461538458" cy="389.5" r="1.8" fill="#0592d0"/>
<circle cx="180.49999999999997" cy="380" r="1.8" fill="#0592d0"/>
<circle cx="180.49999999999997" cy="389.5" r="1.8" fill="#0592d0"/>
<circle cx="249.9230769230769" cy="380" r="1.8" fill="#0592d0"/>
<circle cx="249.9230769230769" cy="389.5" r="1.8" fill="#0592d0"/>
<circle cx="263.80769230769226" cy="380" r="1.8" fill="#0592d0"/>
<circle cx="263.80769230769226" cy="389.5" r="1.8" fill="#0592d0"/>
<circle cx="277.6923076923077" cy="380" r="1.8" fill="#0592d0"/>
<circle cx="277.6923076923077" cy="389.5" r="1.8" fill="#0592d0"/>
<circle cx="430.4230769230769" cy="380" r="1.8" fill="#0592d0"/>
<circle cx="430.4230769230769" cy="389.5" r="1.8" fill="#0592d0"/>
<circle cx="444.30769230769226" cy="380" r="1.8" fill="#0592d0"/>
<circle cx="444.30769230769226" cy="389.5" r="1.8" fill="#0592d0"/>
<circle cx="458.1923076923076" cy="380" r="1.8" fill="#0592d0"/>
<circle cx="458.1923076923076" cy="389.5" r="1.8" fill="#0592d0"/>
<circle cx="69.42307692307692" cy="399" r="1.8" fill="#0592d0"/>
<circle cx="69.42307692307692" cy="408.5" r="1.8" fill="#0592d0"/>
<circle cx="83.30769230769229" cy="399" r="1.8" fill="#0592d0"/>
<circle cx="83.30769230769229" cy="408.5" r="1.8" fill="#0592d0"/>
<circle cx="97.19230769230768" cy="399" r="1.8" fill="#0592d0"/>
<circle cx="97.19230769230768" cy="408.5" r="1.8" fill="#0592d0"/>
<circle cx="111.07692307692307" cy="399" r="1.8" fill="#0592d0"/>
<circle cx="111.07692307692307" cy="408.5" r="1.8" fill="#0592d0"/>
<circle cx="166.61538461538458" cy="399" r="1.8" fill="#0592d0"/>
<circle cx="166.61538461538458" cy="408.5" r="1.8" fill="#0592d0"/>
<circle cx="180.49999999999997" cy="399" r="1.8" fill="#0592d0"/>
<circle cx="180.49999999999997" cy="408.5" r="1.8" fill="#0592d0"/>
<circle cx="194.38461538461536" cy="399" r="1.8" fill="#0592d0"/>
<circle cx="194.38461538461536" cy="408.5" r="1.8" fill="#0592d0"/>
<circle cx="208.26923076923075" cy="399" r="1.8" fill="#0592d0"/>
<circle cx="208.26923076923075" cy="408.5" r="1.8" fill="#0592d0"/>
<circle cx="222.15384615384613" cy="399" r="1.8" fill="#0592d0"/>
<circle cx="222.15384615384613" cy="408.5" r="1.8" fill="#0592d0"/>
<circle cx="236.03846153846152" cy="399" r="1.8" fill="#0592d0"/>
<circle cx="236.03846153846152" cy="408.5" r="1.8" fill="#0592d0"/>
<circle cx="249.9230769230769" cy="399" r="1.8" fill="#0592d0"/>
<circle cx="249.9230769230769" cy="408.5" r="1.8" fill="#0592d0"/>
<circle cx="263.80769230769226" cy="399" r="1.8" fill="#0592d0"/>
<circle cx="263.80769230769226" cy="408.5" r="1.8" fill="#0592d0"/>
<circle cx="277.6923076923077" cy="399" r="1.8" fill="#0592d0"/>
<circle cx="277.6923076923077" cy="408.5" r="1.8" fill="#0592d0"/>
<circle cx="416.5384615384615" cy="399" r="1.8" fill="#0592d0"/>
<circle cx="416.5384615384615" cy="408.5" r="1.8" fill="#0592d0"/>
<circle cx="430.4230769230769" cy="399" r="1.8" fill="#0592d0"/>
<circle cx="430.4230769230769" cy="408.5" r="1.8" fill="#0592d0"/>
<circle cx="444.30769230769226" cy="399" r="1.8" fill="#0592d0"/>
<circle cx="444.30769230769226" cy="408.5" r="1.8" fill="#0592d0"/>
<circle cx="458.1923076923076" cy="399" r="1.8" fill="#0592d0"/>
<circle cx="458.1923076923076" cy="408.5" r="1.8" fill="#0592d0"/>
<circle cx="83.30769230769229" cy="418" r="1.8" fill="#0592d0"/>
<circle cx="83.30769230769229" cy="427.5" r="1.8" fill="#0592d0"/>
<circle cx="97.19230769230768" cy="418" r="1.8" fill="#0592d0"/>
<circle cx="97.19230769230768" cy="427.5" r="1.8" fill="#0592d0"/>
<circle cx="111.07692307692307" cy="418" r="1.8" fill="#0592d0"/>
<circle cx="111.07692307692307" cy="427.5" r="1.8" fill="#0592d0"/>
<circle cx="124.96153846153845" cy="418" r="1.8" fill="#0592d0"/>
<circle cx="124.96153846153845" cy="427.5" r="1.8" fill="#0592d0"/>
<circle cx="138.84615384615384" cy="418" r="1.8" fill="#0592d0"/>
<circle cx="138.84615384615384" cy="427.5" r="1.8" fill="#0592d0"/>
<circle cx="180.49999999999997" cy="418" r="1.8" fill="#0592d0"/>
<circle cx="180.49999999999997" cy="427.5" r="1.8" fill="#0592d0"/>
<circle cx="194.38461538461536" cy="418" r="1.8" fill="#0592d0"/>
<circle cx="194.38461538461536" cy="427.5" r="1.8" fill="#0592d0"/>
<circle cx="208.26923076923075" cy="418" r="1.8" fill="#0592d0"/>
<circle cx="208.26923076923075" cy="427.5" r="1.8" fill="#0592d0"/>
<circle cx="222.15384615384613" cy="418" r="1.8" fill="#0592d0"/>
<circle cx="222.15384615384613" cy="427.5" r="1.8" fill="#0592d0"/>
<circle cx="236.03846153846152" cy="418" r="1.8" fill="#0592d0"/>
<circle cx="236.03846153846152" cy="427.5" r="1.8" fill="#0592d0"/>
<circle cx="249.9230769230769" cy="418" r="1.8" fill="#0592d0"/>
<circle cx="249.9230769230769" cy="427.5" r="1.8" fill="#0592d0"/>
<circle cx="263.80769230769226" cy="418" r="1.8" fill="#0592d0"/>
<circle cx="263.80769230769226" cy="427.5" r="1.8" fill="#0592d0"/>
<circle cx="277.6923076923077" cy="418" r="1.8" fill="#0592d0"/>
<circle cx="277.6923076923077" cy="427.5" r="1.8" fill="#0592d0"/>
<circle cx="388.7692307692307" cy="418" r="1.8" fill="#0592d0"/>
<circle cx="388.7692307692307" cy="427.5" r="1.8" fill="#0592d0"/>
<circle cx="402.65384615384613" cy="418" r="1.8" fill="#0592d0"/>
<circle cx="402.65384615384613" cy="427.5" r="1.8" fill="#0592d0"/>
<circle cx="416.5384615384615" cy="418" r="1.8" fill="#0592d0"/>
<circle cx="416.5384615384615" cy="427.5" r="1.8" fill="#0592d0"/>
<circle cx="430.4230769230769" cy="418" r="1.8" fill="#0592d0"/>
<circle cx="430.4230769230769" cy="427.5" r="1.8" fill="#0592d0"/>
<circle cx="444.30769230769226" cy="418" r="1.8" fill="#0592d0"/>
<circle cx="444.30769230769226" cy="427.5" r="1.8" fill="#0592d0"/>
<circle cx="111.07692307692307" cy="437" r="1.8" fill="#0592d0"/>
<circle cx="111.07692307692307" cy="446.5" r="1.8" fill="#0592d0"/>
<circle cx="124.96153846153845" cy="437" r="1.8" fill="#0592d0"/>
<circle cx="124.96153846153845" cy="446.5" r="1.8" fill="#0592d0"/>
<circle cx="138.84615384615384" cy="437" r="1.8" fill="#0592d0"/>
<circle cx="138.84615384615384" cy="446.5" r="1.8" fill="#0592d0"/>
<circle cx="152.73076923076923" cy="437" r="1.8" fill="#0592d0"/>
<circle cx="152.73076923076923" cy="446.5" r="1.8" fill="#0592d0"/>
<circle cx="166.61538461538458" cy="437" r="1.8" fill="#0592d0"/>
<circle cx="166.61538461538458" cy="446.5" r="1.8" fill="#0592d0"/>
<circle cx="208.26923076923075" cy="437" r="1.8" fill="#0592d0"/>
<circle cx="208.26923076923075" cy="446.5" r="1.8" fill="#0592d0"/>
<circle cx="249.9230769230769" cy="437" r="1.8" fill="#0592d0"/>
<circle cx="249.9230769230769" cy="446.5" r="1.8" fill="#0592d0"/>
<circle cx="263.80769230769226" cy="437" r="1.8" fill="#0592d0"/>
<circle cx="263.80769230769226" cy="446.5" r="1.8" fill="#0592d0"/>
<circle cx="277.6923076923077" cy="437" r="1.8" fill="#0592d0"/>
<circle cx="277.6923076923077" cy="446.5" r="1.8" fill="#0592d0"/>
<circle cx="374.88461538461536" cy="437" r="1.8" fill="#0592d0"/>
<circle cx="374.88461538461536" cy="446.5" r="1.8" fill="#0592d0"/>
<circle cx="388.7692307692307" cy="437" r="1.8" fill="#0592d0"/>
<circle cx="388.7692307692307" cy="446.5" r="1.8" fill="#0592d0"/>
<circle cx="402.65384615384613" cy="437" r="1.8" fill="#0592d0"/>
<circle cx="402.65384615384613" cy="446.5" r="1.8" fill="#0592d0"/>
<circle cx="416.5384615384615" cy="437" r="1.8" fill="#0592d0"/>
<circle cx="416.5384615384615" cy="446.5" r="1.8" fill="#0592d0"/>
<circle cx="138.84615384615384" cy="456" r="1.8" fill="#0592d0"/>
<circle cx="138.84615384615384" cy="465.5" r="1.8" fill="#0592d0"/>
<circle cx="152.73076923076923" cy="456" r="1.8" fill="#0592d0"/>
<circle cx="152.73076923076923" cy="465.5" r="1.8" fill="#0592d0"/>
<circle cx="166.61538461538458" cy="456" r="1.8" fill="#0592d0"/>
<circle cx="166.61538461538458" cy="465.5" r="1.8" fill="#0592d0"/>
<circle cx="180.49999999999997" cy="456" r="1.8" fill="#0592d0"/>
<circle cx="180.49999999999997" cy="465.5" r="1.8" fill="#0592d0"/>
<circle cx="249.9230769230769" cy="456" r="1.8" fill="#0592d0"/>
<circle cx="249.9230769230769" cy="465.5" r="1.8" fill="#0592d0"/>
<circle cx="263.80769230769226" cy="456" r="1.8" fill="#0592d0"/>
<circle cx="263.80769230769226" cy="465.5" r="1.8" fill="#0592d0"/>
<circle cx="277.6923076923077" cy="456" r="1.8" fill="#0592d0"/>
<circle cx="277.6923076923077" cy="465.5" r="1.8" fill="#0592d0"/>
<circle cx="347.1153846153846" cy="456" r="1.8" fill="#0592d0"/>
<circle cx="347.1153846153846" cy="465.5" r="1.8" fill="#0592d0"/>
<circle cx="360.99999999999994" cy="456" r="1.8" fill="#0592d0"/>
<circle cx="360.99999999999994" cy="465.5" r="1.8" fill="#0592d0"/>
<circle cx="374.88461538461536" cy="456" r="1.8" fill="#0592d0"/>
<circle cx="374.88461538461536" cy="465.5" r="1.8" fill="#0592d0"/>
<circle cx="388.7692307692307" cy="456" r="1.8" fill="#0592d0"/>
<circle cx="388.7692307692307" cy="465.5" r="1.8" fill="#0592d0"/>
<circle cx="166.61538461538458" cy="475" r="1.8" fill="#0592d0"/>
<circle cx="166.61538461538458" cy="484.5" r="1.8" fill="#0592d0"/>
<circle cx="180.49999999999997" cy="475" r="1.8" fill="#0592d0"/>
<circle cx="180.49999999999997" cy="484.5" r="1.8" fill="#0592d0"/>
<circle cx="194.38461538461536" cy="475" r="1.8" fill="#0592d0"/>
<circle cx="194.38461538461536" cy="484.5" r="1.8" fill="#0592d0"/>
<circle cx="208.26923076923075" cy="475" r="1.8" fill="#0592d0"/>
<circle cx="208.26923076923075" cy="484.5" r="1.8" fill="#0592d0"/>
<circle cx="263.80769230769226" cy="475" r="1.8" fill="#0592d0"/>
<circle cx="263.80769230769226" cy="484.5" r="1.8" fill="#0592d0"/>
<circle cx="277.6923076923077" cy="475" r="1.8" fill="#0592d0"/>
<circle cx="277.6923076923077" cy="484.5" r="1.8" fill="#0592d0"/>
<circle cx="319.3461538461538" cy="475" r="1.8" fill="#0592d0"/>
<circle cx="319.3461538461538" cy="484.5" r="1.8" fill="#0592d0"/>
<circle cx="333.23076923076917" cy="475" r="1.8" fill="#0592d0"/>
<circle cx="333.23076923076917" cy="484.5" r="1.8" fill="#0592d0"/>
<circle cx="347.1153846153846" cy="475" r="1.8" fill="#0592d0"/>
<circle cx="347.1153846153846" cy="484.5" r="1.8" fill="#0592d0"/>
<circle cx="360.99999999999994" cy="475" r="1.8" fill="#0592d0"/>
<circle cx="360.99999999999994" cy="484.5" r="1.8" fill="#0592d0"/>
<circle cx="194.38461538461536" cy="494" r="1.8" fill="#0592d0"/>
<circle cx="194.38461538461536" cy="503.5" r="1.8" fill="#0592d0"/>
<circle cx="208.26923076923075" cy="494" r="1.8" fill="#0592d0"/>
<circle cx="208.26923076923075" cy="503.5" r="1.8" fill="#0592d0"/>
<circle cx="222.15384615384613" cy="494" r="1.8" fill="#0592d0"/>
<circle cx="222.15384615384613" cy="503.5" r="1.8" fill="#0592d0"/>
<circle cx="236.03846153846152" cy="494" r="1.8" fill="#0592d0"/>
<circle cx="236.03846153846152" cy="503.5" r="1.8" fill="#0592d0"/>
<circle cx="291.57692307692304" cy="494" r="1.8" fill="#0592d0"/>
<circle cx="291.57692307692304" cy="503.5" r="1.8" fill="#0592d0"/>
<circle cx="305.46153846153845" cy="494" r="1.8" fill="#0592d0"/>
<circle cx="305.46153846153845" cy="503.5" r="1.8" fill="#0592d0"/>
<circle cx="319.3461538461538" cy="494" r="1.8" fill="#0592d0"/>
<circle cx="319.3461538461538" cy="503.5" r="1.8" fill="#0592d0"/>
<circle cx="333.23076923076917" cy="494" r="1.8" fill="#0592d0"/>
<circle cx="333.23076923076917" cy="503.5" r="1.8" fill="#0592d0"/>
<circle cx="208.26923076923075" cy="513" r="1.8" fill="#0592d0"/>
<circle cx="208.26923076923075" cy="522.5" r="1.8" fill="#0592d0"/>
<circle cx="222.15384615384613" cy="513" r="1.8" fill="#0592d0"/>
<circle cx="222.15384615384613" cy="522.5" r="1.8" fill="#0592d0"/>
<circle cx="236.03846153846152" cy="513" r="1.8" fill="#0592d0"/>
<circle cx="236.03846153846152" cy="522.5" r="1.8" fill="#0592d0"/>
<circle cx="249.9230769230769" cy="513" r="1.8" fill="#0592d0"/>
<circle cx="249.9230769230769" cy="522.5" r="1.8" fill="#0592d0"/>
<circle cx="263.80769230769226" cy="513" r="1.8" fill="#0592d0"/>
<circle cx="263.80769230769226" cy="522.5" r="1.8" fill="#0592d0"/>
<circle cx="277.6923076923077" cy="513" r="1.8" fill="#0592d0"/>
<circle cx="277.6923076923077" cy="522.5" r="1.8" fill="#0592d0"/>
<circle cx="291.57692307692304" cy="513" r="1.8" fill="#0592d0"/>
<circle cx="291.57692307692304" cy="522.5" r="1.8" fill="#0592d0"/>
<circle cx="305.46153846153845" cy="513" r="1.8" fill="#0592d0"/>
<circle cx="305.46153846153845" cy="522.5" r="1.8" fill="#0592d0"/>
<circle cx="319.3461538461538" cy="513" r="1.8" fill="#0592d0"/>
<circle cx="319.3461538461538" cy="522.5" r="1.8" fill="#0592d0"/>
<circle cx="236.03846153846152" cy="532" r="1.8" fill="#0592d0"/>
<circle cx="236.03846153846152" cy="541.5" r="1.8" fill="#0592d0"/>
<circle cx="249.9230769230769" cy="532" r="1.8" fill="#0592d0"/>
<circle cx="249.9230769230769" cy="541.5" r="1.8" fill="#0592d0"/>
<circle cx="263.80769230769226" cy="532" r="1.8" fill="#0592d0"/>
<circle cx="263.80769230769226" cy="541.5" r="1.8" fill="#0592d0"/>
<circle cx="277.6923076923077" cy="532" r="1.8" fill="#0592d0"/>
<circle cx="277.6923076923077" cy="541.5" r="1.8" fill="#0592d0"/>
<circle cx="291.57692307692304" cy="532" r="1.8" fill="#0592d0"/>
<circle cx="291.57692307692304" cy="541.5" r="1.8" fill="#0592d0"/>
<circle cx="263.80769230769226" cy="551" r="1.8" fill="#0592d0"/>
<circle cx="263.80769230769226" cy="560.5" r="1.8" fill="#0592d0"/>
</svg>