<?xml version="1.0" encoding="UTF-8" standalone="no"?>
<svg xmlns="http://www.w3.org/2000/svg" version="1.1" height="540" width="532">
<desc>Ingress logos - By lll9p, No rights reserved, lll9p.china@gmail.com, http://imtho.com</desc>
<rect x="-2000%" y="-2000%" height="4000%" width="4000%" fill="black"/>
<circle cx="70" cy="27" r="1.8" fill="#0592d0"/>
<circle cx="84" cy="27" r="1.8" fill="#0592d0"/>
<circle cx="98" cy="27" r="1.8" fill="#0592d0"/>
<circle cx="112" cy="27" r="1.8" fill="#0592d0"/>
<circle cx="126" cy="27" r="1.8" fill="#0592d0"/>
<circle cx="140" cy="27" r="1.8" fill="#0592d0"/>
<circle cx="154" cy="27" r="1.8" fill="#0592d0"/>
<circle cx="168" cy="27" r="1.8" fill="#0592d0"/>
<circle cx="182" cy="27" r="1.8" fill="#0592d0"/>
<circle cx="196" cy="27" r="1.8" fill="#0592d0"/>
<circle cx="210" cy="27" r="1.8" fill="#0592d0"/>
<circle cx="224" cy="27" r="1.8" fill="#0592d0"/>
<circle cx="238" cy="27" r="1.8" fill="#0592d0"/>
<circle cx="294" cy="27" r="1.8" fill="#0592d0"/>
<circle cx="308" cy="27" r="1.8" fill="#0592d0"/>
<circle cx="322" cy="27" r="1.8" fill="#0592d0"/>
<circle cx="336" cy="27" r="1.8" fill="#0592d0"/>
<circle cx="350" cy="27" r="1.8" fill="#0592d0"/>
<circle cx="364" cy="27" r="1.8" fill="#0592d0"/>
<circle cx="378" cy="27" r="1.8" fill="#0592d0"/>
<circle cx="392" cy="27" r="1.8" fill="#0592d0"/>
<circle cx="406" cy="27" r="1.8" fill="#0592d0"/>
<circle cx="420" cy="27" r="1.8" fill="#0592d0"/>
<circle cx="434" cy="27" r="1.8" fill="#0592d0"/>
<circle cx="448" cy="27" r="1.8" fill="#0592d0"/>
<circle cx="462" cy="27" r="1.8" fill="#0592d0"/>
<circle cx="70" cy="36" r="1.8" fill="#0592d0"/>
<circle cx="84" cy="36" r="1.8" fill="#0592d0"/>
<circle cx="98" cy="36" r="1.8" fill="#0592d0"/>
<circle cx="112" cy="36" r="1.8" fill="#0592d0"/>
<circle cx="126" cy="36" r="1.8" fill="#0592d0"/>
<circle cx="140" cy="36" r="1.8" fill="#0592d0"/>
<circle cx="154" cy="36" r="1.8" fill="#0592d0"/>
<circle cx="168" cy="36" r="1.8" fill="#0592d0"/>
<circle cx="182" cy="36" r="1.8" fill="#0592d0"/>
<circle cx="196" cy="36" r="1.8" fill="#0592d0"/>
<circle cx="210" cy="36" r="1.8" fill="#0592d0"/>
<circle cx="224" cy="36" r="1.8" fill="#0592d0"/>
<circle cx="238" cy="36" r="1.8" fill="#0592d0"/>
<circle cx="294" cy="36" r="1.8" fill="#0592d0"/>
<circle cx="308" cy="36" r="1.8" fill="#0592d0"/>
<circle cx="322" cy="36" r="1.8" fill="#0592d0"/>
<circle cx="336" cy="36" r="1.8" fill="#0592d0"/>
<circle cx="350" cy="36" r="1.8" fill="#0592d0"/>
<circle cx="364" cy="36" r="1.8" fill="#0592d0"/>
<circle cx="378" cy="36" r="1.8" fill="#0592d0"/>
<circle cx="392" cy="36" r="1.8" fill="#0592d0"/>
<circle cx="406" cy="36" r="1.8" fill="#0592d0"/>
<circle cx="420" cy="36" r="1.8" fill="#0592d0"/>
<circle cx="434" cy="36" r="1.8" fill="#0592d0"/>
<circle cx="448" cy="36" r="1.8" fill="#0592d0"/>
<circle cx="462" cy="36" r="1.8" fill="#0592d0"/>
<circle cx="70" cy="45" r="1.8" fill="#0592d0"/>
<circle cx="84" cy="45" r="1.8" fill="#0592d0"/>
<circle cx="98" cy="45" r="1.8" fill="#0592d0"/>
<circle cx="252" cy="45" r="1.8" fill="#0592d0"/>
<circle cx="266" cy="45" r="1.8" fill="#0592d0"/>
<circle cx="280" cy="45" r="1.8" fill="#0592d0"/>
<circle cx="434" cy="45" r="1.8" fill="#0592d0"/>
<circle cx="448" cy="45" r="1.8" fill="#0592d0"/>
<circle cx="462" cy="45" r="1.8" fill="#0592d0"/>
<circle cx="70" cy="54" r="1.8" fill="#0592d0"/>
<circle cx="84" cy="54" r="1.8" fill="#0592d0"/>
<circle cx="98" cy="54" r="1.8" fill="#0592d0"/>
<circle cx="252" cy="54" r="1.8" fill="#0592d0"/>
<circle cx="266" cy="54" r="1.8" fill="#0592d0"/>
<circle cx="280" cy="54" r="1.8" fill="#0592d0"/>
<circle cx="434" cy="54" r="1.8" fill="#0592d0"/>
<circle cx="448" cy="54" r="1.8" fill="#0592d0"/>
<circle cx="462" cy="54" r="1.8" fill="#0592d0"/>
<circle cx="70" cy="63" r="1.8" fill="#0592d0"/>
<circle cx="84" cy="63" r="1.8" fill="#0592d0"/>
<circle cx="98" cy="63" r="1.8" fill="#0592d0"/>
<circle cx="126" cy="63" r="1.8" fill="#0592d0"/>
<circle cx="140" cy="63" r="1.8" fill="#0592d0"/>
<circle cx="154" cy="63" r="1.8" fill="#0592d0"/>
<circle cx="168" cy="63" r="1.8" fill="#0592d0"/>
<circle cx="182" cy="63" r="1.8" fill="#0592d0"/>
<circle cx="196" cy="63" r="1.8" fill="#0592d0"/>
<circle cx="210" cy="63" r="1.8" fill="#0592d0"/>
<circle cx="224" cy="63" r="1.8" fill="#0592d0"/>
<circle cx="238" cy="63" r="1.8" fill="#0592d0"/>
<circle cx="294" cy="63" r="1.8" fill="#0592d0"/>
<circle cx="308" cy="63" r="1.8" fill="#0592d0"/>
<circle cx="322" cy="63" r="1.8" fill="#0592d0"/>
<circle cx="336" cy="63" r="1.8" fill="#0592d0"/>
<circle cx="350" cy="63" r="1.8" fill="#0592d0"/>
<circle cx="364" cy="63" r="1.8" fill="#0592d0"/>
<circle cx="378" cy="63" r="1.8" fill="#0592d0"/>
<circle cx="392" cy="63" r="1.8" fill="#0592d0"/>
<circle cx="406" cy="63" r="1.8" fill="#0592d0"/>
<circle cx="434" cy="63" r="1.8" fill="#0592d0"/>
<circle cx="448" cy="63" r="1.8" fill="#0592d0"/>
<circle cx="462" cy="63" r="1.8" fill="#0592d0"/>
<circle cx="70" cy="72" r="1.8" fill="#0592d0"/>
<circle cx="84" cy="72" r="1.8" fill="#0592d0"/>
<circle cx="98" cy="72" r="1.8" fill="#0592d0"/>
<circle cx="126" cy="72" r="1.8" fill="#0592d0"/>
<circle cx="140" cy="72" r="1.8" fill="#0592d0"/>
<circle cx="154" cy="72" r="1.8" fill="#0592d0"/>
<circle cx="168" cy="72" r="1.8" fill="#0592d0"/>
<circle cx="182" cy="72" r="1.8" fill="#0592d0"/>
<circle cx="196" cy="72" r="1.8" fill="#0592d0"/>
<circle cx="210" cy="72" r="1.8" fill="#0592d0"/>
<circle cx="224" cy="72" r="1.8" fill="#0592d0"/>
<circle cx="238" cy="72" r="1.8" fill="#0592d0"/>
<circle cx="294" cy="72" r="1.8" fill="#0592d0"/>
<circle cx="308" cy="72" r="1.8" fill="#0592d0"/>
<circle cx="322" cy="72" r="1.8" fill="#0592d0"/>
<circle cx="336" cy="72" r="1.8" fill="#0592d0"/>
<circle cx="350" cy="72" r="1.8" fill="#0592d0"/>
<circle cx="364" cy="72" r="1.8" fill="#0592d0"/>
<circle cx="378" cy="72" r="1.8" fill="#0592d0"/>
<circle cx="392" cy="72" r="1.8" fill="#0592d0"/>
<circle cx="406" cy="72" r="1.8" fill="#0592d0"/>
<circle cx="434" cy="72" r="1.8" fill="#0592d0"/>
<circle cx="448" cy="72" r="1.8" fill="#0592d0"/>
<circle cx="462" cy="72" r="1.8" fill="#0592d0"/>
<circle cx="70" cy="81" r="1.8" fill="#0592d0"/>
<circle cx="84" cy="81" r="1.8" fill="#0592d0"/>
<circle cx="98" cy="81" r="1.8" fill="#0592d0"/>
<circle cx="126" cy="81" r="1.8" fill="#0592d0"/>
<circle cx="140" cy="81" r="1.8" fill="#0592d0"/>
<circle cx="154" cy="81" r="1.8" fill="#0592d0"/>
<circle cx="168" cy="81" r="1.8" fill="#0592d0"/>
<circle cx="182" cy="81" r="1.8" fill="#0592d0"/>
<circle cx="196" cy="81" r="1.8" fill="#0592d0"/>
<circle cx="210" cy="81" r="1.8" fill="#0592d0"/>
<circle cx="224" cy="81" r="1.8" fill="#0592d0"/>
<circle cx="238" cy="81" r="1.8" fill="#0592d0"/>
<circle cx="294" cy="81" r="1.8" fill="#0592d0"/>
<circle cx="308" cy="81" r="1.8" fill="#0592d0"/>
<circle cx="322" cy="81" r="1.8" fill="#0592d0"/>
<circle cx="336" cy="81" r="1.8" fill="#0592d0"/>
<circle cx="350" cy="81" r="1.8" fill="#0592d0"/>
<circle cx="364" cy="81" r="1.8" fill="#0592d0"/>
<circle cx="378" cy="81" r="1.8" fill="#0592d0"/>
<circle cx="392" cy="81" r="1.8" fill="#0592d0"/>
<circle cx="406" cy="81" r="1.8" fill="#0592d0"/>
<circle cx="434" cy="81" r="1.8" fill="#0592d0"/>
<circle cx="448" cy="81" r="1.8" fill="#0592d0"/>
<circle cx="462" cy="81" r="1.8" fill="#0592d0"/>
<circle cx="70" cy="90" r="1.8" fill="#0592d0"/>
<circle cx="84" cy="90" r="1.8" fill="#0592d0"/>
<circle cx="98" cy="90" r="1.8" fill="#0592d0"/>
<circle cx="126" cy="90" r="1.8" fill="#0592d0"/>
<circle cx="140" cy="90" r="1.8" fill="#0592d0"/>
<circle cx="154" cy="90" r="1.8" fill="#0592d0"/>
<circle cx="168" cy="90" r="1.8" fill="#0592d0"/>
<circle cx="182" cy="90" r="1.8" fill="#0592d0"/>
<circle cx="196" cy="90" r="1.8" fill="#0592d0"/>
<circle cx="210" cy="90" r="1.8" fill="#0592d0"/>
<circle cx="224" cy="90" r="1.8" fill="#0592d0"/>
<circle cx="238" cy="90" r="1.8" fill="#0592d0"/>
<circle cx="294" cy="90" r="1.8" fill="#0592d0"/>
<circle cx="308" cy="90" r="1.8" fill="#0592d0"/>
<circle cx="322" cy="90" r="1.8" fill="#0592d0"/>
<circle cx="336" cy="90" r="1.8" fill="#0592d0"/>
<circle cx="350" cy="90" r="1.8" fill="#0592d0"/>
<circle cx="364" cy="90" r="1.8" fill="#0592d0"/>
<circle cx="378" cy="90" r="1.8" fill="#0592d0"/>
<circle cx="392" cy="90" r="1.8" fill="#0592d0"/>
<circle cx="406" cy="90" r="1.8" fill="#0592d0"/>
<circle cx="434" cy="90" r="1.8" fill="#0592d0"/>
<circle cx="448" cy="90" r="1.8" fill="#0592d0"/>
<circle cx="462" cy="90" r="1.8" fill="#0592d0"/>
<circle cx="70" cy="99" r="1.8" fill="#0592d0"/>
<circle cx="84" cy="99" r="1.8" fill="#0592d0"/>
<circle cx="98" cy="99" r="1.8" fill="#0592d0"/>
<circle cx="126" cy="99" r="1.8" fill="#0592d0"/>
<circle cx="140" cy="99" r="1.8" fill="#0592d0"/>
<circle cx="154" cy="99" r="1.8" fill="#0592d0"/>
<circle cx="238" cy="99" r="1.8" fill="#0592d0"/>
<circle cx="252" cy="99" r="1.8" fill="#0592d0"/>
<circle cx="266" cy="99" r="1.8" fill="#0592d0"/>
<circle cx="280" cy="99" r="1.8" fill="#0592d0"/>
<circle cx="294" cy="99" r="1.8" fill="#0592d0"/>
<circle cx="378" cy="99" r="1.8" fill="#0592d0"/>
<circle cx="392" cy="99" r="1.8" fill="#0592d0"/>
<circle cx="406" cy="99" r="1.8" fill="#0592d0"/>
<circle cx="434" cy="99" r="1.8" fill="#0592d0"/>
<circle cx="448" cy="99" r="1.8" fill="#0592d0"/>
<circle cx="462" cy="99" r="1.8" fill="#0592d0"/>
<circle cx="70" cy="108" r="1.8" fill="#0592d0"/>
<circle cx="84" cy="108" r="1.8" fill="#0592d0"/>
<circle cx="98" cy="108" r="1.8" fill="#0592d0"/>
<circle cx="126" cy="108" r="1.8" fill="#0592d0"/>
<circle cx="140" cy="108" r="1.8" fill="#0592d0"/>
<circle cx="154" cy="108" r="1.8" fill="#0592d0"/>
<circle cx="238" cy="108" r="1.8" fill="#0592d0"/>
<circle cx="252" cy="108" r="1.8" fill="#0592d0"/>
<circle cx="266" cy="108" r="1.8" fill="#0592d0"/>
<circle cx="280" cy="108" r="1.8" fill="#0592d0"/>
<circle cx="294" cy="108" r="1.8" fill="#0592d0"/>
<circle cx="378" cy="108" r="1.8" fill="#0592d0"/>
<circle cx="392" cy="108" r="1.8" fill="#0592d0"/>
<circle cx="406" cy="108" r="1.8" fill="#0592d0"/>
<circle cx="434" cy="108" r="1.8" fill="#0592d0"/>
<circle cx="448" cy="108" r="1.8" fill="#0592d0"/>
<circle cx="462" cy="108" r="1.8" fill="#0592d0"/>
<circle cx="70" cy="117" r="1.8" fill="#0592d0"/>
<circle cx="84" cy="117" r="1.8" fill="#0592d0"/>
<circle cx="98" cy="117" r="1.8" fill="#0592d0"/>
<circle cx="126" cy="117" r="1.8" fill="#0592d0"/>
<circle cx="140" cy="117" r="1.8" fill="#0592d0"/>
<circle cx="154" cy="117" r="1.8" fill="#0592d0"/>
<circle cx="168" cy="117" r="1.8" fill="#0592d0"/>
<circle cx="364" cy="117" r="1.8" fill="#0592d0"/>
<circle cx="378" cy="117" r="1.8" fill="#0592d0"/>
<circle cx="392" cy="117" r="1.8" fill="#0592d0"/>
<circle cx="406" cy="117" r="1.8" fill="#0592d0"/>
<circle cx="434" cy="117" r="1.8" fill="#0592d0"/>
<circle cx="448" cy="117" r="1.8" fill="#0592d0"/>
<circle cx="462" cy="117" r="1.8" fill="#0592d0"/>
<circle cx="70" cy="126" r="1.8" fill="#0592d0"/>
<circle cx="84" cy="126" r="1.8" fill="#0592d0"/>
<circle cx="98" cy="126" r="1.8" fill="#0592d0"/>
<circle cx="126" cy="126" r="1.8" fill="#0592d0"/>
<circle cx="140" cy="126" r="1.8" fill="#0592d0"/>
<circle cx="154" cy="126" r="1.8" fill="#0592d0"/>
<circle cx="168" cy="126" r="1.8" fill="#0592d0"/>
<circle cx="364" cy="126" r="1.8" fill="#0592d0"/>
<circle cx="378" cy="126" r="1.8" fill="#0592d0"/>
<circle cx="392" cy="126" r="1.8" fill="#0592d0"/>
<circle cx="406" cy="126" r="1.8" fill="#0592d0"/>
<circle cx="434" cy="126" r="1.8" fill="#0592d0"/>
<circle cx="448" cy="126" r="1.8" fill="#0592d0"/>
<circle cx="462" cy="126" r="1.8" fill="#0592d0"/>
<circle cx="70" cy="135" r="1.8" fill="#0592d0"/>
<circle cx="84" cy="135" r="1.8" fill="#0592d0"/>
<circle cx="98" cy="135" r="1.8" fill="#0592d0"/>
<circle cx="154" cy="135" r="1.8" fill="#0592d0"/>
<circle cx="168" cy="135" r="1.8" fill="#0592d0"/>
<circle cx="182" cy="135" r="1.8" fill="#0592d0"/>
<circle cx="350" cy="135" r="1.8" fill="#0592d0"/>
<circle cx="364" cy="135" r="1.8" fill="#0592d0"/>
<circle cx="378" cy="135" r="1.8" fill="#0592d0"/>
<circle cx="434" cy="135" r="1.8" fill="#0592d0"/>
<circle cx="448" cy="135" r="1.8" fill="#0592d0"/>
<circle cx="462" cy="135" r="1.8" fill="#0592d0"/>
<circle cx="70" cy="144" r="1.8" fill="#0592d0"/>
<circle cx="84" cy="144" r="1.8" fill="#0592d0"/>
<circle cx="98" cy="144" r="1.8" fill="#0592d0"/>
<circle cx="154" cy="144" r="1.8" fill="#0592d0"/>
<circle cx="168" cy="144" r="1.8" fill="#0592d0"/>
<circle cx="182" cy="144" r="1.8" fill="#0592d0"/>
<circle cx="350" cy="144" r="1.8" fill="#0592d0"/>
<circle cx="364" cy="144" r="1.8" fill="#0592d0"/>
<circle cx="378" cy="144" r="1.8" fill="#0592d0"/>
<circle cx="434" cy="144" r="1.8" fill="#0592d0"/>
<circle cx="448" cy="144" r="1.8" fill="#0592d0"/>
<circle cx="462" cy="144" r="1.8" fill="#0592d0"/>
<circle cx="70" cy="153" r="1.8" fill="#0592d0"/>
<circle cx="84" cy="153" r="1.8" fill="#0592d0"/>
<circle cx="98" cy="153" r="1.8" fill="#0592d0"/>
<circle cx="182" cy="153" r="1.8" fill="#0592d0"/>
<circle cx="196" cy="153" r="1.8" fill="#0592d0"/>
<circle cx="210" cy="153" r="1.8" fill="#0592d0"/>
<circle cx="322" cy="153" r="1.8" fill="#0592d0"/>
<circle cx="336" cy="153" r="1.8" fill="#0592d0"/>
<circle cx="350" cy="153" r="1.8" fill="#0592d0"/>
<circle cx="434" cy="153" r="1.8" fill="#0592d0"/>
<circle cx="448" cy="153" r="1.8" fill="#0592d0"/>
<circle cx="462" cy="153" r="1.8" fill="#0592d0"/>
<circle cx="70" cy="162" r="1.8" fill="#0592d0"/>
<circle cx="84" cy="162" r="1.8" fill="#0592d0"/>
<circle cx="98" cy="162" r="1.8" fill="#0592d0"/>
<circle cx="182" cy="162" r="1.8" fill="#0592d0"/>
<circle cx="196" cy="162" r="1.8" fill="#0592d0"/>
<circle cx="210" cy="162" r="1.8" fill="#0592d0"/>
<circle cx="322" cy="162" r="1.8" fill="#0592d0"/>
<circle cx="336" cy="162" r="1.8" fill="#0592d0"/>
<circle cx="350" cy="162" r="1.8" fill="#0592d0"/>
<circle cx="434" cy="162" r="1.8" fill="#0592d0"/>
<circle cx="448" cy="162" r="1.8" fill="#0592d0"/>
<circle cx="462" cy="162" r="1.8" fill="#0592d0"/>
<circle cx="70" cy="171" r="1.8" fill="#0592d0"/>
<circle cx="84" cy="171" r="1.8" fill="#0592d0"/>
<circle cx="98" cy="171" r="1.8" fill="#0592d0"/>
<circle cx="210" cy="171" r="1.8" fill="#0592d0"/>
<circle cx="224" cy="171" r="1.8" fill="#0592d0"/>
<circle cx="238" cy="171" r="1.8" fill="#0592d0"/>
<circle cx="252" cy="171" r="1.8" fill="#0592d0"/>
<circle cx="266" cy="171" r="1.8" fill="#0592d0"/>
<circle cx="280" cy="171" r="1.8" fill="#0592d0"/>
<circle cx="294" cy="171" r="1.8" fill="#0592d0"/>
<circle cx="308" cy="171" r="1.8" fill="#0592d0"/>
<circle cx="322" cy="171" r="1.8" fill="#0592d0"/>
<circle cx="434" cy="171" r="1.8" fill="#0592d0"/>
<circle cx="448" cy="171" r="1.8" fill="#0592d0"/>
<circle cx="462" cy="171" r="1.8" fill="#0592d0"/>
<circle cx="70" cy="180" r="1.8" fill="#0592d0"/>
<circle cx="84" cy="180" r="1.8" fill="#0592d0"/>
<circle cx="98" cy="180" r="1.8" fill="#0592d0"/>
<circle cx="210" cy="180" r="1.8" fill="#0592d0"/>
<circle cx="224" cy="180" r="1.8" fill="#0592d0"/>
<circle cx="238" cy="180" r="1.8" fill="#0592d0"/>
<circle cx="252" cy="180" r="1.8" fill="#0592d0"/>
<circle cx="266" cy="180" r="1.8" fill="#0592d0"/>
<circle cx="280" cy="180" r="1.8" fill="#0592d0"/>
<circle cx="294" cy="180" r="1.8" fill="#0592d0"/>
<circle cx="308" cy="180" r="1.8" fill="#0592d0"/>
<circle cx="322" cy="180" r="1.8" fill="#0592d0"/>
<circle cx="434" cy="180" r="1.8" fill="#0592d0"/>
<circle cx="448" cy="180" r="1.8" fill="#0592d0"/>
<circle cx="462" cy="180" r="1.8" fill="#0592d0"/>
<circle cx="70" cy="189" r="1.8" fill="#0592d0"/>
<circle cx="84" cy="189" r="1.8" fill="#0592d0"/>
<circle cx="98" cy="189" r="1.8" fill="#0592d0"/>
<circle cx="238" cy="189" r="1.8" fill="#0592d0"/>
<circle cx="252" cy="189" r="1.8" fill="#0592d0"/>
<circle cx="266" cy="189" r="1.8" fill="#0592d0"/>
<circle cx="280" cy="189" r="1.8" fill="#0592d0"/>
<circle cx="294" cy="189" r="1.8" fill="#0592d0"/>
<circle cx="434" cy="189" r="1.8" fill="#0592d0"/>
<circle cx="448" cy="189" r="1.8" fill="#0592d0"/>
<circle cx="462" cy="189" r="1.8" fill="#0592d0"/>
<circle cx="70" cy="198" r="1.8" fill="#0592d0"/>
<circle cx="84" cy="198" r="1.8" fill="#0592d0"/>
<circle cx="98" cy="198" r="1.8" fill="#0592d0"/>
<circle cx="238" cy="198" r="1.8" fill="#0592d0"/>
<circle cx="252" cy="198" r="1.8" fill="#0592d0"/>
<circle cx="266" cy="198" r="1.8" fill="#0592d0"/>
<circle cx="280" cy="198" r="1.8" fill="#0592d0"/>
<circle cx="294" cy="198" r="1.8" fill="#0592d0"/>
<circle cx="434" cy="198" r="1.8" fill="#0592d0"/>
<circle cx="448" cy="198" r="1.8" fill="#0592d0"/>
<circle cx="462" cy="198" r="1.8" fill="#0592d0"/>
<circle cx="70" cy="207" r="1.8" fill="#0592d0"/>
<circle cx="84" cy="207" r="1.8" fill="#0592d0"/>
<circle cx="98" cy="207" r="1.8" fill="#0592d0"/>
<circle cx="252" cy="207" r="1.8" fill="#0592d0"/>
<circle cx="266" cy="207" r="1.8" fill="#0592d0"/>
<circle cx="280" cy="207" r="1.8" fill="#0592d0"/>
<circle cx="434" cy="207" r="1.8" fill="#0592d0"/>
<circle cx="448" cy="207" r="1.8" fill="#0592d0"/>
<circle cx="462" cy="207" r="1.8" fill="#0592d0"/>
<circle cx="70" cy="216" r="1.8" fill="#0592d0"/>
<circle cx="84" cy="216" r="1.8" fill="#0592d0"/>
<circle cx="98" cy="216" r="1.8" fill="#0592d0"/>
<circle cx="252" cy="216" r="1.8" fill="#0592d0"/>
<circle cx="266" cy="216" r="1.8" fill="#0592d0"/>
<circle cx="280" cy="216" r="1.8" fill="#0592d0"/>
<circle cx="434" cy="216" r="1.8" fill="#0592d0"/>
<circle cx="448" cy="216" r="1.8" fill="#0592d0"/>
<circle cx="462" cy="216" r="1.8" fill="#0592d0"/>
<circle cx="70" cy="225" r="1.8" fill="#0592d0"/>
<circle cx="84" cy="225" r="1.8" fill="#0592d0"/>
<circle cx="98" cy="225" r="1.8" fill="#0592d0"/>
<circle cx="224" cy="225" r="1.8" fill="#0592d0"/>
<circle cx="238" cy="225" r="1.8" fill="#0592d0"/>
<circle cx="252" cy="225" r="1.8" fill="#0592d0"/>
<circle cx="266" cy="225" r="1.8" fill="#0592d0"/>
<circle cx="280" cy="225" r="1.8" fill="#0592d0"/>
<circle cx="294" cy="225" r="1.8" fill="#0592d0"/>
<circle cx="308" cy="225" r="1.8" fill="#0592d0"/>
<circle cx="434" cy="225" r="1.8" fill="#0592d0"/>
<circle cx="448" cy="225" r="1.8" fill="#0592d0"/>
<circle cx="462" cy="225" r="1.8" fill="#0592d0"/>
<circle cx="70" cy="234" r="1.8" fill="#0592d0"/>
<circle cx="84" cy="234" r="1.8" fill="#0592d0"/>
<circle cx="98" cy="234" r="1.8" fill="#0592d0"/>
<circle cx="224" cy="234" r="1.8" fill="#0592d0"/>
<circle cx="238" cy="234" r="1.8" fill="#0592d0"/>
<circle cx="252" cy="234" r="1.8" fill="#0592d0"/>
<circle cx="266" cy="234" r="1.8" fill="#0592d0"/>
<circle cx="280" cy="234" r="1.8" fill="#0592d0"/>
<circle cx="294" cy="234" r="1.8" fill="#0592d0"/>
<circle cx="308" cy="234" r="1.8" fill="#0592d0"/>
<circle cx="434" cy="234" r="1.8" fill="#0592d0"/>
<circle cx="448" cy="234" r="1.8" fill="#0592d0"/>
<circle cx="462" cy="234" r="1.8" fill="#0592d0"/>
<circle cx="70" cy="243" r="1.8" fill="#0592d0"/>
<circle cx="84" cy="243" r="1.8" fill="#0592d0"/>
<circle cx="98" cy="243" r="1.8" fill="#0592d0"/>
<circle cx="252" cy="243" r="1.8" fill="#0592d0"/>
<circle cx="266" cy="243" r="1.8" fill="#0592d0"/>
<circle cx="280" cy="243" r="1.8" fill="#0592d0"/>
<circle cx="434" cy="243" r="1.8" fill="#0592d0"/>
<circle cx="448" cy="243" r="1.8" fill="#0592d0"/>
<circle cx="462" cy="243" r="1.8" fill="#0592d0"/>
<circle cx="70" cy="252" r="1.8" fill="#0592d0"/>
<circle cx="84" cy="252" r="1.8" fill="#0592d0"/>
<circle cx="98" cy="252" r="1.8" fill="#0592d0"/>
<circle cx="252" cy="252" r="1.8" fill="#0592d0"/>
<circle cx="266" cy="252" r="1.8" fill="#0592d0"/>
<circle cx="280" cy="252" r="1.8" fill="#0592d0"/>
<circle cx="434" cy="252" r="1.8" fill="#0592d0"/>
<circle cx="448" cy="252" r="1.8" fill="#0592d0"/>
<circle cx="462" cy="252" r="1.8" fill="#0592d0"/>
<circle cx="70" cy="261" r="1.8" fill="#0592d0"/>
<circle cx="84" cy="261" r="1.8" fill="#0592d0"/>
<circle cx="98" cy="261" r="1.8" fill="#0592d0"/>
<circle cx="252" cy="261" r="1.8" fill="#0592d0"/>
<circle cx="266" cy="261" r="1.8" fill="#0592d0"/>
<circle cx="280" cy="261" r="1.8" fill="#0592d0"/>
<circle cx="434" cy="261" r="1.8" fill="#0592d0"/>
<circle cx="448" cy="261" r="1.8" fill="#0592d0"/>
<circle cx="462" cy="261" r="1.8" fill="#0592d0"/>
<circle cx="70" cy="270" r="1.8" fill="#0592d0"/>
<circle cx="84" cy="270" r="1.8" fill="#0592d0"/>
<circle cx="98" cy="270" r="1.8" fill="#0592d0"/>
<circle cx="252" cy="270" r="1.8" fill="#0592d0"/>
<circle cx="266" cy="270" r="1.8" fill="#0592d0"/>
<circle cx="280" cy="270" r="1.8" fill="#0592d0"/>
<circle cx="434" cy="270" r="1.8" fill="#0592d0"/>
<circle cx="448" cy="270" r="1.8" fill="#0592d0"/>
<circle cx="462" cy="270" r="1.8" fill="#0592d0"/>
<circle cx="70" cy="279" r="1.8" fill="#0592d0"/>
<circle cx="84" cy="279" r="1.8" fill="#0592d0"/>
<circle cx="98" cy="279" r="1.8" fill="#0592d0"/>
<circle cx="252" cy="279" r="1.8" fill="#0592d0"/>
<circle cx="266" cy="279" r="1.8" fill="#0592d0"/>
<circle cx="280" cy="279" r="1.8" fill="#0592d0"/>
<circle cx="434" cy="279" r="1.8" fill="#0592d0"/>
<circle cx="448" cy="279" r="1.8" fill="#0592d0"/>
<circle cx="462" cy="279" r="1.8" fill="#0592d0"/>
<circle cx="70" cy="288" r="1.8" fill="#0592d0"/>
<circle cx="84" cy="288" r="1.8" fill="#0592d0"/>
<circle cx="98" cy="288" r="1.8" fill="#0592d0"/>
<circle cx="252" cy="288" r="1.8" fill="#0592d0"/>
<circle cx="266" cy="288" r="1.8" fill="#0592d0"/>
<circle cx="280" cy="288" r="1.8" fill="#0592d0"/>
<circle cx="434" cy="288" r="1.8" fill="#0592d0"/>
<circle cx="448" cy="288" r="1.8" fill="#0592d0"/>
<circle cx="462" cy="288" r="1.8" fill="#0592d0"/>
<circle cx="70" cy="297" r="1.8" fill="#0592d0"/>
<circle cx="84" cy="297" r="1.8" fill="#0592d0"/>
<circle cx="98" cy="297" r="1.8" fill="#0592d0"/>
<circle cx="154" cy="297" r="1.8" fill="#0592d0"/>
<circle cx="168" cy="297" r="1.8" fill="#0592d0"/>
<circle cx="182" cy="297" r="1.8" fill="#0592d0"/>
<circle cx="196" cy="297" r="1.8" fill="#0592d0"/>
<circle cx="210" cy="297" r="1.8" fill="#0592d0"/>
<circle cx="252" cy="297" r="1.8" fill="#0592d0"/>
<circle cx="266" cy="297" r="1.8" fill="#0592d0"/>
<circle cx="280" cy="297" r="1.8" fill="#0592d0"/>
<circle cx="434" cy="297" r="1.8" fill="#0592d0"/>
<circle cx="448" cy="297" r="1.8" fill="#0592d0"/>
<circle cx="462" cy="297" r="1.8" fill="#0592d0"/>
<circle cx="70" cy="306" r="1.8" fill="#0592d0"/>
<circle cx="84" cy="306" r="1.8" fill="#0592d0"/>
<circle cx="98" cy="306" r="1.8" fill="#0592d0"/>
<circle cx="154" cy="306" r="1.8" fill="#0592d0"/>
<circle cx="168" cy="306" r="1.8" fill="#0592d0"/>
<circle cx="182" cy="306" r="1.8" fill="#0592d0"/>
<circle cx="196" cy="306" r="1.8" fill="#0592d0"/>
<circle cx="210" cy="306" r="1.8" fill="#0592d0"/>
<circle cx="252" cy="306" r="1.8" fill="#0592d0"/>
<circle cx="266" cy="306" r="1.8" fill="#0592d0"/>
<circle cx="280" cy="306" r="1.8" fill="#0592d0"/>
<circle cx="434" cy="306" r="1.8" fill="#0592d0"/>
<circle cx="448" cy="306" r="1.8" fill="#0592d0"/>
<circle cx="462" cy="306" r="1.8" fill="#0592d0"/>
<circle cx="70" cy="315" r="1.8" fill="#0592d0"/>
<circle cx="84" cy="315" r="1.8" fill="#0592d0"/>
<circle cx="98" cy="315" r="1.8" fill="#0592d0"/>
<circle cx="154" cy="315" r="1.8" fill="#0592d0"/>
<circle cx="168" cy="315" r="1.8" fill="#0592d0"/>
<circle cx="182" cy="315" r="1.8" fill="#0592d0"/>
<circle cx="252" cy="315" r="1.8" fill="#0592d0"/>
<circle cx="266" cy="315" r="1.8" fill="#0592d0"/>
<circle cx="280" cy="315" r="1.8" fill="#0592d0"/>
<circle cx="434" cy="315" r="1.8" fill="#0592d0"/>
<circle cx="448" cy="315" r="1.8" fill="#0592d0"/>
<circle cx="462" cy="315" r="1.8" fill="#0592d0"/>
<circle cx="70" cy="324" r="1.8" fill="#0592d0"/>
<circle cx="84" cy="324" r="1.8" fill="#0592d0"/>
<circle cx="98" cy="324" r="1.8" fill="#0592d0"/>
<circle cx="154" cy="324" r="1.8" fill="#0592d0"/>
<circle cx="168" cy="324" r="1.8" fill="#0592d0"/>
<circle cx="182" cy="324" r="1.8" fill="#0592d0"/>
<circle cx="252" cy="324" r="1.8" fill="#0592d0"/>
<circle cx="266" cy="324" r="1.8" fill="#0592d0"/>
<circle cx="280" cy="324" r="1.8" fill="#0592d0"/>
<circle cx="434" cy="324" r="1.8" fill="#0592d0"/>
<circle cx="448" cy="324" r="1.8" fill="#0592d0"/>
<circle cx="462" cy="324" r="1.8" fill="#0592d0"/>
<circle cx="70" cy="333" r="1.8" fill="#0592d0"/>
<circle cx="84" cy="333" r="1.8" fill="#0592d0"/>
<circle cx="98" cy="333" r="1.8" fill="#0592d0"/>
<circle cx="154" cy="333" r="1.8" fill="#0592d0"/>
<circle cx="168" cy="333" r="1.8" fill="#0592d0"/>
<circle cx="182" cy="333" r="1.8" fill="#0592d0"/>
<circle cx="252" cy="333" r="1.8" fill="#0592d0"/>
<circle cx="266" cy="333" r="1.8" fill="#0592d0"/>
<circle cx="280" cy="333" r="1.8" fill="#0592d0"/>
<circle cx="434" cy="333" r="1.8" fill="#0592d0"/>
<circle cx="448" cy="333" r="1.8" fill="#0592d0"/>
<circle cx="462" cy="333" r="1.8" fill="#0592d0"/>
<circle cx="70" cy="342" r="1.8" fill="#0592d0"/>
<circle cx="84" cy="342" r="1.8" fill="#0592d0"/>
<circle cx="98" cy="342" r="1.8" fill="#0592d0"/>
<circle cx="154" cy="342" r="1.8" fill="#0592d0"/>
<circle cx="168" cy="342" r="1.8" fill="#0592d0"/>
<circle cx="182" cy="342" r="1.8" fill="#0592d0"/>
<circle cx="252" cy="342" r="1.8" fill="#0592d0"/>
<circle cx="266" cy="342" r="1.8" fill="#0592d0"/>
<circle cx="280" cy="342" r="1.8" fill="#0592d0"/>
<circle cx="434" cy="342" r="1.8" fill="#0592d0"/>
<circle cx="448" cy="342" r="1.8" fill="#0592d0"/>
<circle cx="462" cy="342" r="1.8" fill="#0592d0"/>
<circle cx="70" cy="351" r="1.8" fill="#0592d0"/>
<circle cx="84" cy="351" r="1.8" fill="#0592d0"/>
<circle cx="98" cy="351" r="1.8" fill="#0592d0"/>
<circle cx="112" cy="351" r="1.8" fill="#0592d0"/>
<circle cx="168" cy="351" r="1.8" fill="#0592d0"/>
<circle cx="182" cy="351" r="1.8" fill="#0592d0"/>
<circle cx="196" cy="351" r="1.8" fill="#0592d0"/>
<circle cx="210" cy="351" r="1.8" fill="#0592d0"/>
<circle cx="224" cy="351" r="1.8" fill="#0592d0"/>
<circle cx="238" cy="351" r="1.8" fill="#0592d0"/>
<circle cx="252" cy="351" r="1.8" fill="#0592d0"/>
<circle cx="266" cy="351" r="1.8" fill="#0592d0"/>
<circle cx="280" cy="351" r="1.8" fill="#0592d0"/>
<circle cx="420" cy="351" r="1.8" fill="#0592d0"/>
<circle cx="434" cy="351" r="1.8" fill="#0592d0"/>
<circle cx="448" cy="351" r="1.8" fill="#0592d0"/>
<circle cx="462" cy="351" r="1.8" fill="#0592d0"/>
<circle cx="70" cy="360" r="1.8" fill="#0592d0"/>
<circle cx="84" cy="360" r="1.8" fill="#0592d0"/>
<circle cx="98" cy="360" r="1.8" fill="#0592d0"/>
<circle cx="112" cy="360" r="1.8" fill="#0592d0"/>
<circle cx="168" cy="360" r="1.8" fill="#0592d0"/>
<circle cx="182" cy="360" r="1.8" fill="#0592d0"/>
<circle cx="196" cy="360" r="1.8" fill="#0592d0"/>
<circle cx="210" cy="360" r="1.8" fill="#0592d0"/>
<circle cx="224" cy="360" r="1.8" fill="#0592d0"/>
<circle cx="238" cy="360" r="1.8" fill="#0592d0"/>
<circle cx="252" cy="360" r="1.8" fill="#0592d0"/>
<circle cx="266" cy="360" r="1.8" fill="#0592d0"/>
<circle cx="280" cy="360" r="1.8" fill="#0592d0"/>
<circle cx="420" cy="360" r="1.8" fill="#0592d0"/>
<circle cx="434" cy="360" r="1.8" fill="#0592d0"/>
<circle cx="448" cy="360" r="1.8" fill="#0592d0"/>
<circle cx="462" cy="360" r="1.8" fill="#0592d0"/>
<circle cx="84" cy="369" r="1.8" fill="#0592d0"/>
<circle cx="98" cy="369" r="1.8" fill="#0592d0"/>
<circle cx="112" cy="369" r="1.8" fill="#0592d0"/>
<circle cx="126" cy="369" r="1.8" fill="#0592d0"/>
<circle cx="140" cy="369" r="1.8" fill="#0592d0"/>
<circle cx="182" cy="369" r="1.8" fill="#0592d0"/>
<circle cx="196" cy="369" r="1.8" fill="#0592d0"/>
<circle cx="210" cy="369" r="1.8" fill="#0592d0"/>
<circle cx="224" cy="369" r="1.8" fill="#0592d0"/>
<circle cx="238" cy="369" r="1.8" fill="#0592d0"/>
<circle cx="252" cy="369" r="1.8" fill="#0592d0"/>
<circle cx="266" cy="369" r="1.8" fill="#0592d0"/>
<circle cx="280" cy="369" r="1.8" fill="#0592d0"/>
<circle cx="392" cy="369" r="1.8" fill="#0592d0"/>
<circle cx="406" cy="369" r="1.8" fill="#0592d0"/>
<circle cx="420" cy="369" r="1.8" fill="#0592d0"/>
<circle cx="434" cy="369" r="1.8" fill="#0592d0"/>
<circle cx="448" cy="369" r="1.8" fill="#0592d0"/>
<circle cx="84" cy="378" r="1.8" fill="#0592d0"/>
<circle cx="98" cy="378" r="1.8" fill="#0592d0"/>
<circle cx="112" cy="378" r="1.8" fill="#0592d0"/>
<circle cx="126" cy="378" r="1.8" fill="#0592d0"/>
<circle cx="140" cy="378" r="1.8" fill="#0592d0"/>
<circle cx="182" cy="378" r="1.8" fill="#0592d0"/>
<circle cx="196" cy="378" r="1.8" fill="#0592d0"/>
<circle cx="210" cy="378" r="1.8" fill="#0592d0"/>
<circle cx="224" cy="378" r="1.8" fill="#0592d0"/>
<circle cx="238" cy="378" r="1.8" fill="#0592d0"/>
<circle cx="252" cy="378" r="1.8" fill="#0592d0"/>
<circle cx="266" cy="378" r="1.8" fill="#0592d0"/>
<circle cx="280" cy="378" r="1.8" fill="#0592d0"/>
<circle cx="392" cy="378" r="1.8" fill="#0592d0"/>
<circle cx="406" cy="378" r="1.8" fill="#0592d0"/>
<circle cx="420" cy="378" r="1.8" fill="#0592d0"/>
<circle cx="434" cy="378" r="1.8" fill="#0592d0"/>
<circle cx="448" cy="378" r="1.8" fill="#0592d0"/>
<circle cx="112" cy="387" r="1.8" fill="#0592d0"/>
<circle cx="126" cy="387" r="1.8" fill="#0592d0"/>
<circle cx="140" cy="387" r="1.8" fill="#0592d0"/>
<circle cx="154" cy="387" r="1.8" fill="#0592d0"/>
<circle cx="168" cy="387" r="1.8" fill="#0592d0"/>
<circle cx="210" cy="387" r="1.8" fill="#0592d0"/>
<circle cx="252" cy="387" r="1.8" fill="#0592d0"/>
<circle cx="266" cy="387" r="1.8" fill="#0592d0"/>
<circle cx="280" cy="387" r="1.8" fill="#0592d0"/>
<circle cx="378" cy="387" r="1.8" fill="#0592d0"/>
<circle cx="392" cy="387" r="1.8" fill="#0592d0"/>
<circle cx="406" cy="387" r="1.8" fill="#0592d0"/>
<circle cx="420" cy="387" r="1.8" fill="#0592d0"/>
<circle cx="112" cy="396" r="1.8" fill="#0592d0"/>
<circle cx="126" cy="396" r="1.8" fill="#0592d0"/>
<circle cx="140" cy="396" r="1.8" fill="#0592d0"/>
<circle cx="154" cy="396" r="1.8" fill="#0592d0"/>
<circle cx="168" cy="396" r="1.8" fill="#0592d0"/>
<circle cx="210" cy="396" r="1.8" fill="#0592d0"/>
<circle cx="252" cy="396" r="1.8" fill="#0592d0"/>
<circle cx="266" cy="396" r="1.8" fill="#0592d0"/>
<circle cx="280" cy="396" r="1.8" fill="#0592d0"/>
<circle cx="378" cy="396" r="1.8" fill="#0592d0"/>
<circle cx="392" cy="396" r="1.8" fill="#0592d0"/>
<circle cx="406" cy="396" r="1.8" fill="#0592d0"/>
<circle cx="420" cy="396" r="1.8" fill="#0592d0"/>
<circle cx="140" cy="405" r="1.8" fill="#0592d0"/>
<circle cx="154" cy="405" r="1.8" fill="#0592d0"/>
<circle cx="168" cy="405" r="1.8" fill="#0592d0"/>
<circle cx="182" cy="405" r="1.8" fill="#0592d0"/>
<circle cx="252" cy="405" r="1.8" fill="#0592d0"/>
<circle cx="266" cy="405" r="1.8" fill="#0592d0"/>
<circle cx="280" cy="405" r="1.8" fill="#0592d0"/>
<circle cx="350" cy="405" r="1.8" fill="#0592d0"/>
<circle cx="364" cy="405" r="1.8" fill="#0592d0"/>
<circle cx="378" cy="405" r="1.8" fill="#0592d0"/>
<circle cx="392" cy="405" r="1.8" fill="#0592d0"/>
<circle cx="140" cy="414" r="1.8" fill="#0592d0"/>
<circle cx="154" cy="414" r="1.8" fill="#0592d0"/>
<circle cx="168" cy="414" r="1.8" fill="#0592d0"/>
<circle cx="182" cy="414" r="1.8" fill="#0592d0"/>
<circle cx="252" cy="414" r="1.8" fill="#0592d0"/>
<circle cx="266" cy="414" r="1.8" fill="#0592d0"/>
<circle cx="280" cy="414" r="1.8" fill="#0592d0"/>
<circle cx="350" cy="414" r="1.8" fill="#0592d0"/>
<circle cx="364" cy="414" r="1.8" fill="#0592d0"/>
<circle cx="378" cy="414" r="1.8" fill="#0592d0"/>
<circle cx="392" cy="414" r="1.8" fill="#0592d0"/>
<circle cx="168" cy="423" r="1.8" fill="#0592d0"/>
<circle cx="182" cy="423" r="1.8" fill="#0592d0"/>
<circle cx="196" cy="423" r="1.8" fill="#0592d0"/>
<circle cx="210" cy="423" r="1.8" fill="#0592d0"/>
<circle cx="266" cy="423" r="1.8" fill="#0592d0"/>
<circle cx="280" cy="423" r="1.8" fill="#0592d0"/>
<circle cx="322" cy="423" r="1.8" fill="#0592d0"/>
<circle cx="336" cy="423" r="1.8" fill="#0592d0"/>
<circle cx="350" cy="423" r="1.8" fill="#0592d0"/>
<circle cx="364" cy="423" r="1.8" fill="#0592d0"/>
<circle cx="168" cy="432" r="1.8" fill="#0592d0"/>
<circle cx="182" cy="432" r="1.8" fill="#0592d0"/>
<circle cx="196" cy="432" r="1.8" fill="#0592d0"/>
<circle cx="210" cy="432" r="1.8" fill="#0592d0"/>
<circle cx="266" cy="432" r="1.8" fill="#0592d0"/>
<circle cx="280" cy="432" r="1.8" fill="#0592d0"/>
<circle cx="322" cy="432" r="1.8" fill="#0592d0"/>
<circle cx="336" cy="432" r="1.8" fill="#0592d0"/>
<circle cx="350" cy="432" r="1.8" fill="#0592d0"/>
<circle cx="364" cy="432" r="1.8" fill="#0592d0"/>
<circle cx="196" cy="441" r="1.8" fill="#0592d0"/>
<circle cx="210" cy="441" r="1.8" fill="#0592d0"/>
<circle cx="224" cy="441" r="1.8" fill="#0592d0"/>
<circle cx="238" cy="441" r="1.8" fill="#0592d0"/>
<circle cx="294" cy="441" r="1.8" fill="#0592d0"/>
<circle cx="308" cy="441" r="1.8" fill="#0592d0"/>
<circle cx="322" cy="441" r="1.8" fill="#0592d0"/>
<circle cx="336" cy="441" r="1.8" fill="#0592d0"/>
<circle cx="196" cy="450" r="1.8" fill="#0592d0"/>
<circle cx="210" cy="450" r="1.8" fill="#0592d0"/>
<circle cx="224" cy="450" r="1.8" fill="#0592d0"/>
<circle cx="238" cy="450" r="1.8" fill="#0592d0"/>
<circle cx="294" cy="450" r="1.8" fill="#0592d0"/>
<circle cx="308" cy="450" r="1.8" fill="#0592d0"/>
<circle cx="322" cy="450" r="1.8" fill="#0592d0"/>
<circle cx="336" cy="450" r="1.8" fill="#0592d0"/>
<circle cx="210" cy="459" r="1.8" fill="#0592d0"/>
<circle cx="224" cy="459" r="1.8" fill="#0592d0"/>
<circle cx="238" cy="459" r="1.8" fill="#0592d0"/>
<circle cx="252" cy="459" r="1.8" fill="#0592d0"/>
<circle cx="266" cy="459" r="1.8" fill="#0592d0"/>
<circle cx="280" cy="459" r="1.8" fill="#0592d0"/>
<circle cx="294" cy="459" r="1.8" fill="#0592d0"/>
<circle cx="308" cy="459" r="1.8" fill="#0592d0"/>
<circle cx="322" cy="459" r="1.8" fill="#0592d0"/>
<circle cx="210" cy="468" r="1.8" fill="#0592d0"/>
<circle cx="224" cy="468" r="1.8" fill="#0592d0"/>
<circle cx="238" cy="468" r="1.8" fill="#0592d0"/>
<circle cx="252" cy="468" r="1.8" fill="#0592d0"/>
<circle cx="266" cy="468" r="1.8" fill="#0592d0"/>
<circle cx="280" cy="468" r="1.8" fill="#0592d0"/>
<circle cx="294" cy="468" r="1.8" fill="#0592d0"/>
<circle cx="308" cy="468" r="1.8" fill="#0592d0"/>
<circle cx="322" cy="468" r="1.8" fill="#0592d0"/>
<circle cx="238" cy="477" r="1.8" fill="#0592d0"/>
<circle cx="252" cy="477" r="1.8" fill="#0592d0"/>
<circle cx="266" cy="477" r="1.8" fill="#0592d0"/>
<circle cx="280" cy="477" r="1.8" fill="#0592d0"/>
<circle cx="294" cy="477" r="1.8" fill="#0592d0"/>
<circle cx="238" cy="486" r="1.8" fill="#0592d0"/>
<circle cx="252" cy="486" r="1.8" fill="#0592d0"/>
<circle cx="266" cy="486" r="1.8" fill="#0592d0"/>
<circle cx="280" cy="486" r="1.8" fill="#0592d0"/>
<circle cx="294" cy="486" r="1.8" fill="#0592d0"/>
<circle cx="266" cy="495" r="1.8" fill="#0592d0"/>
<circle cx="266" cy="504" r="1.8" fill="#0592d0"/>
</svg>